<?xml version="1.0" standalone="no"?>
<!DOCTYPE svg PUBLIC "-//W3C//DTD SVG 1.1//EN" "http://www.w3.org/Graphics/SVG/1.1/DTD/svg11.dtd" >
<svg>
<metadata>
Created by FontForge 20090914 at Sun Apr  6 19:01:04 2014
 By www-data
&#194;&#169;2002 G-Type.  Designed and digitized by Nick Cooke.
</metadata>
<defs>
<font id="HouschkaAltMedium" horiz-adv-x="500" >
  <font-face 
    font-family="HouschkaAltMedium"
    font-weight="500"
    font-stretch="normal"
    units-per-em="1000"
    panose-1="0 0 5 0 0 0 0 0 0 0"
    ascent="800"
    descent="-200"
    x-height="448.998"
    cap-height="681"
    bbox="-21.0001 -251.001 1166 929.999"
    underline-thickness="50"
    underline-position="-75"
    unicode-range="U+0020-U+F002"
  />
<missing-glyph 
d="M63 0h375v760h-375v-760zM125 63v635h250v-635h-250z" />
    <glyph glyph-name=".notdef" 
d="M63 0h375v760h-375v-760zM125 63v635h250v-635h-250z" />
    <glyph glyph-name="space" unicode=" " horiz-adv-x="278" 
 />
    <glyph glyph-name="exclam" unicode="!" horiz-adv-x="271" 
d="M191 542c0 98.667 -18.667 148 -56 148s-56 -49.333 -56 -148c0 -30.667 2 -66.334 6 -107.001l25 -254c0.666992 -6.66699 4 -10 10 -10h30c6 0 9.33301 3.33301 10 10l25 254c4 40.667 6 76.334 6 107.001zM196 51c0 16.667 -5.83301 30.834 -17.5 42.501
s-25.834 17.5 -42.501 17.5s-30.834 -5.83301 -42.501 -17.5s-17.5 -25.834 -17.5 -42.501s5.83301 -30.834 17.5 -42.501s25.834 -17.5 42.501 -17.5s30.834 5.83301 42.501 17.5s17.5 25.834 17.5 42.501z" />
    <glyph glyph-name="quotedbl" unicode="&#x22;" 
 />
    <glyph glyph-name="numbersign" unicode="#" horiz-adv-x="584" 
d="M584 124v49c0 6.66699 -3.33301 10 -10 10h-131l36 170h95c6.66699 0 10 3.33301 10 10v49c0 6.66699 -3.33301 10 -10 10h-81l39 185c0.666992 6.66699 -2.66602 10 -9.99902 10h-52c-6 0 -9.33301 -3.33301 -10 -10l-39 -185h-194l39 185
c0.666992 6.66699 -2.66602 10 -9.99902 10h-52c-6 0 -9.33301 -3.33301 -10 -10l-39 -185h-144c-6.66699 0 -10 -3.33301 -10 -10v-49c0 -6.66699 3.33301 -10 10 -10h130l-36 -170h-94c-6.66699 0 -10 -3.33301 -10 -10v-49c0 -6.66699 3.33301 -10 10 -10h80l-39 -185
c-0.666992 -6.66699 2.66602 -10 9.99902 -10h52c6 0 9.33301 3.33301 10 10l39 185h194l-39 -185c-0.666992 -6.66699 2.66602 -10 9.99902 -10h52c6 0 9.33301 3.33301 10 10l39 185h145c6.66699 0 10 3.33301 10 10zM407 353l-36 -170h-194l36 170h194z" />
    <glyph glyph-name="dollar" unicode="$" horiz-adv-x="527" 
d="M489 178c0 54 -22.3301 97.333 -66.9971 130c-24.667 18 -63.667 35.667 -117 53v197c34.667 -6 67.667 -19.667 99 -41c5.33301 -3.33301 9.66602 -2.33301 12.999 3l39 58c3.33301 5.33301 2.33301 9.66602 -3 12.999c-44.667 28.667 -94 46 -148 52v41
c0 7.33301 -3.33301 11 -10 11h-64c-6.66699 0 -10 -3.66699 -10 -11v-42c-58.667 -6.66699 -103.834 -24.5 -135.501 -53.5s-47.5 -66.833 -47.5 -113.5c0 -51.333 20 -92.333 60 -123c24.667 -20 65.667 -40 123 -60v-215c-13.333 1.33301 -25.833 4 -37.5 8
s-22.834 8.66699 -33.501 14c-13.333 6.66699 -29.333 17 -48 31c-4.66699 4.66699 -9 4.33398 -13 -0.999023l-44 -56c-4 -5.33301 -3.33301 -9.66602 2 -12.999c53.333 -40.667 111.333 -63.334 174 -68.001v-33c0 -6.66699 3.33301 -10 10 -10h64
c6.66699 0 10 3.33301 10 10v35c56.667 7.33301 101.5 27.333 134.5 60s49.5 74 49.5 124zM221.003 558v-168.999c-59.333 20 -89 49 -89 87c0 45.333 29.667 72.666 89 81.999zM395.003 177.001c0 -55.333 -30 -88.333 -90 -99v188c60 -20 90 -49.667 90 -89z" />
    <glyph glyph-name="percent" unicode="%" horiz-adv-x="680" 
d="M331 537c0 42 -15.333 78 -46 108c-30 30 -65.667 45 -107 45c-42 0 -78 -15 -108 -45s-45 -66 -45 -108c0 -42.667 15 -79 45 -109c30.667 -29.333 66.667 -44 108 -44s77 15 107 45c30.667 30 46 66 46 108zM606 680c4 6.66699 2 10 -6 10h-79
c-2.66699 0 -6 -3.33301 -10 -10l-436 -679c-4 -6.66699 -2.66699 -10 4 -10h81c2.66699 0 6 3.33301 10 10zM655 143c0 42 -15.333 78 -46 108c-30 30 -65.667 45 -107 45c-42 0 -78 -15 -108 -45s-45 -66 -45 -108c0 -42.667 15 -79 45 -109
c30.667 -29.333 66.667 -44 108 -44s77 15 107 45c30.667 30 46 66 46 108zM257 537c0 -22 -7.66699 -40.667 -23 -56s-34 -23 -56 -23c-21.333 0 -39.833 7.66699 -55.5 23s-23.5 34 -23.5 56c0 21.333 7.83301 39.833 23.5 55.5s34.167 23.5 55.5 23.5
c22 0 40.667 -7.83301 56 -23.5s23 -34.167 23 -55.5zM581 143c0 -22 -7.66699 -40.667 -23 -56s-34 -23 -56 -23c-21.333 0 -39.833 7.66699 -55.5 23s-23.5 34 -23.5 56c0 21.333 7.83301 39.833 23.5 55.5s34.167 23.5 55.5 23.5c22 0 40.667 -7.83301 56 -23.5
s23 -34.167 23 -55.5z" />
    <glyph glyph-name="ampersand" unicode="&#x26;" horiz-adv-x="684" 
d="M627 1l-0.00195312 68.0029c0 6 -3.33301 9.33301 -10 10c-31.333 5.33301 -61.333 19.666 -90 42.999c32 52 48 112.333 48 181c0 6.66699 -3.66699 10 -11 10h-71c-6.66699 0 -10 -3.33301 -10 -10c0 -48.667 -8.66699 -89.667 -26 -123
c-26.667 25.333 -52.167 52.166 -76.5 80.499s-47.166 58.5 -68.499 90.5c50.667 24.667 87.334 48 110.001 70c32.667 32 49 70.333 49 115c0 20.667 -3.83301 39.667 -11.5 57s-18.167 32.166 -31.5 44.499s-29.5 21.833 -48.5 28.5s-39.5 10 -61.5 10
c-60.667 0 -105.667 -18.667 -135 -56c-21.333 -27.333 -32 -60.666 -32 -99.999c0 -36.667 12.667 -81 38 -133c-97.333 -51.333 -146 -116 -146 -194c0 -62.667 22 -112.334 66 -149.001c43.333 -36.667 101 -55 173 -55s134.333 21.667 187 65
c16.667 -11.333 31.167 -20.833 43.5 -28.5s22.833 -13.5 31.5 -17.5c24.667 -11.333 49 -17 73 -17c6.66699 0 10 3.33301 10 10zM376.998 536.003c0 -22.667 -10.334 -43.333 -31.001 -62c-15.333 -13.333 -41 -29 -77 -47c-17.333 38 -26 68.333 -26 91c0 48 25 72 75 72
c20.667 0 36.334 -6.33301 47.001 -19c8.66699 -9.33301 13 -21 13 -35h-1zM398.997 110.004c-35.333 -23.333 -74.334 -34.999 -117.001 -34.999c-96.667 0 -145 39.333 -145 118c0 45.333 31.667 84.666 95 117.999c46.667 -73.333 102.334 -140.333 167.001 -201z" />
    <glyph glyph-name="quotesingle" unicode="'" horiz-adv-x="116" 
d="M116 597c0 26 -6.66602 48 -19.999 66s-30.666 27 -51.999 27c-40 0 -60 -20.333 -60 -61c0 -34 17.667 -53.667 53 -59c0.666992 -13.333 0.666992 -24.833 0 -34.5s-2.33398 -17.834 -5.00098 -24.501c-4.66699 -16.667 -16.334 -32.667 -35.001 -48
c-4.66699 -4 -6.66699 -6.33301 -6 -7l4 -10c1.33301 -1.33301 3.33301 -1.66602 6 -0.999023c36.667 12 65 31.333 85 58s30 58 30 94z" />
    <glyph glyph-name="parenleft" unicode="(" horiz-adv-x="267" 
d="M267 -220c-91.333 127.333 -137 278 -137 452s45.667 324.667 137 452c2 2 2.66699 4.33301 2 7c-1.33301 2 -3.33301 3 -6 3h-34c-4.66699 0 -9.33398 -2.33301 -14.001 -7c-36 -32 -71.333 -79.667 -106 -143c-54.667 -99.333 -82 -203.333 -82 -312
s27.333 -212.667 82 -312c34.667 -63.333 70 -111 106 -143c4.66699 -4.66699 9.33398 -7 14.001 -7h34c2.66699 0 4.66699 1 6 3c0.666992 2.66699 0 5 -2 7z" />
    <glyph glyph-name="parenright" unicode=")" horiz-adv-x="293" 
d="M239 232c0 108.667 -27.333 212.667 -82 312c-34.667 63.333 -70 111 -106 143c-4.66699 4.66699 -9.33398 7 -14.001 7h-34c-7.33301 0 -8.66602 -3.33301 -3.99902 -10c91.333 -127.333 137 -278 137 -452s-45.667 -324.667 -137 -452
c-4.66699 -6.66699 -3.33398 -10 3.99902 -10h34c4.66699 0 9.33398 2.33301 14.001 7c36 32 71.333 79.667 106 143c54.667 99.333 82 203.333 82 312z" />
    <glyph glyph-name="asterisk" unicode="*" horiz-adv-x="420" 
d="M358 497c2.66699 4 1.66699 7.33301 -3 10l-86 50l86 50c4.66699 2.66699 5.66699 6.33398 3 11.001l-22 37c-2.66699 4.66699 -6.33398 5.66699 -11.001 3l-86 -50v100c0 5.33301 -2.66699 8 -8 8h-43c-5.33301 0 -8 -2.66699 -8 -8v-100l-86 50
c-4.66699 2.66699 -8.33398 1.66699 -11.001 -3l-22 -37c-2.66699 -4.66699 -1.66699 -8.33398 3 -11.001l86 -50l-86 -50c-4.66699 -2.66699 -5.66699 -6 -3 -10l22 -38c2.66699 -4.66699 6.33398 -5.66699 11.001 -3l86 50v-100c0 -5.33301 2.66699 -8 8 -8h43
c5.33301 0 8 2.66699 8 8v100l86 -50c4.66699 -2.66699 8.33398 -1.66699 11.001 3z" />
    <glyph glyph-name="plus" unicode="+" horiz-adv-x="584" 
d="M527 322v62c0 6.66699 -3.33301 10 -10 10h-184v184c0 6.66699 -3.33301 10 -10 10h-62c-6.66699 0 -10 -3.33301 -10 -10v-184h-185c-6.66699 0 -10 -3.33301 -10 -10v-62c0 -6.66699 3.33301 -10 10 -10h185v-184c0 -6.66699 3.33301 -10 10 -10h62
c6.66699 0 10 3.33301 10 10v184h184c6.66699 0 10 3.33301 10 10z" />
    <glyph glyph-name="comma" unicode="," horiz-adv-x="219" 
d="M176 24c0 26.667 -6.16602 47.833 -18.499 63.5s-28.833 23.5 -49.5 23.5c-40 0 -60 -20.333 -60 -61c0 -34 17.667 -53.667 53 -59c-2.66699 -14 -6.33398 -25 -11.001 -33c-5.33301 -8.66699 -17 -20 -35 -34c-4.66699 -4.66699 -5.66699 -9 -3 -13l15 -19
c1.33301 -1.33301 4.33301 -2 9 -2c32 11.333 56.667 30 74 56c17.333 25.333 26 51.333 26 78z" />
    <glyph glyph-name="hyphen" unicode="-" horiz-adv-x="413" 
d="M328 188v64c0 6.66699 -3.33301 10 -10 10h-223c-6.66699 0 -10 -3.33301 -10 -10v-64c0 -6.66699 3.33301 -10 10 -10h223c6.66699 0 10 3.33301 10 10z" />
    <glyph glyph-name="hyphen" unicode="&#x2010;" horiz-adv-x="413" 
d="M328 188v64c0 6.66699 -3.33301 10 -10 10h-223c-6.66699 0 -10 -3.33301 -10 -10v-64c0 -6.66699 3.33301 -10 10 -10h223c6.66699 0 10 3.33301 10 10z" />
    <glyph glyph-name="period" unicode="." horiz-adv-x="219" 
d="M169 51c0 16.667 -5.83301 30.834 -17.5 42.501s-25.834 17.5 -42.501 17.5s-30.834 -5.83301 -42.501 -17.5s-17.5 -25.834 -17.5 -42.501s5.83301 -30.834 17.5 -42.501s25.834 -17.5 42.501 -17.5s30.834 5.83301 42.501 17.5s17.5 25.834 17.5 42.501z" />
    <glyph glyph-name="slash" unicode="/" horiz-adv-x="416" 
d="M436 686c2.66699 6.66699 0 10 -8 10h-84c-4 0 -7.33301 -3.33301 -10 -10l-354 -691c-2.66699 -6.66699 0 -10 8 -10h84c4 0 7.33301 3.33301 10 10z" />
    <glyph glyph-name="zero" unicode="0" horiz-adv-x="600" 
d="M544 268c0 184.667 -81.667 277 -245 277c-162.667 0 -244 -92.333 -244 -277s81.667 -277 245 -277c162.667 0 244 92.333 244 277zM462 268c0 -136 -54 -204 -162 -204c-109.333 0 -164 68 -164 204s54.333 204 163 204s163 -68 163 -204z" />
    <glyph glyph-name="one" unicode="1" horiz-adv-x="600" 
d="M499 10v55c0 6.66699 -3.33301 10 -10 10h-127v460c0 6.66699 -3.33301 10 -10 10h-51c-2.66699 0 -5.66699 -0.166992 -9 -0.5s-7.33301 -0.833008 -12 -1.5l-168 -40c-7.33301 -3.33301 -11 -8 -11 -14v-52c0 -8 3 -11.333 9 -10l159 29v-381h-160
c-6.66699 0 -10 -3.33301 -10 -10v-55c0 -6.66699 3.33301 -10 10 -10h380c6.66699 -0 10 3.33301 10 10z" />
    <glyph glyph-name="two" unicode="2" horiz-adv-x="600" 
d="M490 386c0 24 -4.49902 45.8301 -13.499 65.4971s-21.833 36.334 -38.5 50.001s-36.834 24.334 -60.501 32.001s-50.167 11.5 -79.5 11.5c-86 0 -154 -26.667 -204 -80c-6 -6 -6.33301 -12 -1 -18l39 -43c6 -5.33301 11.667 -4.66602 17 2.00098
c40.667 42.667 88.334 64 143.001 64c72.667 0 109 -28.667 109 -86c0 -30.667 -22.667 -59 -68 -85l-70.5 -38l-52.5 -27c-80.667 -44.667 -121 -106.334 -121 -185.001v-30c0 -12.667 6.33301 -19 19 -19h363c11.333 0 17 5.33301 17 16v48c0 10.667 -5.66699 16 -17 16
h-281v1c5.33301 42.667 55.666 86.334 150.999 131.001c99.333 47.333 149 105.333 149 174z" />
    <glyph glyph-name="three" unicode="3" horiz-adv-x="600" 
d="M507 37c0 81.333 -37.335 138.995 -112.002 172.995c-0.666992 0.666992 -0.666992 1.33398 0 2.00098c58 32.667 87 84.334 87 155.001c0 50 -18 92 -54 126c-35.333 34.667 -82.666 52 -141.999 52c-43.333 0 -81.333 -8 -114 -24
c-11.333 -5.33301 -24.166 -13.166 -38.499 -23.499s-30.166 -22.833 -47.499 -37.5c-4 -3.33301 -4.66699 -7.33301 -2 -12l40 -60c3.33301 -5.33301 7.33301 -6 12 -2c13.333 12 25.333 22.167 36 30.5s20.334 14.833 29.001 19.5c25.333 14.667 53.666 22 84.999 22
c34.667 0 61 -10 79 -30c15.333 -17.333 23 -37.666 23 -60.999c0 -34 -12.333 -63 -37 -87c-25.333 -24 -56.333 -35.667 -93 -35l-75 1c-6 0 -9 -3 -9 -9v-66c0 -6 3 -9 9 -9l75 1c22.667 0 43.667 -2.83301 63 -8.5s35.666 -14 48.999 -25s23.833 -24.333 31.5 -40
s11.5 -33.167 11.5 -52.5c0 -29.333 -11 -53.333 -33 -72c-25.333 -21.333 -61 -32 -107 -32c-58.667 0 -115.667 24.333 -171 73c-4.66699 4.66699 -8.66699 4 -12 -2l-41 -61c-3.33301 -4 -2.33301 -7.66699 3 -11c67.333 -57.333 143.333 -86 228 -86
c68 0 122.667 18 164 54c42 34.667 63 80.334 63 137.001z" />
    <glyph glyph-name="four" unicode="4" horiz-adv-x="600" 
d="M565 10v55c0 6.66699 -3.33301 10 -10 10h-93v456c0 6.66699 -3.33301 10 -10 10h-68c-5.33301 0 -10.333 -3.33301 -15 -10l-317 -444c-3.33301 -8 -5 -13 -5 -15v-62c0 -6.66699 3.33301 -10 10 -10h312v-130c0 -6.66699 3.33301 -10 10 -10h73
c6.66699 0 10 3.33301 10 10v130h93c6.66699 -0 10 3.33301 10 10zM369 75h-225l225 316v-316z" />
    <glyph glyph-name="five" unicode="5" horiz-adv-x="600" 
d="M533 80c0 68 -19.002 123.667 -57.002 167c-40 44 -92.333 66 -157 66c-42.667 0 -79.334 -10.333 -110.001 -31l14 170h262c6.66699 0 10 3.33301 10 10v64c0 6.66699 -3.33301 10 -10 10h-336c-6 0 -9.33301 -3.33301 -10 -10l-28 -351
c-1.33301 -5.33301 2 -8.66602 10 -9.99902l65 -17c2.66699 -0.666992 6.33398 2.66602 11.001 9.99902c24.667 44 65.334 66 122.001 66c36 0 65 -12.667 87 -38s33 -61 33 -107c0 -40 -13 -74 -39 -102s-58.667 -42 -98 -42c-34 0 -62.667 6.66699 -86 20
c-8.66699 4.66699 -18 11.334 -28 20.001s-21.333 19.667 -34 33c-5.33301 5.33301 -10 4.66602 -14 -2.00098l-47 -59c-3.33301 -4.66699 -2.66602 -9.33398 2.00098 -14.001c31.333 -29.333 58.333 -49.666 81 -60.999c34.667 -17.333 76.667 -26 126 -26
c66.667 0 121.667 22.667 165 68c44 44.667 66 100 66 166z" />
    <glyph glyph-name="six" unicode="6" horiz-adv-x="600" 
d="M530 208c0 68.667 -19.001 123 -57.001 163c-38 40.667 -88.667 61 -152 61c-56 0 -107.333 -22.333 -154 -67c14 157.333 70.333 236 169 236c44 0 84.333 -13.667 121 -41c5.33301 -4 10 -3.33301 14 2l47 59c4 7.33301 3.33301 12 -2 14
c-14.667 9.33301 -27.667 17 -39 23s-21 10.667 -29 14c-32 12 -69.333 18 -112 18c-100.667 0 -173.667 -46.667 -219 -140c-31.333 -66 -47 -146.667 -47 -242c0 -211.333 79 -317 237 -317c66.667 0 120.334 20.333 161.001 61c41.333 41.333 62 93.333 62 156z
M435.999 208c0 -37.333 -11.3311 -67.333 -33.998 -90c-22.667 -24.667 -54.334 -37 -95.001 -37c-83.333 0 -130 52.667 -140 158c33.333 69.333 84.666 104 153.999 104c76.667 0 115 -45 115 -135z" />
    <glyph glyph-name="seven" unicode="7" horiz-adv-x="600" 
d="M537 466l-0.000976562 60c0 6.66699 -3.33301 10 -10 10h-428c-6.66699 0 -10 -3.33301 -10 -10v-163c0 -6.66699 3.33301 -10 10 -10h64c6.66699 0 10 3.33301 10 10v89h271l-44.5 -80.5c-13.667 -25.667 -26.167 -50.167 -37.5 -73.5l-208 -433
c-4 -6.66699 -0.666992 -10 10 -10h81c6.66699 0 11.334 3.33301 14.001 10l274 589l3 9z" />
    <glyph glyph-name="eight" unicode="8" horiz-adv-x="600" 
d="M544 176c0 79.333 -48.668 140.667 -146.001 184c79.333 36 119 89 119 159c0 25.333 -5.16699 48.5 -15.5 69.5s-25 39 -44 54s-41.833 26.667 -68.5 35s-56.667 12.5 -90 12.5s-63.166 -4.16699 -89.499 -12.5s-49 -20 -68 -35s-33.5 -33 -43.5 -54
s-15 -44.167 -15 -69.5c0 -71.333 39.333 -124.333 118 -159c-96.667 -42.667 -145 -104 -145 -184c0 -58 21.5 -103.333 64.5 -136s102.833 -49 179.5 -49s136.5 16.333 179.5 49s64.5 78 64.5 136zM423.999 519.001c0 -29.333 -13.9971 -54 -41.9971 -74
c-8.66699 -6 -19.834 -12 -33.501 -18s-29.834 -12.333 -48.501 -19h-1c-82.667 28 -124 65 -124 111c0 21.333 8.33301 39.333 25 54c21.333 19.333 54.666 29 99.999 29c44.667 0 78 -10 100 -30c16 -15.333 24 -33 24 -53zM450.002 176.001
c0 -63.333 -50 -95.001 -150 -95.001c-100.667 0 -151 31.667 -151 95c0 54 50.333 99 151 135c52 -23.333 87 -41.666 105 -54.999c30 -23.333 45 -50 45 -80z" />
    <glyph glyph-name="nine" unicode="9" horiz-adv-x="600" 
d="M530 228c0 211.333 -78.999 317.001 -236.999 317.001c-66.667 0 -120.334 -20.333 -161.001 -61c-41.333 -41.333 -62 -93.333 -62 -156c0 -67.333 18.333 -121.333 55 -162c37.333 -41.333 88.666 -62 153.999 -62c56 0 107.333 22.333 154 67
c-16 -157.333 -72.333 -236 -169 -236c-45.333 0 -85.666 13.667 -120.999 41c-5.33301 3.33301 -10 2.66602 -14 -2.00098l-47 -59c-4 -7.33301 -3.33301 -12 2 -14c14.667 -9.33301 27.667 -17 39 -23s21 -10.667 29 -14c32 -12 69.333 -18 112 -18
c96 0 167 42.333 213 127c35.333 67.333 53 152.333 53 255zM433.001 297.001c-34 -69.333 -85.333 -104 -154 -104c-76.667 0 -115 45 -115 135c0 38 11.5 68.667 34.5 92s54.5 35 94.5 35c82 0 128.667 -52.667 140 -158z" />
    <glyph glyph-name="colon" unicode=":" horiz-adv-x="219" 
d="M169 398c0 16.667 -5.83301 30.834 -17.5 42.501s-25.834 17.5 -42.501 17.5s-30.834 -5.83301 -42.501 -17.5s-17.5 -25.834 -17.5 -42.501s5.83301 -30.834 17.5 -42.501s25.834 -17.5 42.501 -17.5s30.834 5.83301 42.501 17.5s17.5 25.834 17.5 42.501zM169 51
c0 16.667 -5.83301 30.834 -17.5 42.501s-25.834 17.5 -42.501 17.5s-30.834 -5.83301 -42.501 -17.5s-17.5 -25.834 -17.5 -42.501s5.83301 -30.834 17.5 -42.501s25.834 -17.5 42.501 -17.5s30.834 5.83301 42.501 17.5s17.5 25.834 17.5 42.501z" />
    <glyph glyph-name="semicolon" unicode=";" horiz-adv-x="219" 
d="M169 398c0 16.667 -5.83301 30.834 -17.5 42.501s-25.834 17.5 -42.501 17.5s-30.834 -5.83301 -42.501 -17.5s-17.5 -25.834 -17.5 -42.501s5.83301 -30.834 17.5 -42.501s25.834 -17.5 42.501 -17.5s30.834 5.83301 42.501 17.5s17.5 25.834 17.5 42.501zM176 23
c0 28 -6.16602 49.667 -18.499 65s-28.833 23 -49.5 23c-40 0 -60 -20.333 -60 -61c0 -34 17.667 -53.667 53 -59c-2.66699 -14 -6.33398 -25 -11.001 -33c-5.33301 -8.66699 -17 -20 -35 -34c-4.66699 -4.66699 -5.66699 -9 -3 -13l15 -19
c1.33301 -1.33301 4.33301 -2 9 -2c32 11.333 56.667 30 74 56c17.333 25.333 26 51.333 26 78v-1z" />
    <glyph glyph-name="less" unicode="&#x3c;" horiz-adv-x="584" 
d="M529 111v77c0 6.66699 -3.33301 11.334 -10 14.001l-343 152l343 152c6.66699 2.66699 10 7.33398 10 14.001v77c0 6.66699 -3.33301 8.66699 -10 6l-422 -190c-6.66699 -2.66699 -10 -7.33398 -10 -14.001v-90c0 -6.66699 3.33301 -11.334 10 -14.001l422 -190
c6.66699 -2.66699 10 -0.666992 10 6z" />
    <glyph glyph-name="equal" unicode="=" horiz-adv-x="584" 
d="M528 431v62c0 6.66699 -3.33301 10 -10 10h-452c-6.66699 0 -10 -3.33301 -10 -10v-62c0 -6.66699 3.33301 -10 10 -10h452c6.66699 0 10 3.33301 10 10zM528 213v62c0 6.66699 -3.33301 10 -10 10h-452c-6.66699 0 -10 -3.33301 -10 -10v-62
c0 -6.66699 3.33301 -10 10 -10h452c6.66699 0 10 3.33301 10 10z" />
    <glyph glyph-name="greater" unicode="&#x3e;" horiz-adv-x="584" 
d="M497 309v90c0 6.66699 -3.33301 11.334 -10 14.001l-422 190c-6.66699 2.66699 -10 0.666992 -10 -6v-77c0 -6.66699 3.33301 -11.334 10 -14.001l343 -152l-343 -152c-6.66699 -2.66699 -10 -7.33398 -10 -14.001v-77c0 -6.66699 3.33301 -8.66699 10 -6l422 190
c6.66699 2.66699 10 7.33398 10 14.001z" />
    <glyph glyph-name="question" unicode="?" horiz-adv-x="472" 
d="M468 493c0 57.333 -21.335 104.338 -64.002 141.005c-42.667 37.333 -94.667 56 -156 56c-77.333 0 -152.333 -32 -225 -96c-4.66699 -4.66699 -5.66699 -9.33398 -3 -14.001l40 -60c4 -6.66699 8.66699 -7.33398 14 -2.00098c62.667 55.333 118.667 83 168 83
c43.333 0 76.666 -12 99.999 -36c20 -20 30 -44 30 -72c0 -10 -0.666992 -18.833 -2 -26.5s-3.66602 -14.5 -6.99902 -20.5s-7.83301 -11.833 -13.5 -17.5s-12.5 -11.834 -20.5 -18.501l-38.5 -30c-13 -10 -25.333 -20.333 -37 -31s-22.167 -21.334 -31.5 -32.001
s-16.666 -21.334 -21.999 -32.001c-12.667 -26 -19 -60.667 -19 -104c0 -6.66699 3.66699 -10 11 -10h74c6.66699 0 10 3.33301 10 10c0 33.333 7 60.666 21 81.999c8.66699 13.333 26.334 29.333 53.001 48c20.667 14.667 38.167 28.334 52.5 41.001s25.5 24.667 33.5 36
c21.333 29.333 32 64.333 32 105zM287.998 51.0049c0 16.667 -5.83203 30.834 -17.499 42.501s-25.834 17.5 -42.501 17.5s-30.834 -5.83301 -42.501 -17.5s-17.5 -25.834 -17.5 -42.501s6 -30.834 18 -42.501s26.333 -17.5 43 -17.5s30.834 5.83301 42.501 17.5
s17.5 25.834 17.5 42.501h-1z" />
    <glyph glyph-name="at" unicode="@" horiz-adv-x="899" 
d="M800 388c0 88.667 -32.001 160.669 -96.001 216.002c-60.667 52.667 -138.334 79 -233.001 79c-101.333 0 -188.666 -34.667 -261.999 -104c-72.667 -68.667 -109 -151.334 -109 -248.001c0 -106.667 35 -193 105 -259c70.667 -66 160.667 -99 270 -99
c90 0 172.667 15 248 45c6 2.66699 7.66699 6.33398 5 11.001l-11 28c-2 6 -6 7.66699 -12 5c-69.333 -28 -146 -42 -230 -42c-90.667 0 -167.334 27.333 -230.001 82c-65.333 57.333 -98 131.333 -98 222c0 87.333 32.667 161.666 98 222.999
c63.333 59.333 139.333 89 228 89c76 0 140.667 -21 194 -63c56.667 -44.667 85 -105.334 85 -182.001c0 -54.667 -14.333 -104.334 -43 -149.001c-27.333 -42 -54.333 -63 -81 -63c-14.667 0 -22 9.66699 -22 29v175c0 58.667 -19.667 101 -59 127
c-27.333 18 -60.333 27 -99 27c-56 0 -104 -16 -144 -48c-4 -4 -4.66699 -8.33301 -2 -13l31 -45c4 -4.66699 8.33301 -5.66699 13 -3c34.667 24.667 68.667 37 102 37c24.667 0 44.667 -8 60 -24c12.667 -14 18.334 -33 17.001 -57c-70 -6 -122 -15.667 -156 -29
c-56.667 -24 -85 -61.333 -85 -112c0 -37.333 13.667 -68 41 -92c26.667 -24 59.334 -36 98.001 -36c40.667 0 74.667 10 102 30c14 -20 32.667 -30 56 -30c65.333 0 119.333 31.333 162 94c38 54.667 57 114.334 57 179.001zM524.999 222.002
c-23.333 -25.333 -56.999 -36.334 -100.999 -33.001c-36.667 2 -56.334 17.333 -59.001 46c-3.33301 24 9.66699 42 39 54c24 10.667 64.333 18.334 121 23.001v-90z" />
    <glyph glyph-name="A" unicode="A" horiz-adv-x="587" 
d="M585 18l-251.998 653c-3.33301 9.33301 -8.66602 14 -15.999 14h-47c-6.66699 0 -11.667 -4.66699 -15 -14l-253 -653c-1.33301 -4 -0.833008 -8 1.5 -12s6.16602 -6 11.499 -6h66c7.33301 0 12.666 4.66699 15.999 14l56 151h277l56 -151
c3.33301 -9.33301 8.66602 -14 15.999 -14h71c12.667 0 16.667 6 12 18zM402.002 239h-221l110 297z" />
    <glyph glyph-name="B" unicode="B" horiz-adv-x="618" 
d="M588 182c0 93.333 -48 152.666 -144 177.999v2c58.667 26.667 88 75.334 88 146.001c0 47.333 -17.333 87 -52 119c-39.333 36 -93.333 54 -162 54h-228c-6.66699 0 -10 -3.33301 -10 -10v-661c0 -6.66699 3.33301 -10 10 -10h264c78.667 0 139 20 181 60
c35.333 33.333 53 74 53 122zM436 499c0 -75.333 -51 -113 -153 -113h-109v211h134c42 0 74.667 -10 98 -30c20 -17.333 30 -40 30 -68zM492 194c0 -30 -10.667 -54.666 -32 -73.999c-26 -24 -65.333 -36 -118 -36h-168v218h163c52 0 90.833 -9.83301 116.5 -29.5
s38.5 -45.834 38.5 -78.501z" />
    <glyph glyph-name="C" unicode="C" horiz-adv-x="634" 
d="M608 76l-40.002 57.999c-4 5.33301 -8.66699 6.33301 -14 3l-39 -23c-10 -6 -16.667 -9.66699 -20 -11c-31.333 -14 -66 -21 -104 -21c-70 0 -130 25 -180 75c-50 50.667 -75 112 -75 184c0 69.333 25.333 129.333 76 180c51.333 51.333 111 77 179 77
c54 0 108.333 -18.667 163 -56c5.33301 -4 10 -3 14 3l39 60c5.33301 5.33301 4.66602 10 -2.00098 14c-71.333 47.333 -142.666 71 -213.999 71c-95.333 0 -177.666 -34.667 -246.999 -104s-104 -151 -104 -245c0 -98 34.333 -181 103 -249s151.334 -102 248.001 -102
c82.667 0 154 24 214 72c4.66699 4.66699 5.66699 9.33398 3 14.001z" />
    <glyph glyph-name="D" unicode="D" horiz-adv-x="727" 
d="M687 341c0 94 -34.667 174 -104 240c-68.667 66.667 -151 100 -247 100h-246c-6.66699 0 -10 -3.33301 -10 -10v-661c0 -6.66699 3.33301 -10 10 -10h246c96 0 178.667 32.667 248 98c68.667 64.667 103 145.667 103 243zM591 341c0 -70.667 -25 -130.333 -75 -179
c-50 -48 -110 -72 -180 -72h-162v501h162c69.333 0 129.333 -24.667 180 -74c50 -49.333 75 -108 75 -176z" />
    <glyph glyph-name="E" unicode="E" horiz-adv-x="594" 
d="M574 10v64c0 6.66699 -3.33301 10 -10 10h-390v216h337c6.66699 0 10 3.33301 10 10v64c0 6.66699 -3.33301 10 -10 10h-337v213h390c6.66699 0 10 3.33301 10 10v64c0 6.66699 -3.33301 10 -10 10h-474c-6.66699 0 -10 -3.33301 -10 -10v-661
c0 -6.66699 3.33301 -10 10 -10h474c6.66699 -0 10 3.33301 10 10z" />
    <glyph glyph-name="F" unicode="F" horiz-adv-x="564" 
d="M544 607v64c0 6.66699 -3.33301 10 -10 10h-444c-6.66699 0 -10 -3.33301 -10 -10v-661c0 -6.66699 3.33301 -10 10 -10h74c6.66699 -0 10 3.33301 10 10v290h307c6.66699 0 10 3.33301 10 10v64c0 6.66699 -3.33301 10 -10 10h-307v213h360c6.66699 0 10 3.33301 10 10z
" />
    <glyph glyph-name="G" unicode="G" horiz-adv-x="743" 
d="M673 10v324.999c0 6.66699 -3.33301 10 -10 10h-268c-6.66699 0 -10 -3.33301 -10 -10v-69c0 -6.66699 3.33301 -10 10 -10h184v-101c-47.333 -49.333 -110 -74 -188 -74c-70 0 -130 25 -180 75c-50 50.667 -75 112.334 -75 185.001c0 68.667 25 128.667 75 180
c51.333 51.333 111.333 77 180 77c54 0 108.333 -18.667 163 -56c5.33301 -4 10 -3 14 3l39 60c5.33301 5.33301 4.66602 10 -2.00098 14c-71.333 47.333 -142.666 71 -213.999 71c-96.667 0 -179.334 -34.333 -248.001 -103s-103 -150.667 -103 -246
c0 -97.333 34.333 -180 103 -248s151.334 -102 248.001 -102c69.333 0 132 18 188 54v-35c0 -6.66699 3.33301 -10 10 -10h74c6.66699 -0 10 3.33301 10 10z" />
    <glyph glyph-name="H" unicode="H" horiz-adv-x="714" 
d="M634 10v661c0 6.66699 -3.33301 10 -10 10h-74c-6.66699 0 -10 -3.33301 -10 -10v-287h-366v287c0 6.66699 -3.33301 10 -10 10h-74c-6.66699 0 -10 -3.33301 -10 -10v-661c0 -6.66699 3.33301 -10 10 -10h74c6.66699 -0 10 3.33301 10 10v290h366v-290
c0 -6.66699 3.33301 -10 10 -10h74c6.66699 -0 10 3.33301 10 10z" />
    <glyph glyph-name="I" unicode="I" horiz-adv-x="254" 
d="M174 10v661c0 6.66699 -3.33301 10 -10 10h-74c-6.66699 0 -10 -3.33301 -10 -10v-661c0 -6.66699 3.33301 -10 10 -10h74c6.66699 -0 10 3.33301 10 10z" />
    <glyph glyph-name="J" unicode="J" horiz-adv-x="495" 
d="M435 260l0.00195312 411c0 6.66699 -3.33301 10 -10 10h-74c-6.66699 0 -10 -3.33301 -10 -10v-414c0 -57.333 -17 -102 -51 -134c-29.333 -27.333 -65.333 -41 -108 -41s-78.667 13.667 -108 41c-4.66699 4.66699 -9.33398 4.66699 -14.001 0l-50 -50
c-2 -2 -3 -4.33301 -3 -7c0 -4 1 -6.33301 3 -7c49.333 -45.333 106.666 -68 171.999 -68c66.667 0 124 22 172 66c54 50 81 117.667 81 203z" />
    <glyph glyph-name="K" unicode="K" horiz-adv-x="605" 
d="M590 13l-292 370l261 285c2 2 2.66699 4.66699 2 8c-1.33301 3.33301 -3.33301 5 -6 5h-103c-5.33301 0 -11 -3.33301 -17 -10l-261 -295v295c0 6.66699 -3.33301 10 -10 10h-74c-6.66699 0 -10 -3.33301 -10 -10v-661c0 -6.66699 3.33301 -10 10 -10h74
c6.66699 -0 10 3.33301 10 10v239l59 65l238 -304c4.66699 -6.66699 10.334 -10 17.001 -10h98c3.33301 0 5.66602 1.66699 6.99902 5c0 3.33301 -1 6 -3 8z" />
    <glyph glyph-name="L" unicode="L" horiz-adv-x="492" 
d="M477 10v64c0 6.66699 -3.33301 10 -10 10h-293v587c0 6.66699 -3.33301 10 -10 10h-74c-6.66699 0 -10 -3.33301 -10 -10v-661c0 -6.66699 3.33301 -10 10 -10h377c6.66699 -0 10 3.33301 10 10z" />
    <glyph glyph-name="M" unicode="M" horiz-adv-x="824" 
d="M744 10v661c0 6.66699 -3.33301 10 -10 10h-71c-2.66699 0 -6 -3.33301 -10 -10l-241 -393l-241 393c-4 6.66699 -7.33301 10 -10 10h-71c-6.66699 0 -10 -3.33301 -10 -10v-661c0 -6.66699 3.33301 -10 10 -10h71c6.66699 -0 10 3.33301 10 10v488l201 -326
c4 -6.66699 8 -10 12 -10h56c4 0 8 3.33301 12 10l201 326v-488c0 -6.66699 3.33301 -10 10 -10h71c6.66699 -0 10 3.33301 10 10z" />
    <glyph glyph-name="N" unicode="N" horiz-adv-x="746" 
d="M666 10l-0.000976562 661c0 6.66699 -3.33301 10 -10 10h-68c-6.66699 0 -10 -3.33301 -10 -10v-513l-411 518c-3.33301 3.33301 -6.33301 5 -9 5h-68c-6.66699 0 -10 -3.33301 -10 -10v-661c0 -6.66699 3.33301 -10 10 -10h68c6.66699 -0 10 3.33301 10 10v514l412 -520
c2.66699 -2.66699 5.33398 -4 8.00098 -4h68c6.66699 -0 10 3.33301 10 10z" />
    <glyph glyph-name="O" unicode="O" horiz-adv-x="785" 
d="M745 340c0 96 -34.666 178.669 -103.999 248.002c-68.667 68.667 -151.334 103 -248.001 103c-98 0 -181.333 -34.333 -250 -103s-103 -151.334 -103 -248.001s34.333 -179 103 -247s152 -102 250 -102c96 0 178.667 34 248 102c69.333 69.333 104 151.666 104 246.999z
M652.001 340.002c0 -72 -25.332 -133.334 -75.999 -184.001s-111.667 -76 -183 -76c-72 0 -133.333 25.333 -184 76s-76 112 -76 184s25.333 133.333 76 184c51.333 51.333 112.666 77 183.999 77c70 0 130.667 -25.667 182 -77s77 -112.666 77 -183.999z" />
    <glyph glyph-name="P" unicode="P" horiz-adv-x="635" 
d="M600 454c0 64.667 -22.667 118.668 -68 162.001s-100.333 65 -165 65h-277c-6.66699 0 -10 -3.33301 -10 -10v-661c0 -6.66699 3.33301 -10 10 -10h74c6.66699 0 10 3.33301 10 10v217h193c65.333 0 120.333 21.333 165 64c45.333 43.333 68 97.666 68 162.999z
M504 454.001c0 -44.667 -15.667 -80 -47 -106c-28.667 -24.667 -65.334 -37 -110.001 -37h-173v286h173c44.667 0 81.334 -12.333 110.001 -37c31.333 -26 47 -61.333 47 -106z" />
    <glyph glyph-name="Q" unicode="Q" horiz-adv-x="795" 
d="M755 -62c2.66699 2.66699 3.66699 5.33398 3 8.00098c-1.33301 3.33301 -3 5 -5 5c-90 10.667 -178 26.667 -264 48c-4.66699 2 -4.66699 3.66699 0 5c74 20.667 135.333 62 184 124c48 62 72 132.667 72 212c0 96 -34.667 178.667 -104 248
c-68.667 68.667 -151.334 103 -248.001 103c-98 0 -181.333 -34.333 -250 -103s-103 -151.334 -103 -248.001c0 -82.667 26.667 -156.334 80 -221.001c52.667 -63.333 119.667 -103.666 201 -120.999l-1 -34c0 -6 3.33301 -9.33301 10 -10l41 -7
c12 -2 21.667 -3.66699 29 -5c66.667 -15.333 123.334 -29 170.001 -41s84 -22 112 -30c4 -0.666992 9.33301 2.33301 16 9zM652 340c0 -72 -25.332 -133.334 -75.999 -184.001s-111.667 -76 -183 -76c-72 0 -133.333 25.333 -184 76s-76 112 -76 184s25.333 133.333 76 184
c51.333 51.333 112.666 77 183.999 77c70 0 130.667 -25.667 182 -77s77 -112.666 77 -183.999z" />
    <glyph glyph-name="R" unicode="R" horiz-adv-x="645" 
d="M610 470c0 58 -21.001 107.667 -63.001 149c-41.333 41.333 -91.333 62 -150 62h-307c-6.66699 0 -10 -3.33301 -10 -10v-661c0 -6.66699 3.33301 -10 10 -10h74c6.66699 -0 10 3.33301 10 10v248h138l170 -248c4.66699 -6.66699 10.334 -10 17.001 -10h91
c8.66699 -0 10 4.33301 4 13l-171 247c52.667 6.66699 97 30 133 70s54 86.667 54 140zM513.999 470c0 -37.333 -14.333 -68 -43 -92c-28 -24 -59.333 -36 -94 -36h-203v255h203c34.667 0 66 -12 94 -36c28.667 -24 43 -54.667 43 -92v1z" />
    <glyph glyph-name="S" unicode="S" horiz-adv-x="534" 
d="M504 191c0 60.667 -26.6709 109.002 -80.0039 145.002c-11.333 7.33301 -27.666 15.666 -48.999 24.999s-47.666 19.333 -78.999 30c-36 12 -63.5 21.5 -82.5 28.5s-30.167 11.167 -33.5 12.5c-36 18.667 -54 44 -54 76c0 61.333 49.333 92 148 92
c48.667 0 95.667 -15.667 141 -47c5.33301 -4 10 -3 14 3l41 62c4 5.33301 3 10 -3 14c-59.333 38 -123.666 57 -192.999 57c-78.667 0 -139 -16 -181 -48s-63 -76.333 -63 -133c0 -54.667 21 -98.334 63 -131.001c24.667 -19.333 68 -40.333 130 -63l63 -21.5l63 -21.5
c39.333 -18 59 -44.667 59 -80c0 -74 -48.333 -111 -145 -111c-59.333 0 -114.333 20 -165 60c-6 4 -10.667 3.33301 -14 -2l-47 -59c-4 -5.33301 -3.33301 -10 2 -14c65.333 -49.333 140 -74 224 -74c36.667 0 69.834 4.66699 99.501 14s55 22.666 76 39.999
s37.167 38.333 48.5 63s17 52.334 17 83.001z" />
    <glyph glyph-name="T" unicode="T" 
d="M507 607v64c0 6.66699 -3.33301 10 -10 10h-494c-6.66699 0 -10 -3.33301 -10 -10v-64c0 -6.66699 3.33301 -10 10 -10h200v-587c0 -6.66699 3.33301 -10 10 -10h74c6.66699 -0 10 3.33301 10 10v587h200c6.66699 0 10 3.33301 10 10z" />
    <glyph glyph-name="U" unicode="U" horiz-adv-x="699" 
d="M629 270l-0.000976562 401c0 6.66699 -3.33301 10 -10 10h-74c-6.66699 0 -10 -3.33301 -10 -10v-391c0 -64.667 -16.167 -113.834 -48.5 -147.501s-77.833 -50.5 -136.5 -50.5s-104.334 16.833 -137.001 50.5s-49 82.834 -49 147.501v391c0 6.66699 -3.33301 10 -10 10
h-74c-6.66699 0 -10 -3.33301 -10 -10v-401c0 -43.333 6.33301 -82.166 19 -116.499s31 -63.5 55 -87.5s53.333 -42.5 88 -55.5s74 -19.5 118 -19.5s83.333 6.5 118 19.5s63.834 31.5 87.501 55.5s41.834 53.167 54.501 87.5s19 73.166 19 116.499z" />
    <glyph glyph-name="V" unicode="V" horiz-adv-x="614" 
d="M614 671c2.66699 6.66699 -0.667969 10 -10.001 10h-83c-4 0 -7.33301 -3.33301 -10 -10l-204 -548l-204 548c-2.66699 6.66699 -6 10 -10 10h-83c-9.33301 0 -12.666 -3.33301 -9.99902 -10l257 -664c2.66699 -6.66699 6 -10 10 -10h80c4 0 7.33301 3.33301 10 10z" />
    <glyph glyph-name="W" unicode="W" horiz-adv-x="957" 
d="M957 663c1.33301 4.66699 0.669922 8.83398 -1.99707 12.501s-6.33398 5.5 -11.001 5.5h-72c-6 0 -10.667 -4.66699 -14 -14l-168 -519l-168 519c-4 9.33301 -9 14 -15 14h-57c-6 0 -11 -4.66699 -15 -14l-168 -519l-168 519c-3.33301 9.33301 -8 14 -14 14h-72
c-4.66699 0 -8.33398 -1.83301 -11.001 -5.5s-3.33398 -7.83398 -2.00098 -12.501l219 -652c3.33301 -9.33301 8.33301 -14 15 -14h67c6 0 10.667 4.66699 14 14l163 485l164 -485c3.33301 -9.33301 8 -14 14 -14h67c6.66699 0 11.667 4.66699 15 14z" />
    <glyph glyph-name="X" unicode="X" horiz-adv-x="664" 
d="M664 13l-276.002 324l276 331c2 2 3 4.66699 3 8c-1.33301 3.33301 -3.66602 5 -6.99902 5h-100c-6.66699 0 -12.334 -3.33301 -17.001 -10l-212 -264l-210 264c-4.66699 6.66699 -10.334 10 -17.001 10h-100c-3.33301 0 -5.66602 -1.66699 -6.99902 -5
c0 -3.33301 1 -6 3 -8l275 -330l-275 -325c-2 -3.33301 -2.66699 -6 -2 -8c0 -3.33301 2 -5 6 -5h100c6.66699 -0 12.334 3.33301 17.001 10l211 261l211 -261c4.66699 -6.66699 10.334 -10 17.001 -10h100c4 0 6 1.66699 6 5c0.666992 2 0 4.66699 -2 8z" />
    <glyph glyph-name="Y" unicode="Y" horiz-adv-x="595" 
d="M602 668c2 2 3 4.66699 3 8c-1.33301 3.33301 -3.66602 5 -6.99902 5h-96c-6.66699 0 -12.334 -3.33301 -17.001 -10l-188 -265l-186 265c-4.66699 6.66699 -10.334 10 -17.001 10h-96c-3.33301 0 -5.66602 -1.66699 -6.99902 -5c0 -3.33301 1 -6 3 -8l257 -346v-312
c0 -6.66699 3.33301 -10 10 -10h74c6.66699 -0 10 3.33301 10 10v312z" />
    <glyph glyph-name="Z" unicode="Z" horiz-adv-x="586" 
d="M566 10l-0.000976562 63.999c0 6.66699 -3.33301 10 -10 10h-382l379 583c2 2.66699 2 5.66699 0 9c-1.33301 3.33301 -3.66602 5 -6.99902 5h-507c-6.66699 0 -10 -3.33301 -10 -10v-64c0 -6.66699 3.33301 -10 10 -10h357l-376 -582
c-2 -3.33301 -2 -6.66602 0 -9.99902s4.66699 -5 8 -5h528c6.66699 -0 10 3.33301 10 10z" />
    <glyph glyph-name="bracketleft" unicode="[" horiz-adv-x="333" 
d="M315 -211v56c0 6.66699 -3.33301 10 -10 10h-127v751h127c6.66699 0 10 3.33301 10 10v56c0 6.66699 -3.33301 10 -10 10h-209c-6.66699 0 -10 -3.33301 -10 -10v-883c0 -6.66699 3.33301 -10 10 -10h209c6.66699 0 10 3.33301 10 10z" />
    <glyph glyph-name="backslash" unicode="\" horiz-adv-x="281" 
d="M295 1l-190 679c-2 6.66699 -5.33301 10 -10 10h-73c-8.66699 0 -12 -3.33301 -10 -10l190 -679c2 -6.66699 5.33301 -10 10 -10h73c8.66699 0 12 3.33301 10 10z" />
    <glyph glyph-name="bracketright" unicode="]" horiz-adv-x="333" 
d="M244 -211v883c0 6.66699 -3.33301 10 -10 10h-209c-6.66699 0 -10 -3.33301 -10 -10v-56c0 -6.66699 3.33301 -10 10 -10h127v-751h-127c-6.66699 0 -10 -3.33301 -10 -10v-56c0 -6.66699 3.33301 -10 10 -10h209c6.66699 0 10 3.33301 10 10z" />
    <glyph glyph-name="asciicircum" unicode="^" 
 />
    <glyph glyph-name="underscore" unicode="_" 
d="M509 -129v44c0 6.66699 -3.33301 10 -10 10h-498c-6.66699 0 -10 -3.33301 -10 -10v-44c0 -6.66699 3.33301 -10 10 -10h498c6.66699 0 10 3.33301 10 10z" />
    <glyph glyph-name="grave" unicode="`" horiz-adv-x="333" 
d="M254 544l-58.999 127c-2.66699 6.66699 -6.33398 10 -11.001 10h-79c-8.66699 0 -10.667 -3.33301 -6 -10l99 -131c2.66699 -4 6.33398 -6 11.001 -6h38c7.33301 0 9.66602 3.33301 6.99902 10z" />
    <glyph glyph-name="a" unicode="a" horiz-adv-x="477" 
d="M407 10l-0.000976562 277c0 64.667 -22 111.667 -66 141c-30 20 -66.333 30 -109 30c-55.333 0 -108.666 -17.667 -159.999 -53c-5.33301 -5.33301 -6.33301 -10 -3 -14l36 -51c2.66699 -4.66699 7 -5.33398 13 -2.00098c38.667 26.667 76.667 40 114 40
c28.667 0 50.5 -8.66699 65.5 -26s21.5 -38.333 19.5 -63c-64.667 -6.66699 -113 -14.667 -145 -24c-81.333 -23.333 -122 -67.666 -122 -132.999c0 -41.333 15 -75.333 45 -102c30.667 -26 67 -39 109 -39c46 0 83.667 11 113 33v-14c0 -6.66699 3.66699 -10 11 -10h69
c6.66699 -0 10 3.33301 10 10zM316.999 109c-28 -28 -65.333 -40.334 -112 -37.001c-16.667 1.33301 -31.334 6.5 -44.001 15.5s-20 20.833 -22 35.5c-3.33301 26 11.334 46 44.001 60c24 10.667 68.667 19.334 134 26.001v-100z" />
    <glyph glyph-name="b" unicode="b" horiz-adv-x="522" 
d="M482 224c0 82 -27 144.666 -81 187.999c-38.667 30.667 -80.667 46 -126 46c-42 0 -77.333 -10.667 -106 -32v245c0 6.66699 -3.33301 10 -10 10h-69c-6.66699 0 -10 -3.33301 -10 -10v-659c0 -6 3.33301 -9.33301 10 -10c22 -3.33301 44.5 -6 67.5 -8s46.167 -3 69.5 -3
c75.333 0 136 20 182 60c48.667 40.667 73 98.334 73 173.001zM390 223.999c0 -46.667 -15.6699 -83.667 -47.0029 -111c-28.667 -23.333 -64 -35 -106 -35c-11.333 0 -22.666 0.5 -33.999 1.5s-22.666 2.16699 -33.999 3.5v240c32.667 30.667 68 46 106 46
c26.667 0 50.334 -9.33301 71.001 -28c29.333 -26 44 -65 44 -117z" />
    <glyph glyph-name="c" unicode="c" horiz-adv-x="440" 
d="M421 399c4 4 3.00195 8.66797 -2.99805 14.001c-47.333 30 -94 45 -140 45c-64.667 0 -120.334 -23 -167.001 -69c-47.333 -46 -71 -100.667 -71 -164c0 -66.667 23 -122.334 69 -167.001c45.333 -44.667 101.666 -67 168.999 -67c58 0 104.333 13.333 139 40
c6 3.33301 7 8 3 14l-37 54c-3.33301 5.33301 -8 6 -14 2c-25.333 -16 -55.333 -24 -90 -24c-44 0 -79.333 14.333 -106 43c-27.333 29.333 -41 64.333 -41 105c0 38.667 14 72.667 42 102c29.333 29.333 64.333 44 105 44c29.333 0 59.333 -10.333 90 -31
c4.66699 -2.66699 9 -1.66699 13 3z" />
    <glyph glyph-name="d" unicode="d" horiz-adv-x="522" 
d="M442 10l-0.000976562 661.001c0 6.66699 -3.33301 10 -10 10h-69c-6.66699 0 -10 -3.33301 -10 -10v-232c-31.333 12.667 -62.333 19 -93 19c-47.333 0 -91.333 -15.333 -132 -46c-58.667 -42.667 -88 -105.334 -88 -188.001c0 -72.667 24.667 -129 74 -169
c44.667 -36.667 105.334 -55 182.001 -55h136c6.66699 -0 10 3.33301 10 10zM352.999 87.001h-56c-110 0 -165 45.667 -165 137c0 52 17 91 51 117c23.333 18.667 49 28 77 28c38.667 0 69.667 -9.33301 93 -28v-254z" />
    <glyph glyph-name="e" unicode="e" horiz-adv-x="513" 
d="M473 225c3.33301 67.333 -16.334 123.332 -59.001 167.999c-41.333 43.333 -92.333 65 -153 65c-64 0 -116 -20.667 -156 -62c-43.333 -45.333 -65 -100.666 -65 -165.999c0 -69.333 22 -126.333 66 -171c45.333 -45.333 102 -68 170 -68c63.333 0 119 18 167 54
c5.33301 4 5.33301 8.66699 0 14l-47 48c-4 4 -9 4 -15 0c-29.333 -20.667 -62.333 -31 -99 -31c-41.333 0 -75.666 11.667 -102.999 35c-24 22 -38 49.333 -42 82h325c6.66699 0 10 3.33301 10 10zM378 272.999l-241 0.000976562c6 32 20.333 58 43 78s49 30 79 30
c32 0 59.333 -10.333 82 -31c24 -20.667 36.333 -46.334 37 -77.001z" />
    <glyph glyph-name="f" unicode="f" horiz-adv-x="354" 
d="M371 627c4.66699 6 4.33203 10.667 -1.00098 14c-37.333 28.667 -81.666 43 -132.999 43c-90 0 -135 -50.333 -135 -151v-84h-54c-6.66699 0 -10 -3.33301 -10 -10v-60c0 -6.66699 3.33301 -10 10 -10h54v-359c0 -6.66699 3.33301 -10 10 -10h69
c6.66699 -0 10 3.33301 10 10v359h116c6.66699 0 10 3.33301 10 10v60c0 6.66699 -3.33301 10 -10 10h-116v78c0 53.333 16.667 80 50 80c25.333 0 51.333 -10.333 78 -31c5.33301 -5.33301 10 -5.33301 14 0z" />
    <glyph glyph-name="g" unicode="g" horiz-adv-x="534" 
d="M454 -8l-0.00292969 447.001c0 6.66699 -3.33301 10 -10 10h-69c-6.66699 0 -10 -3.33301 -10 -10v-20c-34 26 -76 39 -126 39c-66 0 -117 -25.667 -153 -77c-30.667 -42.667 -46 -94.667 -46 -156c0 -64.667 16 -118.334 48 -161.001
c36.667 -48.667 87.334 -73 152.001 -73c52 0 93.667 13 125 39v-52c0 -84 -40.333 -126 -121 -126c-35.333 0 -71.666 18.667 -108.999 56c-2 2 -4.33301 3 -7 3c-3.33301 0 -6 -1 -8 -3l-47 -47c-4 -6 -3.66699 -11 1 -15c13.333 -11.333 25 -20.833 35 -28.5
s18.667 -13.834 26 -18.501c34.667 -19.333 71.334 -29 110.001 -29c66.667 0 118.167 18.833 154.5 56.5s54.5 92.834 54.5 165.501zM364.997 142.001c-16.667 -42.667 -56.334 -64 -119.001 -64c-30.667 0 -55.667 9.66699 -75 29c-26 24.667 -39 64 -39 118
c0 97.333 39 146 117 146c60.667 0 99.334 -21.333 116.001 -64v-165z" />
    <glyph glyph-name="h" unicode="h" horiz-adv-x="528" 
d="M458 10v244c0 58.667 -15 105.667 -45 141c-36 42 -79.333 63 -130 63c-47.333 0 -85.333 -13 -114 -39v252c0 6.66699 -3.33301 10 -10 10h-69c-6.66699 0 -10 -3.33301 -10 -10v-661c0 -6.66699 3.33301 -10 10 -10h69c6.66699 -0 10 3.33301 10 10v224
c0 16.667 0.666992 31 2 43s3.5 22.333 6.5 31s6.83301 16.167 11.5 22.5s10.667 12.5 18 18.5c17.333 14.667 38 22 62 22c34.667 0 62 -12.667 82 -38c12 -15.333 18 -45.333 18 -90v-233c0 -6.66699 3.33301 -10 10 -10h69c6.66699 -0 10 3.33301 10 10z" />
    <glyph glyph-name="i" unicode="i" horiz-adv-x="249" 
d="M178 628c0 14.667 -5.16699 27.167 -15.5 37.5s-22.833 15.5 -37.5 15.5s-27.167 -5.16699 -37.5 -15.5s-15.5 -22.833 -15.5 -37.5s5.16699 -27.167 15.5 -37.5s22.833 -15.5 37.5 -15.5s27.167 5.16699 37.5 15.5s15.5 22.833 15.5 37.5zM169 10v429
c0 6.66699 -3.33301 10 -10 10h-69c-6.66699 0 -10 -3.33301 -10 -10v-429c0 -6.66699 3.33301 -10 10 -10h69c6.66699 -0 10 3.33301 10 10z" />
    <glyph glyph-name="j" unicode="j" horiz-adv-x="249" 
d="M178 628c0 14.667 -5.16699 27.167 -15.5 37.5s-22.833 15.5 -37.5 15.5s-27.167 -5.16699 -37.5 -15.5s-15.5 -22.833 -15.5 -37.5s5.16699 -27.167 15.5 -37.5s22.833 -15.5 37.5 -15.5s27.167 5.16699 37.5 15.5s15.5 22.833 15.5 37.5zM169 -59v498
c0 6.66699 -3.33301 10 -10 10h-69c-6.66699 0 -10 -3.33301 -10 -10v-505c0 -44 -19.333 -75.333 -58 -94c-7.33301 -3.33301 -7.33301 -8 0 -14l52 -51c4 -4 8.66699 -4 14 0c26 14.667 45 32.667 57 54c16 26.667 24 64 24 112z" />
    <glyph glyph-name="k" unicode="k" horiz-adv-x="471" 
d="M466 14l-193.999 241l186 180c2 2 2.33301 5 1 9c-1.33301 3.33301 -4 5 -8 5h-92c-4.66699 0 -9.33398 -2.33301 -14.001 -7l-176 -178v407c0 6.66699 -3.33301 10 -10 10h-69c-6.66699 0 -10 -3.33301 -10 -10v-661c0 -6.66699 3.33301 -10 10 -10h69
c6.66699 -0 10 3.33301 10 10v145l41 39l147 -187c4 -4.66699 8.66699 -7 14 -7h89c4.66699 -0 7.33398 1.33301 8.00098 4c1.33301 4 0.666016 7.33301 -2.00098 10z" />
    <glyph glyph-name="l" unicode="l" horiz-adv-x="249" 
d="M169 10v661c0 6.66699 -3.33301 10 -10 10h-69c-6.66699 0 -10 -3.33301 -10 -10v-661c0 -6.66699 3.33301 -10 10 -10h69c6.66699 -0 10 3.33301 10 10z" />
    <glyph glyph-name="m" unicode="m" horiz-adv-x="803" 
d="M733 10l-0.000976562 263.001c0 59.333 -17.667 106 -53 140c-31.333 30 -71 45 -119 45c-40 0 -75.667 -8.66699 -107 -26c-8 -4.66699 -22.333 -15.334 -43 -32.001c-32 38.667 -71.667 58 -119 58c-50 0 -91 -13 -123 -39v20c0 6.66699 -3.33301 10 -10 10h-69
c-6.66699 0 -10 -3.33301 -10 -10v-429c0 -6.66699 3.33301 -10 10 -10h69c6.66699 -0 10 3.33301 10 10v230c0 36 4 61.667 12 77c18.667 36 49.334 54 92.001 54c59.333 0 89 -36 89 -108v-253c0 -6.66699 3.33301 -10 10 -10h69c6.66699 -0 10 3.33301 10 10v239
c0 81.333 36 122 108 122c56.667 0 85 -35.667 85 -107v-254c0 -6.66699 3.33301 -10 10 -10h69c6.66699 -0 10 3.33301 10 10z" />
    <glyph glyph-name="n" unicode="n" horiz-adv-x="528" 
d="M458 10v244c0 58.667 -15 105.667 -45 141c-36 42 -79.333 63 -130 63c-47.333 0 -85.333 -13 -114 -39v20c0 6.66699 -3.33301 10 -10 10h-69c-6.66699 0 -10 -3.33301 -10 -10v-429c0 -6.66699 3.33301 -10 10 -10h69c6.66699 -0 10 3.33301 10 10v224
c0 16.667 0.666992 31 2 43s3.5 22.333 6.5 31s6.83301 16.167 11.5 22.5s10.667 12.5 18 18.5c17.333 14.667 38 22 62 22c34.667 0 62 -12.667 82 -38c12 -15.333 18 -45.333 18 -90v-233c0 -6.66699 3.33301 -10 10 -10h69c6.66699 -0 10 3.33301 10 10z" />
    <glyph glyph-name="o" unicode="o" horiz-adv-x="552" 
d="M512 224c0 65.333 -23.332 120.333 -69.999 165c-46 46 -101.333 69 -166 69s-120.334 -23 -167.001 -69c-46 -45.333 -69 -100.333 -69 -165c0 -64 23 -119 69 -165c47.333 -45.333 103 -68 167 -68s119.333 22.667 166 68c46.667 46 70 101 70 165zM423.001 224
c0 -42 -14.334 -77.333 -43.001 -106c-29.333 -29.333 -64 -44 -104 -44s-74.667 14.667 -104 44c-28.667 28.667 -43 64 -43 106s14.333 77.333 43 106c28.667 30 63.334 45 104.001 45c40 0 74.667 -15 104 -45c28.667 -28.667 43 -64 43 -106z" />
    <glyph glyph-name="p" unicode="p" horiz-adv-x="522" 
d="M482 225c0 74 -24.332 132 -72.999 174c-46.667 39.333 -107.334 59 -182.001 59c-43.333 0 -89 -4 -137 -12c-6.66699 -0.666992 -10 -4 -10 -10v-658c0 -6.66699 3.33301 -10 10 -10h69c6.66699 0 10 3.33301 10 10v229c27.333 -10.667 58.666 -16 93.999 -16
c50.667 0 97.334 17.667 140.001 53c52.667 42.667 79 103 79 181zM391.001 223c0 -47.333 -15.998 -85.001 -47.998 -113.001c-24.667 -22.667 -51.334 -34 -80.001 -34c-37.333 0 -68.666 7.33301 -93.999 22v268c11.333 1.33301 22.666 2.5 33.999 3.5
s22.666 1.5 33.999 1.5c42.667 0 78 -12 106 -36c32 -27.333 48 -64.666 48 -111.999z" />
    <glyph glyph-name="q" unicode="q" horiz-adv-x="522" 
d="M442 -222l0.000976562 658.001c0 6 -3.33301 9.33301 -10 10c-48 8 -93.667 12 -137 12c-74.667 0 -135.334 -19.667 -182.001 -59c-48.667 -42 -73 -100 -73 -174c0 -82.667 27 -145.334 81 -188.001c38.667 -30.667 80.667 -46 126 -46c42 0 77.333 10.667 106 32v-245
c0 -6.66699 3.33301 -10 10 -10h69c6.66699 0 10 3.33301 10 10zM353.001 206.001c0 -27.333 -3.66309 -50 -10.9961 -68c-16.667 -38.667 -48.334 -58 -95.001 -58c-26.667 0 -50.334 9.33301 -71.001 28c-29.333 26 -44 65 -44 117c0 46.667 15.667 83.667 47 111
c28.667 23.333 64 35 106 35c11.333 0 22.666 -0.5 33.999 -1.5s22.666 -2.16699 33.999 -3.5v-160z" />
    <glyph glyph-name="r" unicode="r" horiz-adv-x="380" 
d="M386 409c-35.333 34 -72.999 50.3311 -112.999 48.998c-39.333 -0.666992 -73.333 -18 -102 -52h-2v33c0 6.66699 -3.33301 10 -10 10h-69c-6.66699 0 -10 -3.33301 -10 -10v-429c0 -6.66699 3.33301 -10 10 -10h69c6.66699 0 10 3.33301 10 10v203
c0 54.667 11.667 96.334 35 125.001c19.333 23.333 42.666 34.333 69.999 33c10.667 -1.33301 21.667 -5.33301 33 -12c1.33301 -0.666992 3.33301 -2 6 -4s6.66699 -5.33301 12 -10c4 -3.33301 8.33301 -2.66602 13 2.00098l48 48c5.33301 5.33301 5.33301 10 0 14z" />
    <glyph glyph-name="s" unicode="s" horiz-adv-x="383" 
d="M348 125c0 38.667 -16.332 70.333 -48.999 95c-5.33301 4 -16.5 10.333 -33.5 19l-67.5 33c-28.667 13.333 -46.334 22.333 -53.001 27c-16 10.667 -24 22.334 -24 35.001c0 30.667 23.667 46 71 46c30 0 57.333 -7.33301 82 -22c5.33301 -4 10 -3.66699 14 1l44 46
c4.66699 6 4.33398 10.667 -0.999023 14c-39.333 26 -85.333 39 -138 39c-52 0 -92 -10.667 -120 -32s-42 -51 -42 -89c0 -36.667 13 -66.334 39 -89.001c18 -15.333 46.667 -32.333 86 -51l51.5 -24c11.667 -5.33301 18.167 -8.33301 19.5 -9c21.333 -13.333 32 -28 32 -44
c0 -34 -26 -51 -78 -51c-34 0 -63.667 11.667 -89 35c-4.66699 4.66699 -9.33398 4.66699 -14.001 0l-46 -45c-5.33301 -5.33301 -5 -10 1 -14c44.667 -36 96 -54 154 -54c48.667 0 87.667 11.833 117 35.5s44 56.5 44 98.5z" />
    <glyph glyph-name="t" unicode="t" horiz-adv-x="365" 
d="M356 60l-43 42c-5.33301 4 -10 4 -14 0c-23.333 -22.667 -46.666 -34 -69.999 -34c-38.667 0 -58 26.667 -58 80v221h137c6.66699 0 10 3.33301 10 10v60c0 6.66699 -3.33301 10 -10 10h-137v87c0 6.66699 -3.33301 10 -10 10h-69c-6.66699 0 -10 -3.33301 -10 -10v-87
h-54c-6.66699 0 -10 -3.33301 -10 -10v-60c0 -6.66699 3.33301 -10 10 -10h54v-227c0 -100.667 48.333 -151 145 -151c46 0 88.667 18 128 54c5.33301 5.33301 5.66602 10.333 0.999023 15z" />
    <glyph glyph-name="u" unicode="u" horiz-adv-x="519" 
d="M449 183l0.000976562 256c0 6.66699 -3.33301 10 -10 10h-69c-6.66699 0 -10 -3.33301 -10 -10v-235c0 -38 -3 -64.333 -9 -79c-13.333 -34 -44 -51 -92 -51c-48.667 0 -79.334 17 -92.001 51c-5.33301 14.667 -8 41 -8 79v235c0 6.66699 -3.33301 10 -10 10h-69
c-6.66699 0 -10 -3.33301 -10 -10v-256c0 -50 10 -90.333 30 -121c30 -47.333 83.333 -71 160 -71c76 0 129 23.667 159 71c20 30.667 30 71 30 121z" />
    <glyph glyph-name="v" unicode="v" horiz-adv-x="424" 
d="M418 439c2.66699 6.66699 0 10 -8 10h-73c-4 0 -7.33301 -3.33301 -10 -10l-114 -312l-114 312c-2.66699 6.66699 -6 10 -10 10h-75c-8 0 -10.667 -3.33301 -8 -10l167 -432c2.66699 -6.66699 6 -10 10 -10h57c4 0 7.33301 3.33301 10 10z" />
    <glyph glyph-name="w" unicode="w" horiz-adv-x="677" 
d="M672 439c2 6.66699 -0.333008 10 -7 10h-73c-4 0 -7 -3.33301 -9 -10l-99 -312l-99 312c-2 6.66699 -5 10 -9 10h-70c-4 0 -7 -3.33301 -9 -10l-99 -312l-99 312c-2 6.66699 -5 10 -9 10h-78c-6.66699 0 -9 -3.33301 -7 -10l145 -432c2 -6.66699 5 -10 9 -10h72
c4 0 7 3.33301 9 10l99 302l97 -302c2 -6.66699 5 -10 9 -10h72c4 0 7 3.33301 9 10z" />
    <glyph glyph-name="x" unicode="x" horiz-adv-x="467" 
d="M466 14l-177.999 214l167 207c5.33301 9.33301 3 14 -7 14h-88c-6.66699 0 -11.334 -2.33301 -14.001 -7l-111 -151l-114 151c-2.66699 4.66699 -7.33398 7 -14.001 7h-89c-4 0 -6.66699 -1.66699 -8 -5c-0.666992 -2.66699 0 -5.66699 2 -9l167 -207l-179 -214
c-2.66699 -2.66699 -3.33398 -6 -2.00098 -10c0.666992 -2.66699 3.66699 -4 9 -4h88c6.66699 -0 11.334 2.33301 14.001 7l122 161l126 -161c2.66699 -4.66699 7.33398 -7 14.001 -7h89c4.66699 -0 7.33398 1.33301 8.00098 4c1.33301 4 0.666016 7.33301 -2.00098 10z" />
    <glyph glyph-name="y" unicode="y" horiz-adv-x="435" 
d="M434 435c3.33301 9.33301 1.33203 13.998 -6.00098 13.998h-79c-8 0 -12.333 -2.33301 -13 -7l-71 -226l-33 -106l-79.5 210.5l-45.5 121.5c-2 4.66699 -6.33301 7 -13 7h-82c-8.66699 0 -11 -4.66699 -7 -14l183 -442c-12.667 -43.333 -33 -77.333 -61 -102
c-25.333 -21.333 -51.666 -32 -78.999 -32c-6.66699 0 -10 -3.33301 -10 -10v-68c0 -7.33301 3.33301 -10.666 10 -9.99902c57.333 2.66699 104.333 21.334 141 56.001c34 32.667 62.667 83 86 151z" />
    <glyph glyph-name="z" unicode="z" horiz-adv-x="408" 
d="M393 10v60.001c0 6.66699 -3.33301 10 -10 10h-231l166.5 256.5l64.5 99.5c2 2.66699 2 5.66699 0 9c-0.666992 2.66699 -3.33398 4 -8.00098 4h-356c-6.66699 0 -10 -3.33301 -10 -10v-60c0 -6.66699 3.33301 -10 10 -10h217
c-153.333 -238.667 -230 -357.334 -230 -356.001c-2 -3.33301 -2 -6.33301 0 -9c0.666992 -2.66699 3.33398 -4 8.00098 -4h369c6.66699 -0 10 3.33301 10 10z" />
    <glyph glyph-name="braceleft" unicode="{" horiz-adv-x="333" 
d="M305 -200v45.998c0 6.66699 -3.33301 10 -10 10c-30 0 -51.5 8.33301 -64.5 25s-19.5 45.334 -19.5 86.001v72c0 66 -7.66699 115.333 -23 148c-15.333 32 -41.666 56 -78.999 72c37.333 16 63.666 40 78.999 72c15.333 32.667 23 82 23 148v72
c0 40.667 6.5 69.334 19.5 86.001s34.5 25 64.5 25c6.66699 0 10 3.33301 10 10v46c0 6.66699 -3.33301 10 -10 10c-110.667 0 -166 -59.333 -166 -178v-88c0 -56 -5.66699 -96 -17 -120c-14 -28.667 -40 -43 -78 -43c-6.66699 0 -10 -3.33301 -10 -10v-60
c0 -6.66699 3.33301 -10 10 -10c38 0 64 -14.333 78 -43c11.333 -24 17 -64 17 -120v-88c0 -118.667 55.333 -178 166 -178c6.66699 0 10 3.33301 10 10z" />
    <glyph glyph-name="bar" unicode="|" horiz-adv-x="260" 
d="M169 -218v889c0 6.66699 -3.33301 10 -10 10h-56c-6.66699 0 -10 -3.33301 -10 -10v-889c0 -6.66699 3.33301 -10 10 -10h56c6.66699 0 10 3.33301 10 10z" />
    <glyph glyph-name="braceright" unicode="}" horiz-adv-x="333" 
d="M309 229v60c0 6.66699 -3.33301 10 -10 10c-38 0 -64 14.333 -78 43c-11.333 24 -17 64 -17 120v88c0 118.667 -55.333 178 -166 178c-6.66699 0 -10 -3.33301 -10 -10v-46c0 -6.66699 3.33301 -10 10 -10c30 0 51.5 -8.33301 64.5 -25s19.5 -45.334 19.5 -86.001v-72
c0 -67.333 7.33301 -116.666 22 -147.999c14.667 -32 41.334 -56 80.001 -72c-38.667 -16 -65.334 -40 -80.001 -72c-14.667 -31.333 -22 -80.666 -22 -147.999v-72c0 -40.667 -6.5 -69.334 -19.5 -86.001s-34.5 -25 -64.5 -25c-6.66699 0 -10 -3.33301 -10 -10v-46
c0 -6.66699 3.33301 -10 10 -10c110.667 0 166 59.333 166 178v88c0 56 5.66699 96 17 120c14 28.667 40 43 78 43c6.66699 0 10 3.33301 10 10z" />
    <glyph glyph-name="asciitilde" unicode="~" 
 />
    <glyph glyph-name="Euro Symbol" horiz-adv-x="668" 
d="M628 76l-40.002 57.9951c-4 5.33301 -8.66699 6.33301 -14 3l-39 -23c-10 -6 -16.667 -9.66699 -20 -11c-31.333 -14 -66 -21 -104 -21c-25.333 0 -49.666 3.66699 -72.999 11s-45.166 17.5 -65.499 30.5s-38.5 28.833 -54.5 47.5s-29 39.334 -39 62.001h239
c4 0 7.33301 3.33301 10 10l30 55c2.66699 6.66699 0.333984 10 -6.99902 10h-293c-0.666992 7.33301 -1.16699 13.833 -1.5 19.5s-0.5 10.167 -0.5 13.5v15c0 4.66699 0.333008 8.33398 1 11.001h334c4 0 7.33301 3.33301 10 10l30 55
c2.66699 6.66699 0.333984 10 -6.99902 10h-346c10 22.667 23.167 43.667 39.5 63s34.5 35.833 54.5 49.5s41.833 24.334 65.5 32.001s48.167 11.5 73.5 11.5c54 0 108.333 -18.667 163 -56c5.33301 -4 10 -3 14 3l39 60c5.33301 5.33301 4.66602 10 -2.00098 14
c-71.333 47.333 -142.666 71 -213.999 71c-76.667 0 -146.334 -23.333 -209.001 -70c-62 -47.333 -104 -106.666 -126 -177.999h-58c-6.66699 0 -10 -3.33301 -10 -10v-55c0 -6.66699 3.33301 -10 10 -10h43c-0.666992 -2.66699 -1 -6.33398 -1 -11.001v-15v-7
c0 -2.66699 0.333008 -5.66699 1 -9v-17h-43c-6.66699 0 -10 -3.33301 -10 -10v-55c0 -6.66699 3.33301 -10 10 -10h59c23.333 -71.333 65.666 -129.666 126.999 -174.999s130.333 -68 207 -68c82.667 0 154 24 214 72c4.66699 4.66699 5.66699 9.33398 3 14.001z" />
    <glyph glyph-name="Euro Symbol" unicode="&#x20ac;" horiz-adv-x="668" 
d="M628 76l-40.002 57.9951c-4 5.33301 -8.66699 6.33301 -14 3l-39 -23c-10 -6 -16.667 -9.66699 -20 -11c-31.333 -14 -66 -21 -104 -21c-25.333 0 -49.666 3.66699 -72.999 11s-45.166 17.5 -65.499 30.5s-38.5 28.833 -54.5 47.5s-29 39.334 -39 62.001h239
c4 0 7.33301 3.33301 10 10l30 55c2.66699 6.66699 0.333984 10 -6.99902 10h-293c-0.666992 7.33301 -1.16699 13.833 -1.5 19.5s-0.5 10.167 -0.5 13.5v15c0 4.66699 0.333008 8.33398 1 11.001h334c4 0 7.33301 3.33301 10 10l30 55
c2.66699 6.66699 0.333984 10 -6.99902 10h-346c10 22.667 23.167 43.667 39.5 63s34.5 35.833 54.5 49.5s41.833 24.334 65.5 32.001s48.167 11.5 73.5 11.5c54 0 108.333 -18.667 163 -56c5.33301 -4 10 -3 14 3l39 60c5.33301 5.33301 4.66602 10 -2.00098 14
c-71.333 47.333 -142.666 71 -213.999 71c-76.667 0 -146.334 -23.333 -209.001 -70c-62 -47.333 -104 -106.666 -126 -177.999h-58c-6.66699 0 -10 -3.33301 -10 -10v-55c0 -6.66699 3.33301 -10 10 -10h43c-0.666992 -2.66699 -1 -6.33398 -1 -11.001v-15v-7
c0 -2.66699 0.333008 -5.66699 1 -9v-17h-43c-6.66699 0 -10 -3.33301 -10 -10v-55c0 -6.66699 3.33301 -10 10 -10h59c23.333 -71.333 65.666 -129.666 126.999 -174.999s130.333 -68 207 -68c82.667 0 154 24 214 72c4.66699 4.66699 5.66699 9.33398 3 14.001z" />
    <glyph glyph-name="nonbreakingspace" unicode="&#xa0;" horiz-adv-x="278" 
 />
    <glyph glyph-name="exclamdown" unicode="&#xa1;" horiz-adv-x="271" 
d="M196 398c0 16.667 -5.83301 30.834 -17.5 42.501s-25.834 17.5 -42.501 17.5s-30.834 -5.83301 -42.501 -17.5s-17.5 -25.834 -17.5 -42.501s5.83301 -30.834 17.5 -42.501s25.834 -17.5 42.501 -17.5s30.834 5.83301 42.501 17.5s17.5 25.834 17.5 42.501zM193 -93
c0 30 -2 65.667 -6 107l-25 254c-0.666992 6.66699 -4 10 -10 10h-30c-6 0 -9.33301 -3.33301 -10 -10l-25 -254c-4 -41.333 -6 -77 -6 -107c0 -98.667 18.667 -148 56 -148s56 49.333 56 148z" />
    <glyph glyph-name="cent" unicode="&#xa2;" horiz-adv-x="481" 
d="M431 399c4 4 2.99902 8.66797 -3.00098 14.001c-47.333 28.667 -92.333 43.667 -135 45v26c0 6.66699 -3.33301 10 -10 10h-26c-6.66699 0 -10 -3.33301 -10 -10v-30c-55.333 -9.33301 -102 -36 -140 -80c-38 -43.333 -57 -93 -57 -149
c0 -66.667 23 -122.334 69 -167.001c34.667 -34.667 77.334 -56 128.001 -64v-23c0 -6.66699 3.33301 -10 10 -10h26c6.66699 0 10 3.33301 10 10v20c56 1.33301 100.667 14.666 134 39.999c6 3.33301 7 8 3 14l-37 54c-3.33301 5.33301 -8 6 -14 2
c-22 -14.667 -50.667 -22.667 -86 -24v294c20.667 -1.33301 39 -5.66602 55 -12.999c5.33301 -3.33301 10.5 -6.33301 15.5 -9s10.167 -5.66699 15.5 -9c4.66699 -2.66699 9 -1.66699 13 3zM246.999 83.001c-24.667 6.66699 -45.999 19.001 -63.999 37.001
c-27.333 29.333 -41 64.333 -41 105c0 16 2.66699 31.333 8 46s12.666 28.167 21.999 40.5s20.333 23.166 33 32.499s26.667 16.333 42 21v-282z" />
    <glyph glyph-name="sterling" unicode="&#xa3;" horiz-adv-x="535" 
d="M524 621c4 7.33301 3.33301 11.999 -2 13.999c-14.667 9.33301 -27.667 17 -39 23s-21 10.667 -29 14c-32 12 -69.333 18 -112 18c-85.333 0 -143.666 -33.667 -174.999 -101c-20 -43.333 -30 -110 -30 -200l-69 -6c-6.66699 -0.666992 -10 -4 -10 -10v-46
c0 -6.66699 3.33301 -10 10 -10h69v-232h-69c-6.66699 0 -10 -3.33301 -10 -10v-65c0 -6.66699 3.33301 -10 10 -10h420c6.66699 0 10 3.33301 10 10v65c0 6.66699 -3.33301 10 -10 10h-255v232h161c6.66699 0 10 3.33301 10 10v55c0 6.66699 -3.33301 10 -10 10h-161
c0 71.333 4.66699 120.333 14 147c15.333 41.333 47 62 95 62c45.333 0 85.666 -13.667 120.999 -41c5.33301 -3.33301 10 -2.66602 14 2.00098z" />
    <glyph glyph-name="currency" unicode="&#xa4;" horiz-adv-x="668" 
d="M628 76l-40.002 57.9951c-4 5.33301 -8.66699 6.33301 -14 3l-39 -23c-10 -6 -16.667 -9.66699 -20 -11c-31.333 -14 -66 -21 -104 -21c-25.333 0 -49.666 3.66699 -72.999 11s-45.166 17.5 -65.499 30.5s-38.5 28.833 -54.5 47.5s-29 39.334 -39 62.001h239
c4 0 7.33301 3.33301 10 10l30 55c2.66699 6.66699 0.333984 10 -6.99902 10h-293c-0.666992 7.33301 -1.16699 13.833 -1.5 19.5s-0.5 10.167 -0.5 13.5v15c0 4.66699 0.333008 8.33398 1 11.001h334c4 0 7.33301 3.33301 10 10l30 55
c2.66699 6.66699 0.333984 10 -6.99902 10h-346c10 22.667 23.167 43.667 39.5 63s34.5 35.833 54.5 49.5s41.833 24.334 65.5 32.001s48.167 11.5 73.5 11.5c54 0 108.333 -18.667 163 -56c5.33301 -4 10 -3 14 3l39 60c5.33301 5.33301 4.66602 10 -2.00098 14
c-71.333 47.333 -142.666 71 -213.999 71c-76.667 0 -146.334 -23.333 -209.001 -70c-62 -47.333 -104 -106.666 -126 -177.999h-58c-6.66699 0 -10 -3.33301 -10 -10v-55c0 -6.66699 3.33301 -10 10 -10h43c-0.666992 -2.66699 -1 -6.33398 -1 -11.001v-15v-7
c0 -2.66699 0.333008 -5.66699 1 -9v-17h-43c-6.66699 0 -10 -3.33301 -10 -10v-55c0 -6.66699 3.33301 -10 10 -10h59c23.333 -71.333 65.666 -129.666 126.999 -174.999s130.333 -68 207 -68c82.667 0 154 24 214 72c4.66699 4.66699 5.66699 9.33398 3 14.001z" />
    <glyph glyph-name="yen" unicode="&#xa5;" horiz-adv-x="595" 
d="M602 668c2 2 3 4.66699 3 8c-1.33301 3.33301 -3.66602 5 -6.99902 5h-96c-6.66699 0 -12.334 -3.33301 -17.001 -10l-188 -265l-186 265c-4.66699 6.66699 -10.334 10 -17.001 10h-96c-3.33301 0 -5.66602 -1.66699 -6.99902 -5c0 -3.33301 1 -6 3 -8l222 -299h-153
c-6.66699 0 -10 -3.33301 -10 -10v-54c0 -6.66699 3.33301 -10 10 -10h188v-63h-188c-6.66699 0 -10 -3.33301 -10 -10v-54c0 -6.66699 3.33301 -10 10 -10h188v-148c0 -6.66699 3.33301 -10 10 -10h74c6.66699 -0 10 3.33301 10 10v148h188c6.66699 0 10 3.33301 10 10v54
c0 6.66699 -3.33301 10 -10 10h-188v63h188c6.66699 0 10 3.33301 10 10v54c0 6.66699 -3.33301 10 -10 10h-153z" />
    <glyph glyph-name="brokenbar" unicode="&#xa6;" 
 />
    <glyph glyph-name="section" unicode="&#xa7;" horiz-adv-x="406" 
d="M388 197c0 48.667 -21.668 92.666 -65.001 131.999l-61 43l-60 43c-43.333 32 -65 64.667 -65 98c0 34 9.66699 60 29 78c14.667 14 32 21 52 21c36 0 67.667 -13.667 95 -41c5.33301 -3.33301 10 -3 14 1l44 46c5.33301 6 5.33301 10.667 0 14
c-38.667 38.667 -89.667 58 -153 58c-44.667 0 -82.667 -13.667 -114 -41c-36.667 -32.667 -55 -78 -55 -136c0 -37.333 11.667 -71.333 35 -102c-42 -39.333 -63 -88.666 -63 -147.999c0 -48.667 21.667 -92.667 65 -132l61 -43l60 -43c43.333 -32 65 -64.667 65 -98
c0 -34 -9.66699 -60 -29 -78c-15.333 -14 -32.666 -21 -51.999 -21c-36 0 -67.667 13.667 -95 41c-5.33301 3.33301 -10 3 -14 -1l-44 -46c-5.33301 -6 -5.33301 -10.667 0 -14c38.667 -38.667 89.667 -58 153 -58c44.667 0 82.667 13.667 114 41
c36.667 32.667 55 78 55 136c0 37.333 -11.667 71.333 -35 102c42 38.667 63 88 63 148zM299.999 196.999c0 -36.667 -12.667 -66.667 -38 -90l-51.5 36l-51.5 35c-33.333 27.333 -50 55.666 -50 84.999c0 36.667 12.667 66.667 38 90l51.5 -36l51.5 -35
c33.333 -27.333 50 -55.666 50 -84.999z" />
    <glyph glyph-name="dieresis" unicode="&#xa8;" horiz-adv-x="333" 
d="M306 628c0 14.667 -5.16699 27.167 -15.5 37.5s-22.833 15.5 -37.5 15.5s-27.167 -5.16699 -37.5 -15.5s-15.5 -22.833 -15.5 -37.5s5.16699 -27.167 15.5 -37.5s22.833 -15.5 37.5 -15.5s27.167 5.16699 37.5 15.5s15.5 22.833 15.5 37.5zM132 628
c0 14.667 -5.16699 27.167 -15.5 37.5s-22.833 15.5 -37.5 15.5s-27.167 -5.16699 -37.5 -15.5s-15.5 -22.833 -15.5 -37.5s5.16699 -27.167 15.5 -37.5s22.833 -15.5 37.5 -15.5s27.167 5.16699 37.5 15.5s15.5 22.833 15.5 37.5z" />
    <glyph glyph-name="copyright" unicode="&#xa9;" horiz-adv-x="817" 
d="M777 360c0 102 -36 188.667 -108 260c-72 72 -159 108 -261 108s-189 -36 -261 -108c-71.333 -71.333 -107 -158 -107 -260c0 -101.333 35.667 -188.333 107 -261c72 -72 159 -108 261 -108s189 36 261 108s108 159 108 261zM716 360
c0 -84.667 -30 -157.332 -90 -217.999c-60 -60 -132.667 -90 -218 -90c-84.667 0 -157 30 -217 90s-90 132.667 -90 218s30 157.666 90 216.999c60 60 132.333 90 217 90c85.333 0 158 -30 218 -90s90 -132.333 90 -217zM550 510.002
c2 2.66699 1.00195 5.66504 -2.99805 8.99805c-41.333 28 -83 42 -125 42c-56 0 -104.333 -20.333 -145 -61c-40.667 -40 -61 -88 -61 -144c0 -57.333 20 -106 60 -146c41.333 -39.333 90 -59 146 -59c50 0 91.667 14 125 42c4 2.66699 4.66699 6.33398 2 11.001l-23 34
c-2.66699 4 -6.33398 4.66699 -11.001 2c-4.66699 -3.33301 -9.33398 -6.33301 -14.001 -9c-24.667 -15.333 -51 -23 -79 -23c-40 0 -74.333 14.333 -103 43s-43 63.667 -43 105c0 40.667 14.333 75.334 43 104.001c29.333 29.333 63.666 44 102.999 44
c30.667 0 61.667 -10.667 93 -32c4.66699 -2.66699 8.33398 -2 11.001 2z" />
    <glyph glyph-name="ordfeminine" unicode="&#xaa;" horiz-adv-x="260" 
d="M238 422l0.000976562 165.002c0 39.333 -13.333 68 -40 86c-19.333 12 -41.333 18 -66 18c-32.667 0 -64.667 -10.667 -96 -32c-2 -1.33301 -3 -3.33301 -3 -6s7.33301 -14.334 22 -35.001c3.33301 -4.66699 7 -5.33398 11 -2.00098c23.333 15.333 45.333 23 66 23
c16 0 28.333 -4.66699 37 -14s12.667 -21 12 -35c-23.333 -2.66699 -43.333 -5.5 -60 -8.5s-30.334 -6.83301 -41.001 -11.5c-44 -18.667 -63 -48 -57 -88c3.33301 -22 13.833 -39.667 31.5 -53s38.167 -20 61.5 -20c25.333 0 47 6 65 18v-5c0 -4.66699 2.66699 -7 8 -7h42
c4.66699 0 7 2.33301 7 7zM183.001 281.002c0 14.667 -5.16699 27.167 -15.5 37.5s-22.833 15.5 -37.5 15.5s-27.167 -5.16699 -37.5 -15.5s-15.5 -22.833 -15.5 -37.5s5.16699 -27.167 15.5 -37.5s22.833 -15.5 37.5 -15.5s27.167 5.16699 37.5 15.5s15.5 22.833 15.5 37.5
zM181.001 482.002c-15.333 -15.333 -36.667 -22.333 -64 -21c-25.333 1.33301 -38 12 -38 32c0 12.667 8 22.5 24 29.5s42 12.167 78 15.5v-56z" />
    <glyph glyph-name="guillemotleft" unicode="&#xab;" horiz-adv-x="490" 
d="M460 10l-134 214.998l134 215c4 6.66699 3 10 -3 10h-67c-6.66699 0 -12.334 -3.33301 -17.001 -10l-134 -205c-2.66699 -3.33301 -4 -6.66602 -4 -9.99902s1.33301 -6.66602 4 -9.99902l134 -205c4.66699 -6.66699 10.334 -10 17.001 -10h67c6 -0 7 3.33301 3 10z
M258 9.99805l-134 214.998l134 215c4 6.66699 3 10 -3 10h-67c-6.66699 0 -12.334 -3.33301 -17.001 -10l-134 -205c-2.66699 -3.33301 -4 -6.66602 -4 -9.99902s1.33301 -6.66602 4 -9.99902l134 -205c4.66699 -6.66699 10.334 -10 17.001 -10h67c6 0 7 3.33301 3 10z" />
    <glyph glyph-name="logicalnot" unicode="&#xac;" 
 />
    <glyph glyph-name="minus" unicode="&#xad;" 
 />
    <glyph glyph-name="minus" unicode="&#x2212;" 
 />
    <glyph glyph-name="registered" unicode="&#xae;" horiz-adv-x="817" 
d="M777 360c0 102 -36 188.667 -108 260c-72 72 -159 108 -261 108s-189 -36 -261 -108c-71.333 -71.333 -107 -158 -107 -260c0 -101.333 35.667 -188.333 107 -261c72 -72 159 -108 261 -108s189 36 261 108s108 159 108 261zM716 360
c0 -84.667 -30 -157.332 -90 -217.999c-60 -60 -132.667 -90 -218 -90c-84.667 0 -157 30 -217 90s-90 132.667 -90 218s30 157.666 90 216.999c60 60 132.333 90 217 90c85.333 0 158 -30 218 -90s90 -132.333 90 -217zM572 428.002c0 34.667 -12.3311 64 -36.998 88
c-24.667 24.667 -54.334 37 -89.001 37h-178c-5.33301 0 -8 -2.66699 -8 -8v-383c0 -5.33301 2.66699 -8 8 -8h43c5.33301 0 8 2.66699 8 8v141h77l98 -143c2.66699 -4 6.33398 -6 11.001 -6h53c7.33301 0 8.66602 3.33301 3.99902 10l-97 141
c14.667 2 28.667 6.66699 42 14s24.666 16.5 33.999 27.5s16.833 23.5 22.5 37.5s8.5 28.667 8.5 44zM512.002 428.002c0 -10 -2.16797 -19.499 -6.50098 -28.499s-10.166 -16.667 -17.499 -23s-15.5 -11.333 -24.5 -15s-18.5 -5.5 -28.5 -5.5h-116v144h116
c20 0 37.333 -6.33301 52 -19c16.667 -14.667 25 -32.334 25 -53.001z" />
    <glyph glyph-name="macron" unicode="&#xaf;" 
 />
    <glyph glyph-name="macron" unicode="&#x2c9;" 
 />
    <glyph glyph-name="degree" unicode="&#xb0;" horiz-adv-x="396" 
d="M332 593c0 37.333 -13.333 69 -40 95c-26 26.667 -57.667 40 -95 40s-69.333 -13.333 -96 -40c-26 -26 -39 -57.667 -39 -95s13 -69.333 39 -96c26.667 -26 58.667 -39 96 -39s69 13 95 39c26.667 26.667 40 58.667 40 96zM280 593c0 -11.333 -2.16797 -22 -6.50098 -32
s-10.166 -18.833 -17.499 -26.5s-16 -13.667 -26 -18s-21 -6.5 -33 -6.5c-22.667 0 -42 8 -58 24s-24 35.667 -24 59s8 42.833 24 58.5s35.333 23.5 58 23.5c23.333 0 43 -8 59 -24s24 -35.333 24 -58z" />
    <glyph glyph-name="plusminus" unicode="&#xb1;" 
 />
    <glyph glyph-name="twosuperior" unicode="&#xb2;" 
 />
    <glyph glyph-name="threesuperior" unicode="&#xb3;" 
 />
    <glyph glyph-name="acute" unicode="&#xb4;" horiz-adv-x="333" 
d="M270 671c4.66699 6.66699 2.66895 10 -5.99805 10h-79c-4.66699 0 -8.33398 -3.33301 -11.001 -10l-59 -127c-2.66699 -6.66699 -0.333984 -10 6.99902 -10h38c4 0 7.66699 2 11 6z" />
    <glyph glyph-name="mu" unicode="&#xb5;" horiz-adv-x="499" 
d="M439 10l0.00292969 429c0 6.66699 -3.33301 10 -10 10h-69c-6.66699 0 -10 -3.33301 -10 -10v-232c0 -32.667 -3 -56.334 -9 -71.001c-7.33301 -18 -19.833 -32.833 -37.5 -44.5s-35.834 -17.5 -54.501 -17.5c-48.667 0 -79.334 17 -92.001 51
c-5.33301 14.667 -8 38.334 -8 71.001v243c0 6.66699 -3.33301 10 -10 10h-69c-6.66699 0 -10 -3.33301 -10 -10v-601c0 -6.66699 3.33301 -10 10 -10h69c6.66699 0 10 3.33301 10 10v179c27.333 -17.333 59 -26 95 -26c37.333 0 72.666 13 105.999 39v-20
c0 -6.66699 3.33301 -10 10 -10h69c6.66699 -0 10 3.33301 10 10z" />
    <glyph glyph-name="mu" unicode="&#x3bc;" horiz-adv-x="499" 
d="M439 10l0.00292969 429c0 6.66699 -3.33301 10 -10 10h-69c-6.66699 0 -10 -3.33301 -10 -10v-232c0 -32.667 -3 -56.334 -9 -71.001c-7.33301 -18 -19.833 -32.833 -37.5 -44.5s-35.834 -17.5 -54.501 -17.5c-48.667 0 -79.334 17 -92.001 51
c-5.33301 14.667 -8 38.334 -8 71.001v243c0 6.66699 -3.33301 10 -10 10h-69c-6.66699 0 -10 -3.33301 -10 -10v-601c0 -6.66699 3.33301 -10 10 -10h69c6.66699 0 10 3.33301 10 10v179c27.333 -17.333 59 -26 95 -26c37.333 0 72.666 13 105.999 39v-20
c0 -6.66699 3.33301 -10 10 -10h69c6.66699 -0 10 3.33301 10 10z" />
    <glyph glyph-name="paragraph" unicode="&#xb6;" horiz-adv-x="542" 
d="M612 646v60c0 6.66699 -3.33301 10 -10 10h-371c-74 0 -130.833 -17.5 -170.5 -52.5s-59.5 -84.833 -59.5 -149.5c0 -60 17.333 -108 52 -144s83 -55.667 145 -59v-501c0 -6.66699 3.33301 -10 10 -10h63c6.66699 0 10 3.33301 10 10v826h106v-826
c0 -6.66699 3.33301 -10 10 -10h63c6.66699 0 10 3.33301 10 10v826h132c6.66699 0 10 3.33301 10 10z" />
    <glyph glyph-name="periodcentered" unicode="&#xb7;" horiz-adv-x="260" 
d="M190 345c0 16.667 -5.83301 30.834 -17.5 42.501s-25.834 17.5 -42.501 17.5s-30.834 -5.83301 -42.501 -17.5s-17.5 -25.834 -17.5 -42.501s5.83301 -30.834 17.5 -42.501s25.834 -17.5 42.501 -17.5s30.834 5.83301 42.501 17.5s17.5 25.834 17.5 42.501z" />
    <glyph glyph-name="periodcentered" unicode="&#x2219;" horiz-adv-x="260" 
d="M190 345c0 16.667 -5.83301 30.834 -17.5 42.501s-25.834 17.5 -42.501 17.5s-30.834 -5.83301 -42.501 -17.5s-17.5 -25.834 -17.5 -42.501s5.83301 -30.834 17.5 -42.501s25.834 -17.5 42.501 -17.5s30.834 5.83301 42.501 17.5s17.5 25.834 17.5 42.501z" />
    <glyph glyph-name="cedilla" unicode="&#xb8;" horiz-adv-x="333" 
d="M256 -82c0 16 -5.66895 29.999 -17.002 41.999s-26.666 19 -45.999 21l-1 24h-57l-8 -70c38.667 4 58 -4.33301 58 -25c0 -13.333 -9.66699 -21.666 -29 -24.999c-3.33301 -0.666992 -8.83301 -1.16699 -16.5 -1.5s-17.167 -0.5 -28.5 -0.5
c-6.66699 0 -10 -3.33301 -10 -10v-35c0 -6.66699 3.33301 -10 10 -10c3.33301 0 8.83301 -0.333008 16.5 -1s13.834 -1 18.501 -1c73.333 5.33301 110 36 110 92z" />
    <glyph glyph-name="onesuperior" unicode="&#xb9;" 
 />
    <glyph glyph-name="ordmasculine" unicode="&#xba;" horiz-adv-x="332" 
d="M308 550c0 38.667 -14 71.667 -42 99c-28 28 -61.333 42 -100 42s-72 -14 -100 -42c-28 -27.333 -42 -60.333 -42 -99c0 -38 13.667 -71.333 41 -100c28.667 -27.333 62.334 -41 101.001 -41c39.333 0 72.666 13.667 99.999 41c28 28 42 61.333 42 100zM219 281
c0 14.667 -5.16699 27.167 -15.5 37.5s-22.833 15.5 -37.5 15.5s-27.167 -5.16699 -37.5 -15.5s-15.5 -22.833 -15.5 -37.5s5.16699 -27.167 15.5 -37.5s22.833 -15.5 37.5 -15.5s27.167 5.16699 37.5 15.5s15.5 22.833 15.5 37.5zM251 550
c0 -24 -8.16699 -44.667 -24.5 -62s-36.5 -26 -60.5 -26s-44.167 8.66699 -60.5 26s-24.5 38 -24.5 62s8.16699 44.5 24.5 61.5s36.5 25.5 60.5 25.5c12 0 23.167 -2.33301 33.5 -7s19.333 -11 27 -19s13.667 -17.167 18 -27.5s6.5 -21.5 6.5 -33.5z" />
    <glyph glyph-name="guillemotright" unicode="&#xbb;" horiz-adv-x="490" 
d="M456 215c2.66699 3.33301 4 6.66797 4 10.001s-1.33301 6.66602 -4 9.99902l-134 205c-4.66699 6.66699 -10.334 10 -17.001 10h-67c-6 0 -7 -3.33301 -3 -10l134 -215l-134 -215c-4 -6.66699 -3 -10 3 -10h67c6.66699 -0 12.334 3.33301 17.001 10zM254 215.002
c2.66699 3.33301 4 6.66797 4 10.001s-1.33301 6.66602 -4 9.99902l-134 205c-4.66699 6.66699 -10.334 10 -17.001 10h-67c-6 0 -7 -3.33301 -3 -10l134 -215l-134 -215c-4 -6.66699 -3 -10 3 -10h67c6.66699 0 12.334 3.33301 17.001 10z" />
    <glyph glyph-name="onequarter" unicode="&#xbc;" 
 />
    <glyph glyph-name="onehalf" unicode="&#xbd;" 
 />
    <glyph glyph-name="threequarters" unicode="&#xbe;" 
 />
    <glyph glyph-name="questiondown" unicode="&#xbf;" 
d="M347 398c0 16.667 -6 30.834 -18 42.501s-26.333 17.5 -43 17.5s-30.834 -5.83301 -42.501 -17.5s-17.5 -25.834 -17.5 -42.501s6 -30.834 18 -42.501s26.333 -17.5 43 -17.5s30.834 5.83301 42.501 17.5s17.5 25.834 17.5 42.501zM495 -131l-39.9961 59.998
c-4 6.66699 -8.66699 7.33398 -14 2.00098c-62.667 -55.333 -118.667 -83 -168 -83c-44 0 -77.333 12 -100 36c-20 20 -30 44 -30 72c0 10 0.666992 18.833 2 26.5s3.66602 14.5 6.99902 20.5s7.83301 11.833 13.5 17.5s12.5 11.834 20.5 18.501l38 30l39 30
c23.333 20 40.666 41.667 51.999 65c12.667 26 19 60.667 19 104c0 6.66699 -3.66699 10 -11 10h-74c-6.66699 0 -10 -3.33301 -10 -10c0 -34 -7 -61.333 -21 -82c-8.66699 -13.333 -26.334 -29.333 -53.001 -48c-20.667 -14.667 -38.167 -28.334 -52.5 -41.001
s-25.5 -24.667 -33.5 -36c-21.333 -29.333 -32 -64.333 -32 -105c0 -57.333 21 -104.333 63 -141c43.333 -37.333 95.666 -56 156.999 -56c76.667 0 151.667 32 225 96c4.66699 4.66699 5.66699 9.33398 3 14.001z" />
    <glyph glyph-name="Agrave" unicode="&#xc0;" horiz-adv-x="587" 
d="M585 18l-251.998 653c-3.33301 9.33301 -8.66602 14 -15.999 14h-47c-6.66699 0 -11.667 -4.66699 -15 -14l-253 -653c-1.33301 -4 -0.833008 -8 1.5 -12s6.16602 -6 11.499 -6h66c7.33301 0 12.666 4.66699 15.999 14l56 151h277l56 -151
c3.33301 -9.33301 8.66602 -14 15.999 -14h71c12.667 0 16.667 6 12 18zM402.002 239h-221l110 297zM369.002 763l-58.999 127c-2.66699 6.66699 -6.33398 10 -11.001 10h-79c-8.66699 0 -10.667 -3.33301 -6 -10l99 -131c2.66699 -4 6.33398 -6 11.001 -6h38
c7.33301 0 9.66602 3.33301 6.99902 10z" />
    <glyph glyph-name="Aacute" unicode="&#xc1;" horiz-adv-x="587" 
d="M585 18l-251.998 653c-3.33301 9.33301 -8.66602 14 -15.999 14h-47c-6.66699 0 -11.667 -4.66699 -15 -14l-253 -653c-1.33301 -4 -0.833008 -8 1.5 -12s6.16602 -6 11.499 -6h66c7.33301 0 12.666 4.66699 15.999 14l56 151h277l56 -151
c3.33301 -9.33301 8.66602 -14 15.999 -14h71c12.667 0 16.667 6 12 18zM402.002 239h-221l110 297zM366.002 889c4.66699 6.66699 2.66895 10 -5.99805 10h-79c-4.66699 0 -8.33398 -3.33301 -11.001 -10l-59 -127c-2.66699 -6.66699 -0.333984 -10 6.99902 -10h38
c4 0 7.66699 2 11 6z" />
    <glyph glyph-name="Acircumflex" unicode="&#xc2;" horiz-adv-x="587" 
d="M585 18l-251.998 653c-3.33301 9.33301 -8.66602 14 -15.999 14h-47c-6.66699 0 -11.667 -4.66699 -15 -14l-253 -653c-1.33301 -4 -0.833008 -8 1.5 -12s6.16602 -6 11.499 -6h66c7.33301 0 12.666 4.66699 15.999 14l56 151h277l56 -151
c3.33301 -9.33301 8.66602 -14 15.999 -14h71c12.667 0 16.667 6 12 18zM402.002 239h-221l110 297zM424.002 758l-80.002 133c-3.33301 5.33301 -7 8 -11 8h-84c-4 0 -7.66699 -2.66699 -11 -8l-80 -133c-4 -6.66699 -2.33301 -10 5 -10h37
c2.66699 0 6.33398 2.33301 11.001 7l80 83l80 -83c4.66699 -4.66699 8.33398 -7 11.001 -7h37c7.33301 0 9 3.33301 5 10z" />
    <glyph glyph-name="Atilde" unicode="&#xc3;" horiz-adv-x="587" 
d="M585 18l-251.998 653c-3.33301 9.33301 -8.66602 14 -15.999 14h-47c-6.66699 0 -11.667 -4.66699 -15 -14l-253 -653c-1.33301 -4 -0.833008 -8 1.5 -12s6.16602 -6 11.499 -6h66c7.33301 0 12.666 4.66699 15.999 14l56 151h277l56 -151
c3.33301 -9.33301 8.66602 -14 15.999 -14h71c12.667 0 16.667 6 12 18zM402.002 239h-221l110 297zM446.002 868c0.666992 6.66699 -1.99805 10 -7.99805 10h-24c-6.66699 0 -10 -3.66699 -10 -11c-8 -18 -19 -27 -33 -27c-6.66699 0 -28 5.66699 -64 17
c-34 12 -60.333 18 -79 18c-42.667 0 -68 -35 -76 -105c0 -6.66699 2.66699 -10 8 -10h25c3.33301 0 6.66602 3.66699 9.99902 11c4.66699 16.667 15.667 25 33 25c12 0 33 -6 63 -18c30.667 -12 54.667 -18 72 -18c26 0 46.333 12.333 61 37
c11.333 18 18.666 41.667 21.999 71z" />
    <glyph glyph-name="Adieresis" unicode="&#xc4;" horiz-adv-x="587" 
d="M585 18l-251.998 653c-3.33301 9.33301 -8.66602 14 -15.999 14h-47c-6.66699 0 -11.667 -4.66699 -15 -14l-253 -653c-1.33301 -4 -0.833008 -8 1.5 -12s6.16602 -6 11.499 -6h66c7.33301 0 12.666 4.66699 15.999 14l56 151h277l56 -151
c3.33301 -9.33301 8.66602 -14 15.999 -14h71c12.667 0 16.667 6 12 18zM402.002 239h-221l110 297zM433.002 812c0 14.667 -5.16699 27.167 -15.5 37.5s-22.833 15.5 -37.5 15.5s-27.167 -5.16699 -37.5 -15.5s-15.5 -22.833 -15.5 -37.5s5.16699 -27.167 15.5 -37.5
s22.833 -15.5 37.5 -15.5s27.167 5.16699 37.5 15.5s15.5 22.833 15.5 37.5zM259.002 812c0 14.667 -5.16699 27.167 -15.5 37.5s-22.833 15.5 -37.5 15.5s-27.167 -5.16699 -37.5 -15.5s-15.5 -22.833 -15.5 -37.5s5.16699 -27.167 15.5 -37.5s22.833 -15.5 37.5 -15.5
s27.167 5.16699 37.5 15.5s15.5 22.833 15.5 37.5z" />
    <glyph glyph-name="Aring" unicode="&#xc5;" horiz-adv-x="587" 
d="M585 18l-251.998 653c-3.33301 9.33301 -8.66602 14 -15.999 14h-47c-6.66699 0 -11.667 -4.66699 -15 -14l-253 -653c-1.33301 -4 -0.833008 -8 1.5 -12s6.16602 -6 11.499 -6h66c7.33301 0 12.666 4.66699 15.999 14l56 151h277l56 -151
c3.33301 -9.33301 8.66602 -14 15.999 -14h71c12.667 0 16.667 6 12 18zM402.002 239h-221l110 297zM388.002 837c0 12.667 -2.5 24.667 -7.5 36s-11.667 21.166 -20 29.499s-18.166 15 -29.499 20s-23.333 7.5 -36 7.5s-24.667 -2.5 -36 -7.5s-21.166 -11.667 -29.499 -20
s-15 -18.166 -20 -29.499s-7.5 -23.333 -7.5 -36s2.5 -24.667 7.5 -36s11.667 -21.166 20 -29.499s18.166 -15 29.499 -20s23.333 -7.5 36 -7.5s24.667 2.5 36 7.5s21.166 11.667 29.499 20s15 18.166 20 29.499s7.5 23.333 7.5 36zM344.002 837
c0 -13.333 -4.83301 -24.833 -14.5 -34.5s-21.167 -14.5 -34.5 -14.5s-24.833 4.83301 -34.5 14.5s-14.5 21.167 -14.5 34.5s4.83301 24.833 14.5 34.5s21.167 14.5 34.5 14.5s24.833 -4.83301 34.5 -14.5s14.5 -21.167 14.5 -34.5z" />
    <glyph glyph-name="AE" unicode="&#xc6;" horiz-adv-x="977" 
d="M957 10v64c0 6.66699 -3.33301 10 -10 10h-368v216h315c6.66699 0 10 3.33301 10 10v64c0 6.66699 -3.33301 10 -10 10h-315v213h368c6.66699 0 10 3.33301 10 10v64c0 6.66699 -3.33301 10 -10 10h-454c-4.66699 0 -10.667 -4.66699 -18 -14l-473 -649
c-3.33301 -4 -4.33301 -8 -3 -12c0.666992 -4 3.66699 -6 9 -6h82c6.66699 0 13.667 4.66699 21 14l108 151h266v-155c0 -6.66699 3.33301 -10 10 -10h452c6.66699 -0 10 3.33301 10 10zM485 239h-213l213 298v-298z" />
    <glyph glyph-name="Ccedilla" unicode="&#xc7;" horiz-adv-x="668" 
d="M628 76l-40.0029 57.998c-4 5.33301 -8.66699 6.33301 -14 3l-39 -23c-10 -6 -16.667 -9.66699 -20 -11c-31.333 -14 -66 -21 -104 -21c-70 0 -130 25 -180 75c-50 50.667 -75 112 -75 184c0 69.333 25.333 129.333 76 180c51.333 51.333 111 77 179 77
c54 0 108.333 -18.667 163 -56c5.33301 -4 10 -3 14 3l39 60c5.33301 5.33301 4.66602 10 -2.00098 14c-71.333 47.333 -142.666 71 -213.999 71c-95.333 0 -177.666 -34.667 -246.999 -104s-104 -151 -104 -245c0 -87.333 28 -163.333 84 -228
c55.333 -64.667 125 -104 209 -118l-6 -60c38.667 4 58 -4.33301 58 -25c0 -13.333 -9.66699 -21.666 -29 -24.999c-3.33301 -0.666992 -8.83301 -1.16699 -16.5 -1.5s-17.167 -0.5 -28.5 -0.5c-6.66699 0 -10 -3.33301 -10 -10v-35c0 -6.66699 3.33301 -10 10 -10
c3.33301 0 8.83301 -0.333008 16.5 -1s13.834 -1 18.501 -1c73.333 5.33301 110 36 110 92c0 16 -5.66699 30 -17 42s-26.666 19 -45.999 21l-1 9c82 0 153 24 213 72c4.66699 4.66699 5.66699 9.33398 3 14.001z" />
    <glyph glyph-name="Egrave" unicode="&#xc8;" horiz-adv-x="594" 
d="M574 10v64c0 6.66699 -3.33301 10 -10 10h-390v216h337c6.66699 0 10 3.33301 10 10v64c0 6.66699 -3.33301 10 -10 10h-337v213h390c6.66699 0 10 3.33301 10 10v64c0 6.66699 -3.33301 10 -10 10h-474c-6.66699 0 -10 -3.33301 -10 -10v-661
c0 -6.66699 3.33301 -10 10 -10h474c6.66699 -0 10 3.33301 10 10zM401 763l-58.999 127c-2.66699 6.66699 -6.33398 10 -11.001 10h-79c-8.66699 0 -10.667 -3.33301 -6 -10l99 -131c2.66699 -4 6.33398 -6 11.001 -6h38c7.33301 0 9.66602 3.33301 6.99902 10z" />
    <glyph glyph-name="Eacute" unicode="&#xc9;" horiz-adv-x="594" 
d="M574 10v64c0 6.66699 -3.33301 10 -10 10h-390v216h337c6.66699 0 10 3.33301 10 10v64c0 6.66699 -3.33301 10 -10 10h-337v213h390c6.66699 0 10 3.33301 10 10v64c0 6.66699 -3.33301 10 -10 10h-474c-6.66699 0 -10 -3.33301 -10 -10v-661
c0 -6.66699 3.33301 -10 10 -10h474c6.66699 -0 10 3.33301 10 10zM422 889c4.66699 6.66699 2.66895 10 -5.99805 10h-79c-4.66699 0 -8.33398 -3.33301 -11.001 -10l-59 -127c-2.66699 -6.66699 -0.333984 -10 6.99902 -10h38c4 0 7.66699 2 11 6z" />
    <glyph glyph-name="Ecircumflex" unicode="&#xca;" horiz-adv-x="594" 
d="M574 10v64c0 6.66699 -3.33301 10 -10 10h-390v216h337c6.66699 0 10 3.33301 10 10v64c0 6.66699 -3.33301 10 -10 10h-337v213h390c6.66699 0 10 3.33301 10 10v64c0 6.66699 -3.33301 10 -10 10h-474c-6.66699 0 -10 -3.33301 -10 -10v-661
c0 -6.66699 3.33301 -10 10 -10h474c6.66699 -0 10 3.33301 10 10zM454 758l-80.002 133c-3.33301 5.33301 -7 8 -11 8h-84c-4 0 -7.66699 -2.66699 -11 -8l-80 -133c-4 -6.66699 -2.33301 -10 5 -10h37c2.66699 0 6.33398 2.33301 11.001 7l80 83l80 -83
c4.66699 -4.66699 8.33398 -7 11.001 -7h37c7.33301 0 9 3.33301 5 10z" />
    <glyph glyph-name="Edieresis" unicode="&#xcb;" horiz-adv-x="594" 
d="M574 10v64c0 6.66699 -3.33301 10 -10 10h-390v216h337c6.66699 0 10 3.33301 10 10v64c0 6.66699 -3.33301 10 -10 10h-337v213h390c6.66699 0 10 3.33301 10 10v64c0 6.66699 -3.33301 10 -10 10h-474c-6.66699 0 -10 -3.33301 -10 -10v-661
c0 -6.66699 3.33301 -10 10 -10h474c6.66699 -0 10 3.33301 10 10zM477 812c0 14.667 -5.16699 27.167 -15.5 37.5s-22.833 15.5 -37.5 15.5s-27.167 -5.16699 -37.5 -15.5s-15.5 -22.833 -15.5 -37.5s5.16699 -27.167 15.5 -37.5s22.833 -15.5 37.5 -15.5
s27.167 5.16699 37.5 15.5s15.5 22.833 15.5 37.5zM303 812c0 14.667 -5.16699 27.167 -15.5 37.5s-22.833 15.5 -37.5 15.5s-27.167 -5.16699 -37.5 -15.5s-15.5 -22.833 -15.5 -37.5s5.16699 -27.167 15.5 -37.5s22.833 -15.5 37.5 -15.5s27.167 5.16699 37.5 15.5
s15.5 22.833 15.5 37.5z" />
    <glyph glyph-name="Igrave" unicode="&#xcc;" horiz-adv-x="254" 
d="M215 763l-58.999 127c-2.66699 6.66699 -6.33398 10 -11.001 10h-79c-8.66699 0 -10.667 -3.33301 -6 -10l99 -131c2.66699 -4 6.33398 -6 11.001 -6h38c7.33301 0 9.66602 3.33301 6.99902 10zM174.001 10v661c0 6.66699 -3.33301 10 -10 10h-74
c-6.66699 0 -10 -3.33301 -10 -10v-661c0 -6.66699 3.33301 -10 10 -10h74c6.66699 -0 10 3.33301 10 10z" />
    <glyph glyph-name="Iacute" unicode="&#xcd;" horiz-adv-x="254" 
d="M174 10v661c0 6.66699 -3.33301 10 -10 10h-74c-6.66699 0 -10 -3.33301 -10 -10v-661c0 -6.66699 3.33301 -10 10 -10h74c6.66699 -0 10 3.33301 10 10zM225 889c4.66699 6.66699 2.66895 10 -5.99805 10h-79c-4.66699 0 -8.33398 -3.33301 -11.001 -10l-59 -127
c-2.66699 -6.66699 -0.333984 -10 6.99902 -10h38c4 0 7.66699 2 11 6z" />
    <glyph glyph-name="Icircumflex" unicode="&#xce;" horiz-adv-x="254" 
d="M260 758l-80.002 133c-4 5.33301 -7.66699 8 -11 8h-84c-3.33301 0 -7 -2.66699 -11 -8l-80 -133c-4 -6.66699 -2.33301 -10 5 -10h37c2.66699 0 6.33398 2.33301 11.001 7l80 83l80 -83c4.66699 -4.66699 8.33398 -7 11.001 -7h37c7.33301 0 9 3.33301 5 10zM173.998 10
v661c0 6.66699 -3.33301 10 -10 10h-74c-6.66699 0 -10 -3.33301 -10 -10v-661c0 -6.66699 3.33301 -10 10 -10h74c6.66699 -0 10 3.33301 10 10z" />
    <glyph glyph-name="Idieresis" unicode="&#xcf;" horiz-adv-x="254" 
d="M268 812c0 14.667 -5.16699 27.167 -15.5 37.5s-22.833 15.5 -37.5 15.5s-27.167 -5.16699 -37.5 -15.5s-15.5 -22.833 -15.5 -37.5s5.16699 -27.167 15.5 -37.5s22.833 -15.5 37.5 -15.5s27.167 5.16699 37.5 15.5s15.5 22.833 15.5 37.5zM94 812
c0 14.667 -5.16699 27.167 -15.5 37.5s-22.833 15.5 -37.5 15.5s-27.167 -5.16699 -37.5 -15.5s-15.5 -22.833 -15.5 -37.5s5.16699 -27.167 15.5 -37.5s22.833 -15.5 37.5 -15.5s27.167 5.16699 37.5 15.5s15.5 22.833 15.5 37.5zM174 10v661c0 6.66699 -3.33301 10 -10 10
h-74c-6.66699 0 -10 -3.33301 -10 -10v-661c0 -6.66699 3.33301 -10 10 -10h74c6.66699 -0 10 3.33301 10 10z" />
    <glyph glyph-name="Eth" unicode="&#xd0;" 
 />
    <glyph glyph-name="Ntilde" unicode="&#xd1;" horiz-adv-x="746" 
d="M666 10l-0.000976562 661c0 6.66699 -3.33301 10 -10 10h-68c-6.66699 0 -10 -3.33301 -10 -10v-513l-411 518c-3.33301 3.33301 -6.33301 5 -9 5h-68c-6.66699 0 -10 -3.33301 -10 -10v-661c0 -6.66699 3.33301 -10 10 -10h68c6.66699 -0 10 3.33301 10 10v514l412 -520
c2.66699 -2.66699 5.33398 -4 8.00098 -4h68c6.66699 -0 10 3.33301 10 10zM533.999 868c0.666992 6.66699 -1.99805 10 -7.99805 10h-24c-6.66699 0 -10 -3.66699 -10 -11c-8 -18 -19 -27 -33 -27c-6.66699 0 -28 5.66699 -64 17c-34 12 -60.333 18 -79 18
c-42.667 0 -68 -35 -76 -105c0 -6.66699 2.66699 -10 8 -10h25c3.33301 0 6.66602 3.66699 9.99902 11c4.66699 16.667 15.667 25 33 25c12 0 33 -6 63 -18c30.667 -12 54.667 -18 72 -18c26 0 46.333 12.333 61 37c11.333 18 18.666 41.667 21.999 71z" />
    <glyph glyph-name="Ograve" unicode="&#xd2;" horiz-adv-x="785" 
d="M745 340c0 96 -34.666 178.669 -103.999 248.002c-68.667 68.667 -151.334 103 -248.001 103c-98 0 -181.333 -34.333 -250 -103s-103 -151.334 -103 -248.001s34.333 -179 103 -247s152 -102 250 -102c96 0 178.667 34 248 102c69.333 69.333 104 151.666 104 246.999z
M652.001 340.002c0 -72 -25.332 -133.334 -75.999 -184.001s-111.667 -76 -183 -76c-72 0 -133.333 25.333 -184 76s-76 112 -76 184s25.333 133.333 76 184c51.333 51.333 112.666 77 183.999 77c70 0 130.667 -25.667 182 -77s77 -112.666 77 -183.999zM490.002 763.001
l-58.999 127c-2.66699 6.66699 -6.33398 10 -11.001 10h-79c-8.66699 0 -10.667 -3.33301 -6 -10l99 -131c2.66699 -4 6.33398 -6 11.001 -6h38c7.33301 0 9.66602 3.33301 6.99902 10z" />
    <glyph glyph-name="Oacute" unicode="&#xd3;" horiz-adv-x="785" 
d="M745 340c0 96 -34.666 178.669 -103.999 248.002c-68.667 68.667 -151.334 103 -248.001 103c-98 0 -181.333 -34.333 -250 -103s-103 -151.334 -103 -248.001s34.333 -179 103 -247s152 -102 250 -102c96 0 178.667 34 248 102c69.333 69.333 104 151.666 104 246.999z
M652.001 340.002c0 -72 -25.332 -133.334 -75.999 -184.001s-111.667 -76 -183 -76c-72 0 -133.333 25.333 -184 76s-76 112 -76 184s25.333 133.333 76 184c51.333 51.333 112.666 77 183.999 77c70 0 130.667 -25.667 182 -77s77 -112.666 77 -183.999zM480.002 889.001
c4.66699 6.66699 2.66895 10 -5.99805 10h-79c-4.66699 0 -8.33398 -3.33301 -11.001 -10l-59 -127c-2.66699 -6.66699 -0.333984 -10 6.99902 -10h38c4 0 7.66699 2 11 6z" />
    <glyph glyph-name="Ocircumflex" unicode="&#xd4;" horiz-adv-x="785" 
d="M745 340c0 96 -34.666 178.669 -103.999 248.002c-68.667 68.667 -151.334 103 -248.001 103c-98 0 -181.333 -34.333 -250 -103s-103 -151.334 -103 -248.001s34.333 -179 103 -247s152 -102 250 -102c96 0 178.667 34 248 102c69.333 69.333 104 151.666 104 246.999z
M652.001 340.002c0 -72 -25.332 -133.334 -75.999 -184.001s-111.667 -76 -183 -76c-72 0 -133.333 25.333 -184 76s-76 112 -76 184s25.333 133.333 76 184c51.333 51.333 112.666 77 183.999 77c70 0 130.667 -25.667 182 -77s77 -112.666 77 -183.999zM524.002 758.001
l-80.002 133c-3.33301 5.33301 -7 8 -11 8h-84c-4 0 -7.66699 -2.66699 -11 -8l-80 -133c-4 -6.66699 -2.33301 -10 5 -10h37c2.66699 0 6.33398 2.33301 11.001 7l80 83l80 -83c4.66699 -4.66699 8.33398 -7 11.001 -7h37c7.33301 0 9 3.33301 5 10z" />
    <glyph glyph-name="Otilde" unicode="&#xd5;" horiz-adv-x="785" 
d="M745 340c0 96 -34.666 178.669 -103.999 248.002c-68.667 68.667 -151.334 103 -248.001 103c-98 0 -181.333 -34.333 -250 -103s-103 -151.334 -103 -248.001s34.333 -179 103 -247s152 -102 250 -102c96 0 178.667 34 248 102c69.333 69.333 104 151.666 104 246.999z
M652.001 340.002c0 -72 -25.332 -133.334 -75.999 -184.001s-111.667 -76 -183 -76c-72 0 -133.333 25.333 -184 76s-76 112 -76 184s25.333 133.333 76 184c51.333 51.333 112.666 77 183.999 77c70 0 130.667 -25.667 182 -77s77 -112.666 77 -183.999zM542.002 868.001
c0.666992 6.66699 -1.99805 10 -7.99805 10h-24c-6.66699 0 -10 -3.66699 -10 -11c-8 -18 -19 -27 -33 -27c-6.66699 0 -28 5.66699 -64 17c-34 12 -60.333 18 -79 18c-42.667 0 -68 -35 -76 -105c0 -6.66699 2.66699 -10 8 -10h25c3.33301 0 6.66602 3.66699 9.99902 11
c4.66699 16.667 15.667 25 33 25c12 0 33 -6 63 -18c30.667 -12 54.667 -18 72 -18c26 0 46.333 12.333 61 37c11.333 18 18.666 41.667 21.999 71z" />
    <glyph glyph-name="Odieresis" unicode="&#xd6;" horiz-adv-x="785" 
d="M745 340c0 96 -34.666 178.669 -103.999 248.002c-68.667 68.667 -151.334 103 -248.001 103c-98 0 -181.333 -34.333 -250 -103s-103 -151.334 -103 -248.001s34.333 -179 103 -247s152 -102 250 -102c96 0 178.667 34 248 102c69.333 69.333 104 151.666 104 246.999z
M652.001 340.002c0 -72 -25.332 -133.334 -75.999 -184.001s-111.667 -76 -183 -76c-72 0 -133.333 25.333 -184 76s-76 112 -76 184s25.333 133.333 76 184c51.333 51.333 112.666 77 183.999 77c70 0 130.667 -25.667 182 -77s77 -112.666 77 -183.999zM534.002 812.001
c0 14.667 -5.16699 27.167 -15.5 37.5s-22.833 15.5 -37.5 15.5s-27.167 -5.16699 -37.5 -15.5s-15.5 -22.833 -15.5 -37.5s5.16699 -27.167 15.5 -37.5s22.833 -15.5 37.5 -15.5s27.167 5.16699 37.5 15.5s15.5 22.833 15.5 37.5zM360.002 812.001
c0 14.667 -5.16699 27.167 -15.5 37.5s-22.833 15.5 -37.5 15.5s-27.167 -5.16699 -37.5 -15.5s-15.5 -22.833 -15.5 -37.5s5.16699 -27.167 15.5 -37.5s22.833 -15.5 37.5 -15.5s27.167 5.16699 37.5 15.5s15.5 22.833 15.5 37.5z" />
    <glyph glyph-name="multiply" unicode="&#xd7;" 
 />
    <glyph glyph-name="Oslash" unicode="&#xd8;" horiz-adv-x="785" 
d="M745 340c0 94 -32.667 174.669 -98 242.002l54 63c4.66699 4.66699 4.33398 9.33398 -0.999023 14.001l-32 27c-5.33301 4 -10 3.66699 -14 -1l-53 -62c-62.667 45.333 -132 68 -208 68c-98 0 -181.333 -34.333 -250 -103s-103 -151.334 -103 -248.001
c0 -97.333 35 -180 105 -248l-47 -55c-4.66699 -4.66699 -4.33398 -9.33398 0.999023 -14.001l32 -27c5.33301 -4 10 -3.66699 14 1l48 56c61.333 -41.333 128 -62 200 -62c96 0 178.667 34 248 102c69.333 69.333 104 151.666 104 246.999zM652 340.002
c0 -72 -25.333 -133.333 -76 -184s-111.667 -76 -183 -76c-50 0 -97 14 -141 42l335 390c43.333 -50.667 65 -108 65 -172zM541 554.002l-335.999 -392c-48 50 -72 109.333 -72 178c0 72 25.333 133.333 76 184c51.333 51.333 112.666 77 183.999 77
c54 0 103.333 -15.667 148 -47z" />
    <glyph glyph-name="Ugrave" unicode="&#xd9;" horiz-adv-x="699" 
d="M629 270l-0.000976562 401c0 6.66699 -3.33301 10 -10 10h-74c-6.66699 0 -10 -3.33301 -10 -10v-391c0 -64.667 -16.167 -113.834 -48.5 -147.501s-77.833 -50.5 -136.5 -50.5s-104.334 16.833 -137.001 50.5s-49 82.834 -49 147.501v391c0 6.66699 -3.33301 10 -10 10
h-74c-6.66699 0 -10 -3.33301 -10 -10v-401c0 -43.333 6.33301 -82.166 19 -116.499s31 -63.5 55 -87.5s53.333 -42.5 88 -55.5s74 -19.5 118 -19.5s83.333 6.5 118 19.5s63.834 31.5 87.501 55.5s41.834 53.167 54.501 87.5s19 73.166 19 116.499zM402.999 763l-58.999 127
c-2.66699 6.66699 -6.33398 10 -11.001 10h-79c-8.66699 0 -10.667 -3.33301 -6 -10l99 -131c2.66699 -4 6.33398 -6 11.001 -6h38c7.33301 0 9.66602 3.33301 6.99902 10z" />
    <glyph glyph-name="Uacute" unicode="&#xda;" horiz-adv-x="699" 
d="M629 270l-0.000976562 401c0 6.66699 -3.33301 10 -10 10h-74c-6.66699 0 -10 -3.33301 -10 -10v-391c0 -64.667 -16.167 -113.834 -48.5 -147.501s-77.833 -50.5 -136.5 -50.5s-104.334 16.833 -137.001 50.5s-49 82.834 -49 147.501v391c0 6.66699 -3.33301 10 -10 10
h-74c-6.66699 0 -10 -3.33301 -10 -10v-401c0 -43.333 6.33301 -82.166 19 -116.499s31 -63.5 55 -87.5s53.333 -42.5 88 -55.5s74 -19.5 118 -19.5s83.333 6.5 118 19.5s63.834 31.5 87.501 55.5s41.834 53.167 54.501 87.5s19 73.166 19 116.499zM436.999 889
c4.66699 6.66699 2.66895 10 -5.99805 10h-79c-4.66699 0 -8.33398 -3.33301 -11.001 -10l-59 -127c-2.66699 -6.66699 -0.333984 -10 6.99902 -10h38c4 0 7.66699 2 11 6z" />
    <glyph glyph-name="Ucircumflex" unicode="&#xdb;" horiz-adv-x="699" 
d="M629 270l-0.000976562 401c0 6.66699 -3.33301 10 -10 10h-74c-6.66699 0 -10 -3.33301 -10 -10v-391c0 -64.667 -16.167 -113.834 -48.5 -147.501s-77.833 -50.5 -136.5 -50.5s-104.334 16.833 -137.001 50.5s-49 82.834 -49 147.501v391c0 6.66699 -3.33301 10 -10 10
h-74c-6.66699 0 -10 -3.33301 -10 -10v-401c0 -43.333 6.33301 -82.166 19 -116.499s31 -63.5 55 -87.5s53.333 -42.5 88 -55.5s74 -19.5 118 -19.5s83.333 6.5 118 19.5s63.834 31.5 87.501 55.5s41.834 53.167 54.501 87.5s19 73.166 19 116.499zM490.999 758l-80.002 133
c-3.33301 5.33301 -7 8 -11 8h-84c-4 0 -7.66699 -2.66699 -11 -8l-80 -133c-4 -6.66699 -2.33301 -10 5 -10h37c2.66699 0 6.33398 2.33301 11.001 7l80 83l80 -83c4.66699 -4.66699 8.33398 -7 11.001 -7h37c7.33301 0 9 3.33301 5 10z" />
    <glyph glyph-name="Udieresis" unicode="&#xdc;" horiz-adv-x="699" 
d="M629 270l-0.000976562 401c0 6.66699 -3.33301 10 -10 10h-74c-6.66699 0 -10 -3.33301 -10 -10v-391c0 -64.667 -16.167 -113.834 -48.5 -147.501s-77.833 -50.5 -136.5 -50.5s-104.334 16.833 -137.001 50.5s-49 82.834 -49 147.501v391c0 6.66699 -3.33301 10 -10 10
h-74c-6.66699 0 -10 -3.33301 -10 -10v-401c0 -43.333 6.33301 -82.166 19 -116.499s31 -63.5 55 -87.5s53.333 -42.5 88 -55.5s74 -19.5 118 -19.5s83.333 6.5 118 19.5s63.834 31.5 87.501 55.5s41.834 53.167 54.501 87.5s19 73.166 19 116.499zM493.999 812
c0 14.667 -5.16699 27.167 -15.5 37.5s-22.833 15.5 -37.5 15.5s-27.167 -5.16699 -37.5 -15.5s-15.5 -22.833 -15.5 -37.5s5.16699 -27.167 15.5 -37.5s22.833 -15.5 37.5 -15.5s27.167 5.16699 37.5 15.5s15.5 22.833 15.5 37.5zM319.999 812
c0 14.667 -5.16699 27.167 -15.5 37.5s-22.833 15.5 -37.5 15.5s-27.167 -5.16699 -37.5 -15.5s-15.5 -22.833 -15.5 -37.5s5.16699 -27.167 15.5 -37.5s22.833 -15.5 37.5 -15.5s27.167 5.16699 37.5 15.5s15.5 22.833 15.5 37.5z" />
    <glyph glyph-name="Yacute" unicode="&#xdd;" 
 />
    <glyph glyph-name="Thorn" unicode="&#xde;" 
 />
    <glyph glyph-name="germandbls" unicode="&#xdf;" horiz-adv-x="553" 
d="M498 196c0 46.667 -12.166 86.168 -36.499 118.501s-57.833 52.5 -100.5 60.5v2c32 9.33301 56.667 28 74 56c16.667 26.667 25 57.667 25 93c0 52 -16.667 92.5 -50 121.5s-80 43.5 -140 43.5c-58.667 0 -104.334 -15.333 -137.001 -46
c-35.333 -32 -53 -78.333 -53 -139v-558c0 -6.66699 3.33301 -10 10 -10h69c6.66699 0 10 3.33301 10 10v558c0 72.667 34 109 102 109c28.667 0 52.167 -9 70.5 -27s27.5 -42 27.5 -72c0 -69.333 -42.333 -104 -127 -104c-6.66699 0 -10 -3.33301 -10 -10v-60
c0 -6.66699 3.33301 -10 10 -10c43.333 0 79.666 -8.66699 108.999 -26c38 -23.333 57 -59.333 57 -108c0 -36 -12 -66.333 -36 -91c-22.667 -24.667 -50.334 -37 -83.001 -37c-21.333 0 -43.666 3.66699 -66.999 11c-6.66699 2 -10 -1.33301 -10 -10v-63
c0 -6 3.33301 -9.33301 10 -10c22.667 -4.66699 50.334 -7 83.001 -7c54.667 0 100.667 19 138 57c36.667 37.333 55 86.666 55 147.999z" />
    <glyph glyph-name="agrave" unicode="&#xe0;" horiz-adv-x="477" 
d="M406 10v277c0 64.667 -22 111.667 -66 141c-30 20 -66.333 30 -109 30c-55.333 0 -108.333 -17.667 -159 -53c-6 -4 -7 -8.66699 -3 -14l35 -51c4 -4.66699 8.66699 -5.33398 14 -2.00098c40.667 26.667 78.334 40 113.001 40c28.667 0 51 -9 67 -27
c13.333 -16.667 19.666 -37.334 18.999 -62.001c-83.333 -9.33301 -141 -20.333 -173 -33c-63.333 -27.333 -95 -68.666 -95 -123.999c0 -41.333 15.667 -75.666 47 -102.999c29.333 -25.333 65.333 -38 108 -38c46 0 83.667 11 113 33v-14c0 -6.66699 3.66699 -10 11 -10
h69c6 -0 9 3.33301 9 10zM317 109c-28 -28 -65.3311 -40.334 -111.998 -37.001c-16.667 1.33301 -31.334 6.5 -44.001 15.5s-20 20.833 -22 35.5c-3.33301 26 11 46 43 60c7.33301 3.33301 16.666 6.33301 27.999 9s24.333 5.33398 39 8.00098
c15.333 2.66699 38 5.66699 68 9v-100zM315.002 543.999l-58.999 127c-2.66699 6.66699 -6.33398 10 -11.001 10h-79c-8.66699 0 -10.667 -3.33301 -6 -10l99 -131c2.66699 -4 6.33398 -6 11.001 -6h38c7.33301 0 9.66602 3.33301 6.99902 10z" />
    <glyph glyph-name="aacute" unicode="&#xe1;" horiz-adv-x="477" 
d="M406 10v277c0 64.667 -22 111.667 -66 141c-30 20 -66.333 30 -109 30c-55.333 0 -108.333 -17.667 -159 -53c-6 -4 -7 -8.66699 -3 -14l35 -51c4 -4.66699 8.66699 -5.33398 14 -2.00098c40.667 26.667 78.334 40 113.001 40c28.667 0 51 -9 67 -27
c13.333 -16.667 19.666 -37.334 18.999 -62.001c-83.333 -9.33301 -141 -20.333 -173 -33c-63.333 -27.333 -95 -68.666 -95 -123.999c0 -41.333 15.667 -75.666 47 -102.999c29.333 -25.333 65.333 -38 108 -38c46 0 83.667 11 113 33v-14c0 -6.66699 3.66699 -10 11 -10
h69c6 -0 9 3.33301 9 10zM317 109c-28 -28 -65.3311 -40.334 -111.998 -37.001c-16.667 1.33301 -31.334 6.5 -44.001 15.5s-20 20.833 -22 35.5c-3.33301 26 11 46 43 60c7.33301 3.33301 16.666 6.33301 27.999 9s24.333 5.33398 39 8.00098
c15.333 2.66699 38 5.66699 68 9v-100zM337.002 670.999c0.666992 0.666992 1.00098 2 1.00098 4c0 4 -2.33301 6 -7 6h-79c-4.66699 0 -8.33398 -3.33301 -11.001 -10l-59 -127c-4 -6.66699 -1.66699 -10 7 -10h38c3.33301 0 7 2 11 6z" />
    <glyph glyph-name="acircumflex" unicode="&#xe2;" horiz-adv-x="477" 
d="M406 10v277c0 64.667 -22 111.667 -66 141c-30 20 -66.333 30 -109 30c-55.333 0 -108.333 -17.667 -159 -53c-6 -4 -7 -8.66699 -3 -14l35 -51c4 -4.66699 8.66699 -5.33398 14 -2.00098c40.667 26.667 78.334 40 113.001 40c28.667 0 51 -9 67 -27
c13.333 -16.667 19.666 -37.334 18.999 -62.001c-83.333 -9.33301 -141 -20.333 -173 -33c-63.333 -27.333 -95 -68.666 -95 -123.999c0 -41.333 15.667 -75.666 47 -102.999c29.333 -25.333 65.333 -38 108 -38c46 0 83.667 11 113 33v-14c0 -6.66699 3.66699 -10 11 -10
h69c6 -0 9 3.33301 9 10zM317 109c-28 -28 -65.3311 -40.334 -111.998 -37.001c-16.667 1.33301 -31.334 6.5 -44.001 15.5s-20 20.833 -22 35.5c-3.33301 26 11 46 43 60c7.33301 3.33301 16.666 6.33301 27.999 9s24.333 5.33398 39 8.00098
c15.333 2.66699 38 5.66699 68 9v-100zM371.002 539.999l-80.002 133c-3.33301 5.33301 -7 8 -11 8h-84c-4 0 -7.66699 -2.66699 -11 -8l-80 -133c-4 -6.66699 -2.33301 -10 5 -10h37c2.66699 0 6.33398 2.33301 11.001 7l80 83l80 -83
c4.66699 -4.66699 8.33398 -7 11.001 -7h37c7.33301 0 9 3.33301 5 10z" />
    <glyph glyph-name="atilde" unicode="&#xe3;" horiz-adv-x="477" 
d="M406 10v277c0 64.667 -22 111.667 -66 141c-30 20 -66.333 30 -109 30c-55.333 0 -108.333 -17.667 -159 -53c-6 -4 -7 -8.66699 -3 -14l35 -51c4 -4.66699 8.66699 -5.33398 14 -2.00098c40.667 26.667 78.334 40 113.001 40c28.667 0 51 -9 67 -27
c13.333 -16.667 19.666 -37.334 18.999 -62.001c-83.333 -9.33301 -141 -20.333 -173 -33c-63.333 -27.333 -95 -68.666 -95 -123.999c0 -41.333 15.667 -75.666 47 -102.999c29.333 -25.333 65.333 -38 108 -38c46 0 83.667 11 113 33v-14c0 -6.66699 3.66699 -10 11 -10
h69c6 -0 9 3.33301 9 10zM317 109c-28 -28 -65.3311 -40.334 -111.998 -37.001c-16.667 1.33301 -31.334 6.5 -44.001 15.5s-20 20.833 -22 35.5c-3.33301 26 11 46 43 60c7.33301 3.33301 16.666 6.33301 27.999 9s24.333 5.33398 39 8.00098
c15.333 2.66699 38 5.66699 68 9v-100zM393.002 659.999c0 6.66699 -2.66602 10 -7.99902 10h-24c-6.66699 0 -10 -3.66699 -10 -11c-8 -18 -19 -27 -33 -27c-6.66699 0 -28 5.66699 -64 17c-34 12 -60.333 18 -79 18c-42.667 0 -68 -35 -76 -105
c0 -6.66699 2.66699 -10 8 -10h25c3.33301 0 6.66602 3.66699 9.99902 11c4.66699 16.667 15.667 25 33 25c12 0 33 -6 63 -18c30.667 -12 54.667 -18 72 -18c47.333 0 75 36 83 108z" />
    <glyph glyph-name="adieresis" unicode="&#xe4;" horiz-adv-x="477" 
d="M406 10v277c0 64.667 -22 111.667 -66 141c-30 20 -66.333 30 -109 30c-55.333 0 -108.333 -17.667 -159 -53c-6 -4 -7 -8.66699 -3 -14l35 -51c4 -4.66699 8.66699 -5.33398 14 -2.00098c40.667 26.667 78.334 40 113.001 40c28.667 0 51 -9 67 -27
c13.333 -16.667 19.666 -37.334 18.999 -62.001c-83.333 -9.33301 -141 -20.333 -173 -33c-63.333 -27.333 -95 -68.666 -95 -123.999c0 -41.333 15.667 -75.666 47 -102.999c29.333 -25.333 65.333 -38 108 -38c46 0 83.667 11 113 33v-14c0 -6.66699 3.66699 -10 11 -10
h69c6 -0 9 3.33301 9 10zM317 109c-28 -28 -65.3311 -40.334 -111.998 -37.001c-16.667 1.33301 -31.334 6.5 -44.001 15.5s-20 20.833 -22 35.5c-3.33301 26 11 46 43 60c7.33301 3.33301 16.666 6.33301 27.999 9s24.333 5.33398 39 8.00098
c15.333 2.66699 38 5.66699 68 9v-100zM385.002 627.999c0 14.667 -5.16699 27.167 -15.5 37.5s-22.833 15.5 -37.5 15.5s-27.167 -5.16699 -37.5 -15.5s-15.5 -22.833 -15.5 -37.5s5.16699 -27.167 15.5 -37.5s22.833 -15.5 37.5 -15.5s27.167 5.16699 37.5 15.5
s15.5 22.833 15.5 37.5zM211.002 627.999c0 14.667 -5.16699 27.167 -15.5 37.5s-22.833 15.5 -37.5 15.5s-27.167 -5.16699 -37.5 -15.5s-15.5 -22.833 -15.5 -37.5s5.16699 -27.167 15.5 -37.5s22.833 -15.5 37.5 -15.5s27.167 5.16699 37.5 15.5s15.5 22.833 15.5 37.5z
" />
    <glyph glyph-name="aring" unicode="&#xe5;" horiz-adv-x="477" 
d="M406 10v277c0 64.667 -22 111.667 -66 141c-30 20 -66.333 30 -109 30c-55.333 0 -108.333 -17.667 -159 -53c-6 -4 -7 -8.66699 -3 -14l35 -51c4 -4.66699 8.66699 -5.33398 14 -2.00098c40.667 26.667 78.334 40 113.001 40c28.667 0 51 -9 67 -27
c13.333 -16.667 19.666 -37.334 18.999 -62.001c-83.333 -9.33301 -141 -20.333 -173 -33c-63.333 -27.333 -95 -68.666 -95 -123.999c0 -41.333 15.667 -75.666 47 -102.999c29.333 -25.333 65.333 -38 108 -38c46 0 83.667 11 113 33v-14c0 -6.66699 3.66699 -10 11 -10
h69c6 -0 9 3.33301 9 10zM317 109c-28 -28 -65.3311 -40.334 -111.998 -37.001c-16.667 1.33301 -31.334 6.5 -44.001 15.5s-20 20.833 -22 35.5c-3.33301 26 11 46 43 60c7.33301 3.33301 16.666 6.33301 27.999 9s24.333 5.33398 39 8.00098
c15.333 2.66699 38 5.66699 68 9v-100zM329.002 616.999c0 12.667 -2.5 24.667 -7.5 36s-11.667 21.166 -20 29.499s-18.166 15 -29.499 20s-23.333 7.5 -36 7.5s-24.667 -2.5 -36 -7.5s-21.166 -11.667 -29.499 -20s-15 -18.166 -20 -29.499s-7.5 -23.333 -7.5 -36
s2.5 -24.667 7.5 -36s11.667 -21.166 20 -29.499s18.166 -15 29.499 -20s23.333 -7.5 36 -7.5s24.667 2.5 36 7.5s21.166 11.667 29.499 20s15 18.166 20 29.499s7.5 23.333 7.5 36zM285.002 616.999c0 -13.333 -4.83301 -24.833 -14.5 -34.5s-21.167 -14.5 -34.5 -14.5
s-25 4.83301 -35 14.5s-15 21.167 -15 34.5s5 25 15 35s21.667 15 35 15s24.833 -5 34.5 -15s14.5 -21.667 14.5 -35z" />
    <glyph glyph-name="ae" unicode="&#xe6;" horiz-adv-x="809" 
d="M753 225c3.33301 67.333 -16.335 123.333 -59.002 168c-41.333 43.333 -92.333 65 -153 65c-64.667 0 -116.667 -20.667 -156 -62c-31.333 41.333 -79 62 -143 62c-55.333 0 -108.666 -17.667 -159.999 -53c-5.33301 -5.33301 -6.33301 -10 -3 -14l36 -51
c2.66699 -4.66699 7 -5.33398 13 -2.00098c38.667 26.667 76.667 40 114 40c28 0 49.5 -8.16699 64.5 -24.5s22.167 -36.5 21.5 -60.5l-1 -4c-62.667 -6 -111 -14 -145 -24c-81.333 -23.333 -122 -67.666 -122 -132.999c0 -41.333 15 -75.333 45 -102
c30.667 -26 67 -39 109 -39c66 0 121.667 23.667 167 71c28 -23.333 51.333 -39.333 70 -48c30.667 -15.333 65.667 -23 105 -23c63.333 0 119 18 167 54c5.33301 4 5.33301 8.66699 0 14l-47 48c-4 4 -9 4 -15 0c-29.333 -20.667 -62.333 -31 -99 -31
c-41.333 0 -75.666 11.667 -102.999 35c-24 22 -38 49.333 -42 82h325c6.66699 0 10 3.33301 10 10zM657.999 273l-241 0.000976562c6 32 20.333 58 43 78s49 30 79 30c32 0 59.333 -10.333 82 -31c24 -20.667 36.333 -46.334 37 -77.001zM342.999 123.001
c-36 -37.333 -78.667 -54.3301 -128 -50.9971c-16.667 1.33301 -31.334 6.5 -44.001 15.5s-20 20.833 -22 35.5c-3.33301 26 11.334 46 44.001 60c12.667 5.33301 29.667 10.166 51 14.499s47.333 8.16602 78 11.499c2 -26.667 9 -55.334 21 -86.001z" />
    <glyph glyph-name="ccedilla" unicode="&#xe7;" horiz-adv-x="440" 
d="M421 399c4 4 2.99902 8.66895 -3.00098 14.002c-47.333 30 -94 45 -140 45c-64.667 0 -120.334 -23 -167.001 -69c-47.333 -46 -71 -100.667 -71 -164c0 -56.667 17.333 -106.334 52 -149.001c35.333 -42.667 80.333 -69.334 135 -80.001l-7 -61
c38.667 4 58 -4.33301 58 -25c0 -13.333 -9.66699 -21.666 -29 -24.999c-3.33301 -0.666992 -8.83301 -1.16699 -16.5 -1.5s-17.167 -0.5 -28.5 -0.5c-6.66699 0 -10 -3.33301 -10 -10v-35c0 -6.66699 3.33301 -10 10 -10c3.33301 0 8.83301 -0.333008 16.5 -1
s13.834 -1 18.501 -1c73.333 5.33301 110 36 110 92c0 16 -5.66699 30 -17 42s-26.666 19 -45.999 21v10c54 1.33301 97.667 14.666 131 39.999c6 3.33301 7 8 3 14l-37 54c-3.33301 5.33301 -8 6 -14 2c-25.333 -16 -55.333 -24 -90 -24c-44 0 -79.333 14.333 -106 43
c-27.333 29.333 -41 64.333 -41 105c0 38.667 14 72.667 42 102c29.333 29.333 64.333 44 105 44c29.333 0 59.333 -10.333 90 -31c4.66699 -2.66699 9 -1.66699 13 3z" />
    <glyph glyph-name="egrave" unicode="&#xe8;" horiz-adv-x="513" 
d="M473 225c3.33301 67.333 -16.334 123.332 -59.001 167.999c-41.333 43.333 -92.333 65 -153 65c-64 0 -116 -20.667 -156 -62c-43.333 -45.333 -65 -100.666 -65 -165.999c0 -69.333 22 -126.333 66 -171c45.333 -45.333 102 -68 170 -68c63.333 0 119 18 167 54
c5.33301 4 5.33301 8.66699 0 14l-47 48c-4 4 -9 4 -15 0c-29.333 -20.667 -62.333 -31 -99 -31c-41.333 0 -75.666 11.667 -102.999 35c-24 22 -38 49.333 -42 82h325c6.66699 0 10 3.33301 10 10zM378 272.999l-241 0.000976562c6 32 20.333 58 43 78s49 30 79 30
c32 0 59.333 -10.333 82 -31c24 -20.667 36.333 -46.334 37 -77.001zM358 544l-58.999 127c-2.66699 6.66699 -6.33398 10 -11.001 10h-79c-8.66699 0 -10.667 -3.33301 -6 -10l99 -131c2.66699 -4 6.33398 -6 11.001 -6h38c7.33301 0 9.66602 3.33301 6.99902 10z" />
    <glyph glyph-name="eacute" unicode="&#xe9;" horiz-adv-x="513" 
d="M473 225c3.33301 67.333 -16.334 123.332 -59.001 167.999c-41.333 43.333 -92.333 65 -153 65c-64 0 -116 -20.667 -156 -62c-43.333 -45.333 -65 -100.666 -65 -165.999c0 -69.333 22 -126.333 66 -171c45.333 -45.333 102 -68 170 -68c63.333 0 119 18 167 54
c5.33301 4 5.33301 8.66699 0 14l-47 48c-4 4 -9 4 -15 0c-29.333 -20.667 -62.333 -31 -99 -31c-41.333 0 -75.666 11.667 -102.999 35c-24 22 -38 49.333 -42 82h325c6.66699 0 10 3.33301 10 10zM378 272.999l-241 0.000976562c6 32 20.333 58 43 78s49 30 79 30
c32 0 59.333 -10.333 82 -31c24 -20.667 36.333 -46.334 37 -77.001zM368 671c4.66699 6.66699 2.66895 10 -5.99805 10h-79c-4.66699 0 -8.33398 -3.33301 -11.001 -10l-59 -127c-2.66699 -6.66699 -0.333984 -10 6.99902 -10h38c4 0 7.66699 2 11 6z" />
    <glyph glyph-name="ecircumflex" unicode="&#xea;" horiz-adv-x="513" 
d="M473 225c3.33301 67.333 -16.334 123.332 -59.001 167.999c-41.333 43.333 -92.333 65 -153 65c-64 0 -116 -20.667 -156 -62c-43.333 -45.333 -65 -100.666 -65 -165.999c0 -69.333 22 -126.333 66 -171c45.333 -45.333 102 -68 170 -68c63.333 0 119 18 167 54
c5.33301 4 5.33301 8.66699 0 14l-47 48c-4 4 -9 4 -15 0c-29.333 -20.667 -62.333 -31 -99 -31c-41.333 0 -75.666 11.667 -102.999 35c-24 22 -38 49.333 -42 82h325c6.66699 0 10 3.33301 10 10zM378 272.999l-241 0.000976562c6 32 20.333 58 43 78s49 30 79 30
c32 0 59.333 -10.333 82 -31c24 -20.667 36.333 -46.334 37 -77.001zM400 540l-80.002 133c-3.33301 5.33301 -7 8 -11 8h-84c-4 0 -7.66699 -2.66699 -11 -8l-80 -133c-4 -6.66699 -2.33301 -10 5 -10h37c2.66699 0 6.33398 2.33301 11.001 7l80 83l80 -83
c4.66699 -4.66699 8.33398 -7 11.001 -7h37c7.33301 0 9 3.33301 5 10z" />
    <glyph glyph-name="edieresis" unicode="&#xeb;" horiz-adv-x="513" 
d="M473 225c3.33301 67.333 -16.334 123.332 -59.001 167.999c-41.333 43.333 -92.333 65 -153 65c-64 0 -116 -20.667 -156 -62c-43.333 -45.333 -65 -100.666 -65 -165.999c0 -69.333 22 -126.333 66 -171c45.333 -45.333 102 -68 170 -68c63.333 0 119 18 167 54
c5.33301 4 5.33301 8.66699 0 14l-47 48c-4 4 -9 4 -15 0c-29.333 -20.667 -62.333 -31 -99 -31c-41.333 0 -75.666 11.667 -102.999 35c-24 22 -38 49.333 -42 82h325c6.66699 0 10 3.33301 10 10zM378 272.999l-241 0.000976562c6 32 20.333 58 43 78s49 30 79 30
c32 0 59.333 -10.333 82 -31c24 -20.667 36.333 -46.334 37 -77.001zM406 628c0 14.667 -5.16699 27.167 -15.5 37.5s-22.833 15.5 -37.5 15.5s-27.167 -5.16699 -37.5 -15.5s-15.5 -22.833 -15.5 -37.5s5.16699 -27.167 15.5 -37.5s22.833 -15.5 37.5 -15.5
s27.167 5.16699 37.5 15.5s15.5 22.833 15.5 37.5zM232 628c0 14.667 -5.16699 27.167 -15.5 37.5s-22.833 15.5 -37.5 15.5s-27.167 -5.16699 -37.5 -15.5s-15.5 -22.833 -15.5 -37.5s5.16699 -27.167 15.5 -37.5s22.833 -15.5 37.5 -15.5s27.167 5.16699 37.5 15.5
s15.5 22.833 15.5 37.5z" />
    <glyph glyph-name="igrave" unicode="&#xec;" horiz-adv-x="249" 
d="M169 10v429c0 6.66699 -3.33301 10 -10 10h-69c-6.66699 0 -10 -3.33301 -10 -10v-429c0 -6.66699 3.33301 -10 10 -10h69c6.66699 -0 10 3.33301 10 10zM195 544l-58.999 127c-2.66699 6.66699 -6.33398 10 -11.001 10h-79c-8.66699 0 -10.667 -3.33301 -6 -10l99 -131
c2.66699 -4 6.33398 -6 11.001 -6h38c7.33301 0 9.66602 3.33301 6.99902 10z" />
    <glyph glyph-name="iacute" unicode="&#xed;" horiz-adv-x="249" 
d="M169 10v429c0 6.66699 -3.33301 10 -10 10h-69c-6.66699 0 -10 -3.33301 -10 -10v-429c0 -6.66699 3.33301 -10 10 -10h69c6.66699 -0 10 3.33301 10 10zM209 671c4.66699 6.66699 2.66895 10 -5.99805 10h-79c-4.66699 0 -8.33398 -3.33301 -11.001 -10l-59 -127
c-2.66699 -6.66699 -0.333984 -10 6.99902 -10h38c4 0 7.66699 2 11 6z" />
    <glyph glyph-name="icircumflex" unicode="&#xee;" horiz-adv-x="249" 
d="M169 10v429c0 6.66699 -3.33301 10 -10 10h-69c-6.66699 0 -10 -3.33301 -10 -10v-429c0 -6.66699 3.33301 -10 10 -10h69c6.66699 -0 10 3.33301 10 10zM260 540l-80.002 133c-3.33301 5.33301 -7 8 -11 8h-84c-4 0 -7.66699 -2.66699 -11 -8l-80 -133
c-4 -6.66699 -2.33301 -10 5 -10h37c2.66699 0 6.33398 2.33301 11.001 7l80 83l80 -83c4.66699 -4.66699 8.33398 -7 11.001 -7h37c7.33301 0 9 3.33301 5 10z" />
    <glyph glyph-name="idieresis" unicode="&#xef;" horiz-adv-x="249" 
d="M169 10v429c0 6.66699 -3.33301 10 -10 10h-69c-6.66699 0 -10 -3.33301 -10 -10v-429c0 -6.66699 3.33301 -10 10 -10h69c6.66699 -0 10 3.33301 10 10zM266 628c0 14.667 -5.16699 27.167 -15.5 37.5s-22.833 15.5 -37.5 15.5s-27.167 -5.16699 -37.5 -15.5
s-15.5 -22.833 -15.5 -37.5s5.16699 -27.167 15.5 -37.5s22.833 -15.5 37.5 -15.5s27.167 5.16699 37.5 15.5s15.5 22.833 15.5 37.5zM92 628c0 14.667 -5.16699 27.167 -15.5 37.5s-22.833 15.5 -37.5 15.5s-27.167 -5.16699 -37.5 -15.5s-15.5 -22.833 -15.5 -37.5
s5.16699 -27.167 15.5 -37.5s22.833 -15.5 37.5 -15.5s27.167 5.16699 37.5 15.5s15.5 22.833 15.5 37.5z" />
    <glyph glyph-name="eth" unicode="&#xf0;" 
 />
    <glyph glyph-name="ntilde" unicode="&#xf1;" horiz-adv-x="528" 
d="M458 10v244c0 58.667 -15 105.667 -45 141c-36 42 -79.333 63 -130 63c-47.333 0 -85.333 -13 -114 -39v20c0 6.66699 -3.33301 10 -10 10h-69c-6.66699 0 -10 -3.33301 -10 -10v-429c0 -6.66699 3.33301 -10 10 -10h69c6.66699 -0 10 3.33301 10 10v224
c0 16.667 0.666992 31 2 43s3.5 22.333 6.5 31s6.83301 16.167 11.5 22.5s10.667 12.5 18 18.5c17.333 14.667 38 22 62 22c34.667 0 62 -12.667 82 -38c12 -15.333 18 -45.333 18 -90v-233c0 -6.66699 3.33301 -10 10 -10h69c6.66699 -0 10 3.33301 10 10zM413 660
c0.666992 6.66699 -1.99805 10 -7.99805 10h-24c-6.66699 0 -10 -3.66699 -10 -11c-8 -18 -19 -27 -33 -27c-6.66699 0 -28 5.66699 -64 17c-34 12 -60.333 18 -79 18c-42.667 0 -68 -35 -76 -105c0 -6.66699 2.66699 -10 8 -10h25c3.33301 0 6.66602 3.66699 9.99902 11
c4.66699 16.667 15.667 25 33 25c12 0 33 -6 63 -18c30.667 -12 54.667 -18 72 -18c26 0 46.333 12.333 61 37c11.333 18 18.666 41.667 21.999 71z" />
    <glyph glyph-name="ograve" unicode="&#xf2;" horiz-adv-x="552" 
d="M512 224c0 65.333 -23.332 120.333 -69.999 165c-46 46 -101.333 69 -166 69s-120.334 -23 -167.001 -69c-46 -45.333 -69 -100.333 -69 -165c0 -64 23 -119 69 -165c47.333 -45.333 103 -68 167 -68s119.333 22.667 166 68c46.667 46 70 101 70 165zM423.001 224
c0 -42 -14.334 -77.333 -43.001 -106c-29.333 -29.333 -64 -44 -104 -44s-74.667 14.667 -104 44c-28.667 28.667 -43 64 -43 106s14.333 77.333 43 106c28.667 30 63.334 45 104.001 45c40 0 74.667 -15 104 -45c28.667 -28.667 43 -64 43 -106zM371 544l-58.999 127
c-2.66699 6.66699 -6.33398 10 -11.001 10h-79c-8.66699 0 -10.667 -3.33301 -6 -10l99 -131c2.66699 -4 6.33398 -6 11.001 -6h38c7.33301 0 9.66602 3.33301 6.99902 10z" />
    <glyph glyph-name="oacute" unicode="&#xf3;" horiz-adv-x="552" 
d="M512 224c0 65.333 -23.332 120.333 -69.999 165c-46 46 -101.333 69 -166 69s-120.334 -23 -167.001 -69c-46 -45.333 -69 -100.333 -69 -165c0 -64 23 -119 69 -165c47.333 -45.333 103 -68 167 -68s119.333 22.667 166 68c46.667 46 70 101 70 165zM423.001 224
c0 -42 -14.334 -77.333 -43.001 -106c-29.333 -29.333 -64 -44 -104 -44s-74.667 14.667 -104 44c-28.667 28.667 -43 64 -43 106s14.333 77.333 43 106c28.667 30 63.334 45 104.001 45c40 0 74.667 -15 104 -45c28.667 -28.667 43 -64 43 -106zM377 671
c4.66699 6.66699 2.66895 10 -5.99805 10h-79c-4.66699 0 -8.33398 -3.33301 -11.001 -10l-59 -127c-2.66699 -6.66699 -0.333984 -10 6.99902 -10h38c4 0 7.66699 2 11 6z" />
    <glyph glyph-name="ocircumflex" unicode="&#xf4;" horiz-adv-x="552" 
d="M512 224c0 65.333 -23.332 120.333 -69.999 165c-46 46 -101.333 69 -166 69s-120.334 -23 -167.001 -69c-46 -45.333 -69 -100.333 -69 -165c0 -64 23 -119 69 -165c47.333 -45.333 103 -68 167 -68s119.333 22.667 166 68c46.667 46 70 101 70 165zM423.001 224
c0 -42 -14.334 -77.333 -43.001 -106c-29.333 -29.333 -64 -44 -104 -44s-74.667 14.667 -104 44c-28.667 28.667 -43 64 -43 106s14.333 77.333 43 106c28.667 30 63.334 45 104.001 45c40 0 74.667 -15 104 -45c28.667 -28.667 43 -64 43 -106zM415 540l-80.002 133
c-3.33301 5.33301 -7 8 -11 8h-84c-4 0 -7.66699 -2.66699 -11 -8l-80 -133c-4 -6.66699 -2.33301 -10 5 -10h37c2.66699 0 6.33398 2.33301 11.001 7l80 83l80 -83c4.66699 -4.66699 8.33398 -7 11.001 -7h37c7.33301 0 9 3.33301 5 10z" />
    <glyph glyph-name="otilde" unicode="&#xf5;" horiz-adv-x="552" 
d="M512 224c0 65.333 -23.332 120.333 -69.999 165c-46 46 -101.333 69 -166 69s-120.334 -23 -167.001 -69c-46 -45.333 -69 -100.333 -69 -165c0 -64 23 -119 69 -165c47.333 -45.333 103 -68 167 -68s119.333 22.667 166 68c46.667 46 70 101 70 165zM423.001 224
c0 -42 -14.334 -77.333 -43.001 -106c-29.333 -29.333 -64 -44 -104 -44s-74.667 14.667 -104 44c-28.667 28.667 -43 64 -43 106s14.333 77.333 43 106c28.667 30 63.334 45 104.001 45c40 0 74.667 -15 104 -45c28.667 -28.667 43 -64 43 -106zM441 660
c0.666992 6.66699 -1.99805 10 -7.99805 10h-24c-6.66699 0 -10 -3.66699 -10 -11c-8 -18 -19 -27 -33 -27c-6.66699 0 -28 5.66699 -64 17c-34 12 -60.333 18 -79 18c-42.667 0 -68 -35 -76 -105c0 -6.66699 2.66699 -10 8 -10h25c3.33301 0 6.66602 3.66699 9.99902 11
c4.66699 16.667 15.667 25 33 25c12 0 33 -6 63 -18c30.667 -12 54.667 -18 72 -18c26 0 46.333 12.333 61 37c11.333 18 18.666 41.667 21.999 71z" />
    <glyph glyph-name="odieresis" unicode="&#xf6;" horiz-adv-x="552" 
d="M512 224c0 65.333 -23.332 120.333 -69.999 165c-46 46 -101.333 69 -166 69s-120.334 -23 -167.001 -69c-46 -45.333 -69 -100.333 -69 -165c0 -64 23 -119 69 -165c47.333 -45.333 103 -68 167 -68s119.333 22.667 166 68c46.667 46 70 101 70 165zM423.001 224
c0 -42 -14.334 -77.333 -43.001 -106c-29.333 -29.333 -64 -44 -104 -44s-74.667 14.667 -104 44c-28.667 28.667 -43 64 -43 106s14.333 77.333 43 106c28.667 30 63.334 45 104.001 45c40 0 74.667 -15 104 -45c28.667 -28.667 43 -64 43 -106zM419 628
c0 14.667 -5.16699 27.167 -15.5 37.5s-22.833 15.5 -37.5 15.5s-27.167 -5.16699 -37.5 -15.5s-15.5 -22.833 -15.5 -37.5s5.16699 -27.167 15.5 -37.5s22.833 -15.5 37.5 -15.5s27.167 5.16699 37.5 15.5s15.5 22.833 15.5 37.5zM245 628
c0 14.667 -5.16699 27.167 -15.5 37.5s-22.833 15.5 -37.5 15.5s-27.167 -5.16699 -37.5 -15.5s-15.5 -22.833 -15.5 -37.5s5.16699 -27.167 15.5 -37.5s22.833 -15.5 37.5 -15.5s27.167 5.16699 37.5 15.5s15.5 22.833 15.5 37.5z" />
    <glyph glyph-name="divide" unicode="&#xf7;" 
 />
    <glyph glyph-name="oslash" unicode="&#xf8;" horiz-adv-x="562" 
d="M517 224c0 63.333 -22.332 117.667 -66.999 163l42 49c4 4.66699 3.66699 9.33398 -1 14.001l-17 15c-4.66699 4 -9.33398 3.66699 -14.001 -1l-43 -49c-40.667 28.667 -86 43 -136 43c-64.667 0 -120.334 -23 -167.001 -69c-46 -45.333 -69 -100.333 -69 -165
c0 -64 22.667 -118.667 68 -164l-43 -51c-4 -5.33301 -3.66699 -10 1 -14l17 -15c4.66699 -4.66699 9.33398 -4.33398 14.001 0.999023l44 52c40.667 -28 85.667 -42 135 -42c64 0 119.333 22.667 166 68c46.667 46 70 101 70 165zM428.001 224.001
c0 -42 -14.333 -77.334 -43 -106.001c-29.333 -29.333 -64 -44 -104 -44c-28 0 -54.333 8 -79 24l191 223c23.333 -27.333 35 -59.666 35 -96.999zM362.001 350l-192.001 -224.001c-24 26.667 -36 59.334 -36 98.001c0 42 14.333 77.333 43 106
c28.667 30 63.334 45 104.001 45c30.667 0 57.667 -8.33301 81 -25z" />
    <glyph glyph-name="ugrave" unicode="&#xf9;" horiz-adv-x="519" 
d="M449 183l0.000976562 256c0 6.66699 -3.33301 10 -10 10h-69c-6.66699 0 -10 -3.33301 -10 -10v-235c0 -38 -3 -64.333 -9 -79c-13.333 -34 -44 -51 -92 -51c-48.667 0 -79.334 17 -92.001 51c-5.33301 14.667 -8 41 -8 79v235c0 6.66699 -3.33301 10 -10 10h-69
c-6.66699 0 -10 -3.33301 -10 -10v-256c0 -50 10 -90.333 30 -121c30 -47.333 83.333 -71 160 -71c76 0 129 23.667 159 71c20 30.667 30 71 30 121zM330.001 544l-58.999 127c-2.66699 6.66699 -6.33398 10 -11.001 10h-79c-8.66699 0 -10.667 -3.33301 -6 -10l99 -131
c2.66699 -4 6.33398 -6 11.001 -6h38c7.33301 0 9.66602 3.33301 6.99902 10z" />
    <glyph glyph-name="uacute" unicode="&#xfa;" horiz-adv-x="519" 
d="M449 183l0.000976562 256c0 6.66699 -3.33301 10 -10 10h-69c-6.66699 0 -10 -3.33301 -10 -10v-235c0 -38 -3 -64.333 -9 -79c-13.333 -34 -44 -51 -92 -51c-48.667 0 -79.334 17 -92.001 51c-5.33301 14.667 -8 41 -8 79v235c0 6.66699 -3.33301 10 -10 10h-69
c-6.66699 0 -10 -3.33301 -10 -10v-256c0 -50 10 -90.333 30 -121c30 -47.333 83.333 -71 160 -71c76 0 129 23.667 159 71c20 30.667 30 71 30 121zM360.001 671c4.66699 6.66699 2.66895 10 -5.99805 10h-79c-4.66699 0 -8.33398 -3.33301 -11.001 -10l-59 -127
c-2.66699 -6.66699 -0.333984 -10 6.99902 -10h38c4 0 7.66699 2 11 6z" />
    <glyph glyph-name="ucircumflex" unicode="&#xfb;" horiz-adv-x="519" 
d="M449 183l0.000976562 256c0 6.66699 -3.33301 10 -10 10h-69c-6.66699 0 -10 -3.33301 -10 -10v-235c0 -38 -3 -64.333 -9 -79c-13.333 -34 -44 -51 -92 -51c-48.667 0 -79.334 17 -92.001 51c-5.33301 14.667 -8 41 -8 79v235c0 6.66699 -3.33301 10 -10 10h-69
c-6.66699 0 -10 -3.33301 -10 -10v-256c0 -50 10 -90.333 30 -121c30 -47.333 83.333 -71 160 -71c76 0 129 23.667 159 71c20 30.667 30 71 30 121zM395.001 540l-80.002 133c-3.33301 5.33301 -7 8 -11 8h-84c-4 0 -7.66699 -2.66699 -11 -8l-80 -133
c-4 -6.66699 -2.33301 -10 5 -10h37c2.66699 0 6.33398 2.33301 11.001 7l80 83l80 -83c4.66699 -4.66699 8.33398 -7 11.001 -7h37c7.33301 0 9 3.33301 5 10z" />
    <glyph glyph-name="udieresis" unicode="&#xfc;" horiz-adv-x="519" 
d="M449 183l0.000976562 256c0 6.66699 -3.33301 10 -10 10h-69c-6.66699 0 -10 -3.33301 -10 -10v-235c0 -38 -3 -64.333 -9 -79c-13.333 -34 -44 -51 -92 -51c-48.667 0 -79.334 17 -92.001 51c-5.33301 14.667 -8 41 -8 79v235c0 6.66699 -3.33301 10 -10 10h-69
c-6.66699 0 -10 -3.33301 -10 -10v-256c0 -50 10 -90.333 30 -121c30 -47.333 83.333 -71 160 -71c76 0 129 23.667 159 71c20 30.667 30 71 30 121zM402.001 628c0 14.667 -5.16699 27.167 -15.5 37.5s-22.833 15.5 -37.5 15.5s-27.167 -5.16699 -37.5 -15.5
s-15.5 -22.833 -15.5 -37.5s5.16699 -27.167 15.5 -37.5s22.833 -15.5 37.5 -15.5s27.167 5.16699 37.5 15.5s15.5 22.833 15.5 37.5zM228.001 628c0 14.667 -5.16699 27.167 -15.5 37.5s-22.833 15.5 -37.5 15.5s-27.167 -5.16699 -37.5 -15.5s-15.5 -22.833 -15.5 -37.5
s5.16699 -27.167 15.5 -37.5s22.833 -15.5 37.5 -15.5s27.167 5.16699 37.5 15.5s15.5 22.833 15.5 37.5z" />
    <glyph glyph-name="yacute" unicode="&#xfd;" 
 />
    <glyph glyph-name="thorn" unicode="&#xfe;" 
 />
    <glyph glyph-name="ydieresis" unicode="&#xff;" horiz-adv-x="415" 
d="M434 435c3.33301 9.33301 1.33105 13.998 -6.00195 13.998h-79c-8 0 -12.333 -2.33301 -13 -7l-71 -226l-33 -106l-79.5 210.5l-45.5 121.5c-2 4.66699 -6.33301 7 -13 7h-82c-8.66699 0 -11 -4.66699 -7 -14l183 -442c-13.333 -44.667 -33.666 -78.667 -60.999 -102
c-25.333 -21.333 -51.666 -32 -78.999 -32c-6.66699 0 -10 -3.33301 -10 -10v-68c0 -7.33301 3.33301 -10.666 10 -9.99902c57.333 2.66699 104.333 21.334 141 56.001c34 32.667 62.667 83 86 151zM353.998 627.998c0 14.667 -5.16699 27.167 -15.5 37.5
s-22.833 15.5 -37.5 15.5s-27.167 -5.16699 -37.5 -15.5s-15.5 -22.833 -15.5 -37.5s5.16699 -27.167 15.5 -37.5s22.833 -15.5 37.5 -15.5s27.167 5.16699 37.5 15.5s15.5 22.833 15.5 37.5zM179.998 627.998c0 14.667 -5.16699 27.167 -15.5 37.5s-22.833 15.5 -37.5 15.5
s-27.167 -5.16699 -37.5 -15.5s-15.5 -22.833 -15.5 -37.5s5.16699 -27.167 15.5 -37.5s22.833 -15.5 37.5 -15.5s27.167 5.16699 37.5 15.5s15.5 22.833 15.5 37.5z" />
    <glyph glyph-name="dotlessi" unicode="&#x131;" horiz-adv-x="249" 
d="M169 10v429c0 6.66699 -3.33301 10 -10 10h-69c-6.66699 0 -10 -3.33301 -10 -10v-429c0 -6.66699 3.33301 -10 10 -10h69c6.66699 -0 10 3.33301 10 10z" />
    <glyph glyph-name="Lslash" unicode="&#x141;" 
 />
    <glyph glyph-name="lslash" unicode="&#x142;" 
 />
    <glyph glyph-name="OE" unicode="&#x152;" horiz-adv-x="1186" 
d="M1166 10l-0.000976562 64.001c0 6.66699 -3.33301 10 -10 10h-390v216h337c6.66699 0 10 3.33301 10 10v64c0 6.66699 -3.33301 10 -10 10h-337v213h390c6.66699 0 10 3.33301 10 10v64c0 6.66699 -3.33301 10 -10 10h-474c-6.66699 0 -10 -3.33301 -10 -10v-94
c-71.333 76 -157.666 114 -258.999 114c-98 0 -181.333 -34.333 -250 -103s-103 -151.334 -103 -248.001s34.333 -179 103 -247s152 -102 250 -102c102.667 0 189 37.667 259 113v-94c0 -6.66699 3.33301 -10 10 -10h474c6.66699 -0 10 3.33301 10 10zM671.999 340.001
c0 -72 -25.332 -133.334 -75.999 -184.001s-111.667 -76 -183 -76c-72 0 -133.333 25.333 -184 76s-76 112 -76 184s25.333 133.333 76 184c51.333 51.333 112.666 77 183.999 77c70 0 130.667 -25.667 182 -77s77 -112.666 77 -183.999z" />
    <glyph glyph-name="oe" unicode="&#x153;" horiz-adv-x="926" 
d="M861 225c3.33301 67.333 -16.334 123.333 -59.001 168c-41.333 43.333 -92.333 65 -153 65c-78 0 -137.667 -29.667 -179 -89c-47.333 59.333 -108.666 89 -183.999 89c-64.667 0 -120.334 -23 -167.001 -69c-46 -45.333 -69 -100.333 -69 -165c0 -64 23 -119 69 -165
c47.333 -45.333 103 -68 167 -68c78 0 140.667 30.667 188 92c46 -61.333 109.333 -92 190 -92c63.333 0 119 18 167 54c5.33301 4 5.33301 8.66699 0 14l-47 48c-4 4 -9 4 -15 0c-29.333 -20.667 -62.333 -31 -99 -31c-41.333 0 -75.666 11.667 -102.999 35
c-24 22 -38 49.333 -42 82h325c6.66699 0 10 3.33301 10 10zM766 273l-241 0.000976562c6 32 20.333 58 43 78s49 30 79 30c32 0 59.333 -10.333 82 -31c24 -20.667 36.333 -46.334 37 -77.001zM433 224.001c0 -42 -14.334 -77.333 -43.001 -106
c-29.333 -29.333 -64 -44 -104 -44s-74.667 14.667 -104 44c-28.667 28.667 -43 64 -43 106s14.333 77.333 43 106c28.667 30 63.334 45 104.001 45c40 0 74.667 -15 104 -45c28.667 -28.667 43 -64 43 -106z" />
    <glyph glyph-name="Scaron" unicode="&#x160;" 
 />
    <glyph glyph-name="scaron" unicode="&#x161;" 
 />
    <glyph glyph-name="Ydieresis" unicode="&#x178;" horiz-adv-x="595" 
d="M602 668c2 2 3 4.66699 3 8c-1.33301 3.33301 -3.66602 5 -6.99902 5h-96c-6.66699 0 -12.334 -3.33301 -17.001 -10l-188 -265l-186 265c-4.66699 6.66699 -10.334 10 -17.001 10h-96c-3.33301 0 -5.66602 -1.66699 -6.99902 -5c0 -3.33301 1 -6 3 -8l257 -346v-312
c0 -6.66699 3.33301 -10 10 -10h74c6.66699 -0 10 3.33301 10 10v312zM439 812c0 14.667 -5.16699 27.167 -15.5 37.5s-22.833 15.5 -37.5 15.5s-27.167 -5.16699 -37.5 -15.5s-15.5 -22.833 -15.5 -37.5s5.16699 -27.167 15.5 -37.5s22.833 -15.5 37.5 -15.5
s27.167 5.16699 37.5 15.5s15.5 22.833 15.5 37.5zM265 812c0 14.667 -5.16699 27.167 -15.5 37.5s-22.833 15.5 -37.5 15.5s-27.167 -5.16699 -37.5 -15.5s-15.5 -22.833 -15.5 -37.5s5.16699 -27.167 15.5 -37.5s22.833 -15.5 37.5 -15.5s27.167 5.16699 37.5 15.5
s15.5 22.833 15.5 37.5z" />
    <glyph glyph-name="Zcaron" unicode="&#x17d;" 
 />
    <glyph glyph-name="zcaron" unicode="&#x17e;" 
 />
    <glyph glyph-name="florin" unicode="&#x192;" 
 />
    <glyph glyph-name="circumflex" unicode="&#x2c6;" horiz-adv-x="333" 
d="M300 540l-80.002 133c-3.33301 5.33301 -7 8 -11 8h-84c-4 0 -7.66699 -2.66699 -11 -8l-80 -133c-4 -6.66699 -2.33301 -10 5 -10h37c2.66699 0 6.33398 2.33301 11.001 7l80 83l80 -83c4.66699 -4.66699 8.33398 -7 11.001 -7h37c7.33301 0 9 3.33301 5 10z" />
    <glyph glyph-name="caron" unicode="&#x2c7;" 
 />
    <glyph glyph-name="breve" unicode="&#x2d8;" 
 />
    <glyph glyph-name="dotaccent" unicode="&#x2d9;" 
 />
    <glyph glyph-name="ring" unicode="&#x2da;" horiz-adv-x="333" 
d="M260 598c0 12.667 -2.5 24.667 -7.5 36s-11.667 21.166 -20 29.499s-18.166 15 -29.499 20s-23.333 7.5 -36 7.5s-24.667 -2.5 -36 -7.5s-21.166 -11.667 -29.499 -20s-15 -18.166 -20 -29.499s-7.5 -23.333 -7.5 -36s2.5 -24.667 7.5 -36s11.667 -21.166 20 -29.499
s18.166 -15 29.499 -20s23.333 -7.5 36 -7.5s24.667 2.5 36 7.5s21.166 11.667 29.499 20s15 18.166 20 29.499s7.5 23.333 7.5 36zM216 598c0 -13.333 -4.83301 -24.833 -14.5 -34.5s-21.167 -14.5 -34.5 -14.5s-24.833 4.83301 -34.5 14.5s-14.5 21.167 -14.5 34.5
s4.83301 24.833 14.5 34.5s21.167 14.5 34.5 14.5s24.833 -4.83301 34.5 -14.5s14.5 -21.167 14.5 -34.5z" />
    <glyph glyph-name="ogonek" unicode="&#x2db;" 
 />
    <glyph glyph-name="tilde" unicode="&#x2dc;" horiz-adv-x="333" 
d="M315 660c0.666992 6.66699 -1.99805 10 -7.99805 10h-24c-6.66699 0 -10 -3.66699 -10 -11c-8 -18 -19 -27 -33 -27c-6.66699 0 -28 5.66699 -64 17c-34 12 -60.333 18 -79 18c-42.667 0 -68 -35 -76 -105c0 -6.66699 2.66699 -10 8 -10h25
c3.33301 0 6.66602 3.66699 9.99902 11c4.66699 16.667 15.667 25 33 25c12 0 33 -6 63 -18c30.667 -12 54.667 -18 72 -18c26 0 46.333 12.333 61 37c11.333 18 18.666 41.667 21.999 71z" />
    <glyph glyph-name="hungarumlaut" unicode="&#x2dd;" 
 />
    <glyph glyph-name="Delta" unicode="&#x394;" 
 />
    <glyph glyph-name="Delta" unicode="&#x2206;" 
 />
    <glyph glyph-name="Omega" unicode="&#x3a9;" 
 />
    <glyph glyph-name="Omega" unicode="&#x2126;" 
 />
    <glyph glyph-name="pi" unicode="&#x3c0;" 
 />
    <glyph glyph-name="endash" unicode="&#x2013;" 
d="M509 231v44c0 6.66699 -3.33301 10 -10 10h-498c-6.66699 0 -10 -3.33301 -10 -10v-44c0 -6.66699 3.33301 -10 10 -10h498c6.66699 0 10 3.33301 10 10z" />
    <glyph glyph-name="emdash" unicode="&#x2014;" horiz-adv-x="1000" 
d="M1010 231v44c0 6.66699 -3.33301 10 -10 10h-999c-6.66699 0 -10 -3.33301 -10 -10v-44c0 -6.66699 3.33301 -10 10 -10h999c6.66699 0 10 3.33301 10 10z" />
    <glyph glyph-name="quoteleft" unicode="&#x2018;" horiz-adv-x="281" 
d="M178 674l-6 12.001c-0.666992 2.66699 -3.33398 4 -8.00098 4c-76 -21.333 -114 -71.666 -114 -150.999c0 -28 6.16699 -51.167 18.5 -69.5s28.5 -27.5 48.5 -27.5c40 0 60 21.333 60 64c0 35.333 -17.667 55.666 -53 60.999c-1.33301 21.333 1.5 39 8.5 53
s20.5 28.667 40.5 44c4.66699 3.33301 6.33398 6.66602 5.00098 9.99902z" />
    <glyph glyph-name="quoteright" unicode="&#x2019;" horiz-adv-x="238" 
d="M173 593c0 28 -6.16699 51.166 -18.5 69.499s-28.5 27.5 -48.5 27.5c-40 0 -60 -21 -60 -63c0 -36 17.667 -56.667 53 -62c1.33301 -20.667 -1.5 -38 -8.5 -52s-20.5 -29 -40.5 -45c-4 -3.33301 -5.66699 -6.66602 -5 -9.99902l6 -11c2 -3.33301 4.66699 -5 8 -5
c76 20.667 114 71 114 151z" />
    <glyph glyph-name="quotesinglbase" unicode="&#x201a;" horiz-adv-x="219" 
d="M175 36c0 28 -6.16699 51.165 -18.5 69.498s-28.5 27.5 -48.5 27.5c-40 0 -60 -21.333 -60 -64c0 -35.333 17.667 -55.666 53 -60.999c1.33301 -21.333 -1.5 -39 -8.5 -53s-20.5 -28.667 -40.5 -44c-4.66699 -3.33301 -6.33398 -6.66602 -5.00098 -9.99902l6 -12
c0.666992 -2.66699 3.33398 -4 8.00098 -4c76 20.667 114 71 114 151z" />
    <glyph glyph-name="quotedblleft" unicode="&#x201c;" 
d="M397 674l-6 12.001c-0.666992 2.66699 -3.33398 4 -8.00098 4c-76 -21.333 -114 -71.666 -114 -150.999c0 -28 6.16699 -51.167 18.5 -69.5s28.5 -27.5 48.5 -27.5c40 0 60 21.333 60 64c0 35.333 -17.667 55.666 -53 60.999c-1.33301 21.333 1.5 39 8.5 53
s20.5 28.667 40.5 44c4.66699 3.33301 6.33398 6.66602 5.00098 9.99902zM178 674.001l-6 12.001c-0.666992 2.66699 -3.33398 4 -8.00098 4c-76 -21.333 -114 -71.666 -114 -150.999c0 -28 6.16699 -51.167 18.5 -69.5s28.5 -27.5 48.5 -27.5c40 0 60 21.333 60 64
c0 35.333 -17.667 55.666 -53 60.999c-1.33301 21.333 1.5 39 8.5 53s20.5 28.667 40.5 44c4.66699 3.33301 6.33398 6.66602 5.00098 9.99902z" />
    <glyph glyph-name="quotedblright" unicode="&#x201d;" 
d="M397 593c0 28 -6.16699 51.166 -18.5 69.499s-28.5 27.5 -48.5 27.5c-40 0 -60 -21 -60 -63c0 -36 17.667 -56.667 53 -62c1.33301 -20.667 -1.5 -38 -8.5 -52s-20.5 -29 -40.5 -45c-4 -3.33301 -5.66699 -6.66602 -5 -9.99902l6 -11c2 -3.33301 4.66699 -5 8 -5
c76 20.667 114 71 114 151zM178 592.999c0 28 -6.16699 51.166 -18.5 69.499s-28.5 27.5 -48.5 27.5c-40 0 -60 -21 -60 -63c0 -36 17.667 -56.667 53 -62c1.33301 -20.667 -1.5 -38 -8.5 -52s-20.5 -29 -40.5 -45c-4 -3.33301 -5.66699 -6.66602 -5 -9.99902l6 -11
c2 -3.33301 4.66699 -5 8 -5c76 20.667 114 71 114 151z" />
    <glyph glyph-name="quotedblbase" unicode="&#x201e;" 
d="M397 36c0 28 -6.16699 51.165 -18.5 69.498s-28.5 27.5 -48.5 27.5c-40 0 -60 -21.333 -60 -64c0 -35.333 17.667 -55.666 53 -60.999c1.33301 -21.333 -1.5 -39 -8.5 -53s-20.5 -28.667 -40.5 -44c-4.66699 -3.33301 -6.33398 -6.66602 -5.00098 -9.99902l6 -12
c0.666992 -2.66699 3.33398 -4 8.00098 -4c76 20.667 114 71 114 151zM178 35.998c0 28 -6.16699 51.165 -18.5 69.498s-28.5 27.5 -48.5 27.5c-40 0 -60 -21.333 -60 -64c0 -35.333 17.667 -55.666 53 -60.999c1.33301 -21.333 -1.5 -39 -8.5 -53s-20.5 -28.667 -40.5 -44
c-4.66699 -3.33301 -6.33398 -6.66602 -5.00098 -9.99902l6 -12c0.666992 -2.66699 3.33398 -4 8.00098 -4c76 20.667 114 71 114 151z" />
    <glyph glyph-name="dagger" unicode="&#x2020;" horiz-adv-x="490" 
d="M463 354l-0.00195312 74c0 7.33301 -3.33301 10.666 -10 9.99902l-180 -18l19 260c0.666992 6.66699 -2.66602 10 -9.99902 10h-74c-7.33301 0 -10.666 -3.33301 -9.99902 -10l19 -260l-180 18c-6.66699 0.666992 -10 -2.66602 -10 -9.99902v-74
c0 -7.33301 3.33301 -10.666 10 -9.99902l180 18l-19 -581c0 -6.66699 3.33301 -10 10 -10h74c6.66699 0 10 3.33301 10 10l-19 581l180 -18c6.66699 -0.666992 10 2.66602 10 9.99902z" />
    <glyph glyph-name="daggerdbl" unicode="&#x2021;" horiz-adv-x="490" 
d="M463 33v74c0 7.33301 -3.33301 10.666 -10 9.99902l-180 -18l4 132l-4 131l180 -18c6.66699 -0.666992 10 2.66602 10 9.99902v74c0 7.33301 -3.33301 10.666 -10 9.99902l-180 -18l19 260c0.666992 6.66699 -2.66602 10 -9.99902 10h-74
c-7.33301 0 -10.666 -3.33301 -9.99902 -10l19 -260l-180 18c-6.66699 0.666992 -10 -2.66602 -10 -9.99902v-74c0 -7.33301 3.33301 -10.666 10 -9.99902l180 18l-4 -131l4 -132l-180 18c-6.66699 0.666992 -10 -2.66602 -10 -9.99902v-74
c0 -7.33301 3.33301 -10.666 10 -9.99902l180 18l-19 -260c-0.666992 -6.66699 2.66602 -10 9.99902 -10h74c7.33301 0 10.666 3.33301 9.99902 10l-19 260l180 -18c6.66699 -0.666992 10 2.66602 10 9.99902z" />
    <glyph glyph-name="bullet" unicode="&#x2022;" horiz-adv-x="354" 
d="M301 341c0 34 -12.333 63 -37 87c-24 24.667 -53 37 -87 37s-63.333 -12.333 -88 -37c-24 -24 -36 -53 -36 -87s12 -63.333 36 -88c24.667 -24 54 -36 88 -36s63 12 87 36c24.667 24.667 37 54 37 88z" />
    <glyph glyph-name="ellipsis" unicode="&#x2026;" horiz-adv-x="887" 
d="M837 51c0 16.667 -5.83301 30.834 -17.5 42.501s-25.834 17.5 -42.501 17.5s-30.834 -5.83301 -42.501 -17.5s-17.5 -25.834 -17.5 -42.501s5.83301 -30.834 17.5 -42.501s25.834 -17.5 42.501 -17.5s30.834 5.83301 42.501 17.5s17.5 25.834 17.5 42.501zM503 51
c0 16.667 -5.83301 30.834 -17.5 42.501s-25.834 17.5 -42.501 17.5s-30.834 -5.83301 -42.501 -17.5s-17.5 -25.834 -17.5 -42.501s5.83301 -30.834 17.5 -42.501s25.834 -17.5 42.501 -17.5s30.834 5.83301 42.501 17.5s17.5 25.834 17.5 42.501zM169 51
c0 16.667 -5.83301 30.834 -17.5 42.501s-25.834 17.5 -42.501 17.5s-30.834 -5.83301 -42.501 -17.5s-17.5 -25.834 -17.5 -42.501s5.83301 -30.834 17.5 -42.501s25.834 -17.5 42.501 -17.5s30.834 5.83301 42.501 17.5s17.5 25.834 17.5 42.501z" />
    <glyph glyph-name="perthousand" unicode="&#x2030;" horiz-adv-x="1029" 
d="M1003 143c0 42 -15.333 78 -46 108c-30 30 -65.667 45 -107 45c-42 0 -78 -15 -108 -45s-45 -66 -45 -108c0 -42.667 15 -79 45 -109c30.667 -29.333 66.667 -44 108 -44s77 15 107 45c30.667 30 46 66 46 108zM331 537c0 42 -15.333 78 -46 108
c-30 30 -65.667 45 -107 45c-42 0 -78 -15 -108 -45s-45 -66 -45 -108c0 -42.667 15 -79 45 -109c30.667 -29.333 66.667 -44 108 -44s77 15 107 45c30.667 30 46 66 46 108zM606 680c4 6.66699 2 10 -6 10h-79c-2.66699 0 -6 -3.33301 -10 -10l-436 -679
c-4 -6.66699 -2.66699 -10 4 -10h81c2.66699 0 6 3.33301 10 10zM655 143c0 42 -15.333 78 -46 108c-30 30 -65.667 45 -107 45c-42 0 -78 -15 -108 -45s-45 -66 -45 -108c0 -42.667 15 -79 45 -109c30.667 -29.333 66.667 -44 108 -44s77 15 107 45c30.667 30 46 66 46 108
zM929 143c0 -22 -7.66699 -40.667 -23 -56s-34 -23 -56 -23c-21.333 0 -39.833 7.66699 -55.5 23s-23.5 34 -23.5 56c0 21.333 7.83301 39.833 23.5 55.5s34.167 23.5 55.5 23.5c22 0 40.667 -7.83301 56 -23.5s23 -34.167 23 -55.5zM257 537
c0 -22 -7.66699 -40.667 -23 -56s-34 -23 -56 -23c-21.333 0 -39.833 7.66699 -55.5 23s-23.5 34 -23.5 56c0 21.333 7.83301 39.833 23.5 55.5s34.167 23.5 55.5 23.5c22 0 40.667 -7.83301 56 -23.5s23 -34.167 23 -55.5zM581 143c0 -22 -7.66699 -40.667 -23 -56
s-34 -23 -56 -23c-21.333 0 -39.833 7.66699 -55.5 23s-23.5 34 -23.5 56c0 21.333 7.83301 39.833 23.5 55.5s34.167 23.5 55.5 23.5c22 0 40.667 -7.83301 56 -23.5s23 -34.167 23 -55.5z" />
    <glyph glyph-name="guilsinglleft" unicode="&#x2039;" horiz-adv-x="288" 
d="M258 10l-134 214.998l134 215c4 6.66699 3 10 -3 10h-67c-6.66699 0 -12.334 -3.33301 -17.001 -10l-134 -205c-2.66699 -3.33301 -4 -6.66602 -4 -9.99902s1.33301 -6.66602 4 -9.99902l134 -205c4.66699 -6.66699 10.334 -10 17.001 -10h67c6 -0 7 3.33301 3 10z" />
    <glyph glyph-name="guilsinglright" unicode="&#x203a;" horiz-adv-x="288" 
d="M254 215c2.66699 3.33301 4 6.66797 4 10.001s-1.33301 6.66602 -4 9.99902l-134 205c-4.66699 6.66699 -10.334 10 -17.001 10h-67c-6 0 -7 -3.33301 -3 -10l134 -215l-134 -215c-4 -6.66699 -3 -10 3 -10h67c6.66699 -0 12.334 3.33301 17.001 10z" />
    <glyph glyph-name="fraction" unicode="&#x2044;" horiz-adv-x="416" 
d="M436 686c2.66699 6.66699 0 10 -8 10h-84c-4 0 -7.33301 -3.33301 -10 -10l-354 -691c-2.66699 -6.66699 0 -10 8 -10h84c4 0 7.33301 3.33301 10 10z" />
    <glyph glyph-name="trademark" unicode="&#x2122;" horiz-adv-x="792" 
d="M695 367l0.000976562 335c0 8.66699 -4.33301 13 -13 13h-36c-4.66699 0 -8.33398 -2.33301 -11.001 -7l-116 -191l-116 189l-1 2c-2 4.66699 -5.66699 7 -11 7h-36c-8 0 -12 -4.33301 -12 -13v-335c0 -8.66699 4 -13 12 -13h36c8.66699 0 13 4.33301 13 13v221l88 -143
c4 -6 8 -9 12 -9h29c4.66699 0 8.66699 3 12 9l88 143v-221c0 -8.66699 4.33301 -13 13 -13h36c8.66699 0 13 4.33301 13 13zM321.001 670v32c0 8.66699 -4 13 -12 13h-251c-8.66699 0 -13 -4.33301 -13 -13v-32c0 -8.66699 4.33301 -13 13 -13h94v-290
c0 -8.66699 4 -13 12 -13h38c8.66699 0 13 4.33301 13 13v290h94c8 0 12 4.33301 12 13z" />
    <glyph glyph-name="partialdiff" unicode="&#x2202;" 
 />
    <glyph glyph-name="product" unicode="&#x220f;" 
 />
    <glyph glyph-name="summation" unicode="&#x2211;" 
 />
    <glyph glyph-name="radical" unicode="&#x221a;" 
 />
    <glyph glyph-name="infinity" unicode="&#x221e;" 
 />
    <glyph glyph-name="integral" unicode="&#x222b;" 
 />
    <glyph glyph-name="approxequal" unicode="&#x2248;" 
 />
    <glyph glyph-name="approxequal" unicode="&#x22f2;" 
 />
    <glyph glyph-name="notequal" unicode="&#x2260;" 
 />
    <glyph glyph-name="lessequal" unicode="&#x2264;" 
 />
    <glyph glyph-name="greaterequal" unicode="&#x2265;" 
 />
    <glyph glyph-name="lozenge" unicode="&#x25ca;" 
 />
    <glyph glyph-name="apple" unicode="&#xf000;" horiz-adv-x="542" 
d="M463 396l-0.00195312 43.998l-43 5c-3.33301 0.666992 -6.66602 1 -9.99902 1h-8c-45.333 0 -69 -20.667 -71 -62c-23.333 10 -50 15 -80 15c-50 0 -89.333 -14.5 -118 -43.5s-43 -67.833 -43 -116.5c0 -70 26.667 -118 80 -144c-15.333 -13.333 -23 -28.666 -23 -45.999
c0 -26.667 21 -49.334 63 -68.001c19.333 -7.33301 38.833 -14.333 58.5 -21l58.5 -20c42 -17.333 63 -36.666 63 -57.999c0 -29.333 -14.333 -51.333 -43 -66c-22.667 -12.667 -50 -19 -82 -19c-31.333 0 -58.333 6 -81 18c-29.333 15.333 -44 37 -44 65
c0 4.66699 0.333008 8 1 10l-45 -22c0 -40.667 18.667 -71.667 56 -93c31.333 -17.333 69 -26 113 -26c46 0 86.333 10.333 121 31c40 24.667 60 58.667 60 102c0 46.667 -33.333 82.334 -100 107.001c-3.33301 1.33301 -12 4.33301 -26 9l-57 19
c-28.667 8.66699 -48.667 17 -60 25v42c14.667 -3.33301 30.667 -5 48 -5c48.667 0 87.834 14.167 117.501 42.5s44.5 67.5 44.5 117.5s-15 90 -45 120c2 24.667 16.667 37 44 37h51zM336.998 -148.002v4h-22v14h20v4h-20v12h22v4h-26v-38h26zM295.998 -122.002
c0 8 -4 12 -12 12h-15v-38h4v15h11c8 0 12 3.66699 12 11zM255.998 -112.002l-3 2l-14 -18l-14 18l-3 -2l15 -19v-17h4v17zM212.998 -114.002v4h-30v-4h13v-34h4v34h13zM356.998 238.998c0 -34 -9.16699 -61.167 -27.5 -81.5s-44.5 -30.5 -78.5 -30.5
c-70.667 0 -106 37.333 -106 112c0 34 9.16699 61 27.5 81s44.5 30 78.5 30c70.667 0 106 -37 106 -111zM291.998 -122.002c0 -4.66699 -2.66699 -7 -8 -7h-11v15h11c5.33301 0 8 -2.66699 8 -8z" />
    <glyph glyph-name="fi" unicode="&#xf001;" horiz-adv-x="534" 
d="M478 628c0 14.667 -5.16699 27.167 -15.5 37.5s-22.833 15.5 -37.5 15.5s-27.167 -5.16699 -37.5 -15.5s-15.5 -22.833 -15.5 -37.5s5.16699 -27.167 15.5 -37.5s22.833 -15.5 37.5 -15.5s27.167 5.16699 37.5 15.5s15.5 22.833 15.5 37.5zM469 10v429
c0 6.66699 -3.33301 10 -10 10h-69c-6.66699 0 -10 -3.33301 -10 -10v-429c0 -6.66699 3.33301 -10 10 -10h69c6.66699 -0 10 3.33301 10 10zM341 633c4.66699 6 4.33203 10.667 -1.00098 14c-37.333 28.667 -81.666 43 -132.999 43c-90 0 -135 -50.333 -135 -151v-90h-54
c-6.66699 0 -10 -3.33301 -10 -10v-60c0 -6.66699 3.33301 -10 10 -10h54v-359c0 -6.66699 3.33301 -10 10 -10h69c6.66699 -0 10 3.33301 10 10v359h116c6.66699 0 10 3.33301 10 10v60c0 6.66699 -3.33301 10 -10 10h-116v84c0 53.333 16.667 80 50 80
c26.667 0 52.667 -10.333 78 -31c5.33301 -5.33301 10 -5.33301 14 0z" />
    <glyph glyph-name="fl" unicode="&#xf002;" horiz-adv-x="549" 
d="M469 10v661c0 6.66699 -3.33301 10 -10 10h-69c-6.66699 0 -10 -3.33301 -10 -10v-661c0 -6.66699 3.33301 -10 10 -10h69c6.66699 -0 10 3.33301 10 10zM341 633c4.66699 6 4.33203 10.667 -1.00098 14c-37.333 28.667 -81.666 43 -132.999 43
c-90 0 -135 -50.333 -135 -151v-90h-54c-6.66699 0 -10 -3.33301 -10 -10v-60c0 -6.66699 3.33301 -10 10 -10h54v-359c0 -6.66699 3.33301 -10 10 -10h69c6.66699 -0 10 3.33301 10 10v359h116c6.66699 0 10 3.33301 10 10v60c0 6.66699 -3.33301 10 -10 10h-116v84
c0 53.333 16.667 80 50 80c26.667 0 52.667 -10.333 78 -31c5.33301 -5.33301 10 -5.33301 14 0z" />
    <glyph glyph-name=".null" horiz-adv-x="0" 
 />
    <glyph glyph-name="glyph2" horiz-adv-x="278" 
 />
    <glyph glyph-name="glyph221" 
 />
    <glyph glyph-name="HT" 
 />
    <glyph glyph-name="LF" 
 />
    <glyph glyph-name="nonmarkingreturn" 
 />
    <glyph glyph-name="DLE" 
 />
    <glyph glyph-name="DC1" 
 />
    <glyph glyph-name="DC2" 
 />
    <glyph glyph-name="DC3" 
 />
    <glyph glyph-name="DC4" 
 />
    <glyph glyph-name="RS" 
 />
    <glyph glyph-name="US" 
 />
    <glyph glyph-name="DEL" 
 />
    <glyph glyph-name=".null" horiz-adv-x="0" 
 />
    </font>
</defs>
</svg>
